%TF.GenerationSoftware,KiCad,Pcbnew,(6.0.1)*%
%TF.CreationDate,2022-01-25T20:37:15+01:00*%
%TF.ProjectId,V0-UmbilicalBoard,56302d55-6d62-4696-9c69-63616c426f61,rev?*%
%TF.SameCoordinates,Original*%
%TF.FileFunction,Legend,Bot*%
%TF.FilePolarity,Positive*%
%FSLAX46Y46*%
G04 Gerber Fmt 4.6, Leading zero omitted, Abs format (unit mm)*
G04 Created by KiCad (PCBNEW (6.0.1)) date 2022-01-25 20:37:15*
%MOMM*%
%LPD*%
G01*
G04 APERTURE LIST*
%ADD10C,0.300000*%
%ADD11C,0.200000*%
%ADD12C,0.150000*%
%ADD13C,0.120000*%
G04 APERTURE END LIST*
D10*
X123631428Y-86407142D02*
X122488571Y-86407142D01*
X120631428Y-86407142D02*
X119488571Y-86407142D01*
X120060000Y-86978571D02*
X120060000Y-85835714D01*
D11*
X117160714Y-106796726D02*
X116744047Y-108046726D01*
X116327380Y-106796726D01*
X115672619Y-106796726D02*
X115553571Y-106796726D01*
X115434523Y-106856250D01*
X115375000Y-106915773D01*
X115315476Y-107034821D01*
X115255952Y-107272916D01*
X115255952Y-107570535D01*
X115315476Y-107808630D01*
X115375000Y-107927678D01*
X115434523Y-107987202D01*
X115553571Y-108046726D01*
X115672619Y-108046726D01*
X115791666Y-107987202D01*
X115851190Y-107927678D01*
X115910714Y-107808630D01*
X115970238Y-107570535D01*
X115970238Y-107272916D01*
X115910714Y-107034821D01*
X115851190Y-106915773D01*
X115791666Y-106856250D01*
X115672619Y-106796726D01*
X113767857Y-106796726D02*
X113767857Y-107808630D01*
X113708333Y-107927678D01*
X113648809Y-107987202D01*
X113529761Y-108046726D01*
X113291666Y-108046726D01*
X113172619Y-107987202D01*
X113113095Y-107927678D01*
X113053571Y-107808630D01*
X113053571Y-106796726D01*
X112458333Y-108046726D02*
X112458333Y-107213392D01*
X112458333Y-107332440D02*
X112398809Y-107272916D01*
X112279761Y-107213392D01*
X112101190Y-107213392D01*
X111982142Y-107272916D01*
X111922619Y-107391964D01*
X111922619Y-108046726D01*
X111922619Y-107391964D02*
X111863095Y-107272916D01*
X111744047Y-107213392D01*
X111565476Y-107213392D01*
X111446428Y-107272916D01*
X111386904Y-107391964D01*
X111386904Y-108046726D01*
X110791666Y-108046726D02*
X110791666Y-106796726D01*
X110791666Y-107272916D02*
X110672619Y-107213392D01*
X110434523Y-107213392D01*
X110315476Y-107272916D01*
X110255952Y-107332440D01*
X110196428Y-107451488D01*
X110196428Y-107808630D01*
X110255952Y-107927678D01*
X110315476Y-107987202D01*
X110434523Y-108046726D01*
X110672619Y-108046726D01*
X110791666Y-107987202D01*
X109660714Y-108046726D02*
X109660714Y-107213392D01*
X109660714Y-106796726D02*
X109720238Y-106856250D01*
X109660714Y-106915773D01*
X109601190Y-106856250D01*
X109660714Y-106796726D01*
X109660714Y-106915773D01*
X108886904Y-108046726D02*
X109005952Y-107987202D01*
X109065476Y-107868154D01*
X109065476Y-106796726D01*
X108410714Y-108046726D02*
X108410714Y-107213392D01*
X108410714Y-106796726D02*
X108470238Y-106856250D01*
X108410714Y-106915773D01*
X108351190Y-106856250D01*
X108410714Y-106796726D01*
X108410714Y-106915773D01*
X107279761Y-107987202D02*
X107398809Y-108046726D01*
X107636904Y-108046726D01*
X107755952Y-107987202D01*
X107815476Y-107927678D01*
X107875000Y-107808630D01*
X107875000Y-107451488D01*
X107815476Y-107332440D01*
X107755952Y-107272916D01*
X107636904Y-107213392D01*
X107398809Y-107213392D01*
X107279761Y-107272916D01*
X106208333Y-108046726D02*
X106208333Y-107391964D01*
X106267857Y-107272916D01*
X106386904Y-107213392D01*
X106625000Y-107213392D01*
X106744047Y-107272916D01*
X106208333Y-107987202D02*
X106327380Y-108046726D01*
X106625000Y-108046726D01*
X106744047Y-107987202D01*
X106803571Y-107868154D01*
X106803571Y-107749107D01*
X106744047Y-107630059D01*
X106625000Y-107570535D01*
X106327380Y-107570535D01*
X106208333Y-107511011D01*
X105434523Y-108046726D02*
X105553571Y-107987202D01*
X105613095Y-107868154D01*
X105613095Y-106796726D01*
X103589285Y-107391964D02*
X103410714Y-107451488D01*
X103351190Y-107511011D01*
X103291666Y-107630059D01*
X103291666Y-107808630D01*
X103351190Y-107927678D01*
X103410714Y-107987202D01*
X103529761Y-108046726D01*
X104005952Y-108046726D01*
X104005952Y-106796726D01*
X103589285Y-106796726D01*
X103470238Y-106856250D01*
X103410714Y-106915773D01*
X103351190Y-107034821D01*
X103351190Y-107153869D01*
X103410714Y-107272916D01*
X103470238Y-107332440D01*
X103589285Y-107391964D01*
X104005952Y-107391964D01*
X102755952Y-108046726D02*
X102755952Y-107213392D01*
X102755952Y-107451488D02*
X102696428Y-107332440D01*
X102636904Y-107272916D01*
X102517857Y-107213392D01*
X102398809Y-107213392D01*
X101505952Y-107987202D02*
X101625000Y-108046726D01*
X101863095Y-108046726D01*
X101982142Y-107987202D01*
X102041666Y-107868154D01*
X102041666Y-107391964D01*
X101982142Y-107272916D01*
X101863095Y-107213392D01*
X101625000Y-107213392D01*
X101505952Y-107272916D01*
X101446428Y-107391964D01*
X101446428Y-107511011D01*
X102041666Y-107630059D01*
X100375000Y-108046726D02*
X100375000Y-107391964D01*
X100434523Y-107272916D01*
X100553571Y-107213392D01*
X100791666Y-107213392D01*
X100910714Y-107272916D01*
X100375000Y-107987202D02*
X100494047Y-108046726D01*
X100791666Y-108046726D01*
X100910714Y-107987202D01*
X100970238Y-107868154D01*
X100970238Y-107749107D01*
X100910714Y-107630059D01*
X100791666Y-107570535D01*
X100494047Y-107570535D01*
X100375000Y-107511011D01*
X99779761Y-108046726D02*
X99779761Y-106796726D01*
X99660714Y-107570535D02*
X99303571Y-108046726D01*
X99303571Y-107213392D02*
X99779761Y-107689583D01*
X98589285Y-108046726D02*
X98708333Y-107987202D01*
X98767857Y-107927678D01*
X98827380Y-107808630D01*
X98827380Y-107451488D01*
X98767857Y-107332440D01*
X98708333Y-107272916D01*
X98589285Y-107213392D01*
X98410714Y-107213392D01*
X98291666Y-107272916D01*
X98232142Y-107332440D01*
X98172619Y-107451488D01*
X98172619Y-107808630D01*
X98232142Y-107927678D01*
X98291666Y-107987202D01*
X98410714Y-108046726D01*
X98589285Y-108046726D01*
X97101190Y-107213392D02*
X97101190Y-108046726D01*
X97636904Y-107213392D02*
X97636904Y-107868154D01*
X97577380Y-107987202D01*
X97458333Y-108046726D01*
X97279761Y-108046726D01*
X97160714Y-107987202D01*
X97101190Y-107927678D01*
X96684523Y-107213392D02*
X96208333Y-107213392D01*
X96505952Y-106796726D02*
X96505952Y-107868154D01*
X96446428Y-107987202D01*
X96327380Y-108046726D01*
X96208333Y-108046726D01*
X94422619Y-107391964D02*
X94244047Y-107451488D01*
X94184523Y-107511011D01*
X94125000Y-107630059D01*
X94125000Y-107808630D01*
X94184523Y-107927678D01*
X94244047Y-107987202D01*
X94363095Y-108046726D01*
X94839285Y-108046726D01*
X94839285Y-106796726D01*
X94422619Y-106796726D01*
X94303571Y-106856250D01*
X94244047Y-106915773D01*
X94184523Y-107034821D01*
X94184523Y-107153869D01*
X94244047Y-107272916D01*
X94303571Y-107332440D01*
X94422619Y-107391964D01*
X94839285Y-107391964D01*
X93410714Y-108046726D02*
X93529761Y-107987202D01*
X93589285Y-107927678D01*
X93648809Y-107808630D01*
X93648809Y-107451488D01*
X93589285Y-107332440D01*
X93529761Y-107272916D01*
X93410714Y-107213392D01*
X93232142Y-107213392D01*
X93113095Y-107272916D01*
X93053571Y-107332440D01*
X92994047Y-107451488D01*
X92994047Y-107808630D01*
X93053571Y-107927678D01*
X93113095Y-107987202D01*
X93232142Y-108046726D01*
X93410714Y-108046726D01*
X91922619Y-108046726D02*
X91922619Y-107391964D01*
X91982142Y-107272916D01*
X92101190Y-107213392D01*
X92339285Y-107213392D01*
X92458333Y-107272916D01*
X91922619Y-107987202D02*
X92041666Y-108046726D01*
X92339285Y-108046726D01*
X92458333Y-107987202D01*
X92517857Y-107868154D01*
X92517857Y-107749107D01*
X92458333Y-107630059D01*
X92339285Y-107570535D01*
X92041666Y-107570535D01*
X91922619Y-107511011D01*
X91327380Y-108046726D02*
X91327380Y-107213392D01*
X91327380Y-107451488D02*
X91267857Y-107332440D01*
X91208333Y-107272916D01*
X91089285Y-107213392D01*
X90970238Y-107213392D01*
X90017857Y-108046726D02*
X90017857Y-106796726D01*
X90017857Y-107987202D02*
X90136904Y-108046726D01*
X90375000Y-108046726D01*
X90494047Y-107987202D01*
X90553571Y-107927678D01*
X90613095Y-107808630D01*
X90613095Y-107451488D01*
X90553571Y-107332440D01*
X90494047Y-107272916D01*
X90375000Y-107213392D01*
X90136904Y-107213392D01*
X90017857Y-107272916D01*
X88470238Y-108046726D02*
X88470238Y-106796726D01*
X87994047Y-106796726D01*
X87875000Y-106856250D01*
X87815476Y-106915773D01*
X87755952Y-107034821D01*
X87755952Y-107213392D01*
X87815476Y-107332440D01*
X87875000Y-107391964D01*
X87994047Y-107451488D01*
X88470238Y-107451488D01*
X87041666Y-108046726D02*
X87160714Y-107987202D01*
X87220238Y-107868154D01*
X87220238Y-106796726D01*
X86029761Y-107213392D02*
X86029761Y-108046726D01*
X86565476Y-107213392D02*
X86565476Y-107868154D01*
X86505952Y-107987202D01*
X86386904Y-108046726D01*
X86208333Y-108046726D01*
X86089285Y-107987202D01*
X86029761Y-107927678D01*
X85494047Y-107987202D02*
X85375000Y-108046726D01*
X85136904Y-108046726D01*
X85017857Y-107987202D01*
X84958333Y-107868154D01*
X84958333Y-107808630D01*
X85017857Y-107689583D01*
X85136904Y-107630059D01*
X85315476Y-107630059D01*
X85434523Y-107570535D01*
X85494047Y-107451488D01*
X85494047Y-107391964D01*
X85434523Y-107272916D01*
X85315476Y-107213392D01*
X85136904Y-107213392D01*
X85017857Y-107272916D01*
X108648809Y-110059226D02*
X109065476Y-109463988D01*
X109363095Y-110059226D02*
X109363095Y-108809226D01*
X108886904Y-108809226D01*
X108767857Y-108868750D01*
X108708333Y-108928273D01*
X108648809Y-109047321D01*
X108648809Y-109225892D01*
X108708333Y-109344940D01*
X108767857Y-109404464D01*
X108886904Y-109463988D01*
X109363095Y-109463988D01*
X107636904Y-109999702D02*
X107755952Y-110059226D01*
X107994047Y-110059226D01*
X108113095Y-109999702D01*
X108172619Y-109880654D01*
X108172619Y-109404464D01*
X108113095Y-109285416D01*
X107994047Y-109225892D01*
X107755952Y-109225892D01*
X107636904Y-109285416D01*
X107577380Y-109404464D01*
X107577380Y-109523511D01*
X108172619Y-109642559D01*
X107160714Y-109225892D02*
X106863095Y-110059226D01*
X106565476Y-109225892D01*
X105196428Y-109702083D02*
X104601190Y-109702083D01*
X105315476Y-110059226D02*
X104898809Y-108809226D01*
X104482142Y-110059226D01*
X103113095Y-109583035D02*
X102160714Y-109583035D01*
X99958333Y-110059226D02*
X100672619Y-110059226D01*
X100315476Y-110059226D02*
X100315476Y-108809226D01*
X100434523Y-108987797D01*
X100553571Y-109106845D01*
X100672619Y-109166369D01*
X98529761Y-108749702D02*
X99601190Y-110356845D01*
X98172619Y-108928273D02*
X98113095Y-108868750D01*
X97994047Y-108809226D01*
X97696428Y-108809226D01*
X97577380Y-108868750D01*
X97517857Y-108928273D01*
X97458333Y-109047321D01*
X97458333Y-109166369D01*
X97517857Y-109344940D01*
X98232142Y-110059226D01*
X97458333Y-110059226D01*
X96327380Y-108809226D02*
X96922619Y-108809226D01*
X96982142Y-109404464D01*
X96922619Y-109344940D01*
X96803571Y-109285416D01*
X96505952Y-109285416D01*
X96386904Y-109344940D01*
X96327380Y-109404464D01*
X96267857Y-109523511D01*
X96267857Y-109821130D01*
X96327380Y-109940178D01*
X96386904Y-109999702D01*
X96505952Y-110059226D01*
X96803571Y-110059226D01*
X96922619Y-109999702D01*
X96982142Y-109940178D01*
X94839285Y-108749702D02*
X95910714Y-110356845D01*
X94482142Y-108928273D02*
X94422619Y-108868750D01*
X94303571Y-108809226D01*
X94005952Y-108809226D01*
X93886904Y-108868750D01*
X93827380Y-108928273D01*
X93767857Y-109047321D01*
X93767857Y-109166369D01*
X93827380Y-109344940D01*
X94541666Y-110059226D01*
X93767857Y-110059226D01*
X93291666Y-108928273D02*
X93232142Y-108868750D01*
X93113095Y-108809226D01*
X92815476Y-108809226D01*
X92696428Y-108868750D01*
X92636904Y-108928273D01*
X92577380Y-109047321D01*
X92577380Y-109166369D01*
X92636904Y-109344940D01*
X93351190Y-110059226D01*
X92577380Y-110059226D01*
X106416666Y-112012202D02*
X106238095Y-112071726D01*
X105940476Y-112071726D01*
X105821428Y-112012202D01*
X105761904Y-111952678D01*
X105702380Y-111833630D01*
X105702380Y-111714583D01*
X105761904Y-111595535D01*
X105821428Y-111536011D01*
X105940476Y-111476488D01*
X106178571Y-111416964D01*
X106297619Y-111357440D01*
X106357142Y-111297916D01*
X106416666Y-111178869D01*
X106416666Y-111059821D01*
X106357142Y-110940773D01*
X106297619Y-110881250D01*
X106178571Y-110821726D01*
X105880952Y-110821726D01*
X105702380Y-110881250D01*
X105166666Y-111952678D02*
X105107142Y-112012202D01*
X105166666Y-112071726D01*
X105226190Y-112012202D01*
X105166666Y-111952678D01*
X105166666Y-112071726D01*
X103619047Y-112071726D02*
X103619047Y-110821726D01*
X102904761Y-112071726D02*
X103440476Y-111357440D01*
X102904761Y-110821726D02*
X103619047Y-111536011D01*
X101833333Y-111238392D02*
X101833333Y-112071726D01*
X102369047Y-111238392D02*
X102369047Y-111893154D01*
X102309523Y-112012202D01*
X102190476Y-112071726D01*
X102011904Y-112071726D01*
X101892857Y-112012202D01*
X101833333Y-111952678D01*
X100761904Y-112012202D02*
X100880952Y-112071726D01*
X101119047Y-112071726D01*
X101238095Y-112012202D01*
X101297619Y-111893154D01*
X101297619Y-111416964D01*
X101238095Y-111297916D01*
X101119047Y-111238392D01*
X100880952Y-111238392D01*
X100761904Y-111297916D01*
X100702380Y-111416964D01*
X100702380Y-111536011D01*
X101297619Y-111655059D01*
X100166666Y-111238392D02*
X100166666Y-112488392D01*
X100166666Y-111297916D02*
X100047619Y-111238392D01*
X99809523Y-111238392D01*
X99690476Y-111297916D01*
X99630952Y-111357440D01*
X99571428Y-111476488D01*
X99571428Y-111833630D01*
X99630952Y-111952678D01*
X99690476Y-112012202D01*
X99809523Y-112071726D01*
X100047619Y-112071726D01*
X100166666Y-112012202D01*
X99035714Y-111238392D02*
X99035714Y-112488392D01*
X99035714Y-111297916D02*
X98916666Y-111238392D01*
X98678571Y-111238392D01*
X98559523Y-111297916D01*
X98500000Y-111357440D01*
X98440476Y-111476488D01*
X98440476Y-111833630D01*
X98500000Y-111952678D01*
X98559523Y-112012202D01*
X98678571Y-112071726D01*
X98916666Y-112071726D01*
X99035714Y-112012202D01*
X97428571Y-112012202D02*
X97547619Y-112071726D01*
X97785714Y-112071726D01*
X97904761Y-112012202D01*
X97964285Y-111893154D01*
X97964285Y-111416964D01*
X97904761Y-111297916D01*
X97785714Y-111238392D01*
X97547619Y-111238392D01*
X97428571Y-111297916D01*
X97369047Y-111416964D01*
X97369047Y-111536011D01*
X97964285Y-111655059D01*
X96833333Y-112071726D02*
X96833333Y-111238392D01*
X96833333Y-111476488D02*
X96773809Y-111357440D01*
X96714285Y-111297916D01*
X96595238Y-111238392D01*
X96476190Y-111238392D01*
X96119047Y-112012202D02*
X96000000Y-112071726D01*
X95761904Y-112071726D01*
X95642857Y-112012202D01*
X95583333Y-111893154D01*
X95583333Y-111833630D01*
X95642857Y-111714583D01*
X95761904Y-111655059D01*
X95940476Y-111655059D01*
X96059523Y-111595535D01*
X96119047Y-111476488D01*
X96119047Y-111416964D01*
X96059523Y-111297916D01*
X95940476Y-111238392D01*
X95761904Y-111238392D01*
X95642857Y-111297916D01*
X106148809Y-112834226D02*
X105434523Y-112834226D01*
X105791666Y-114084226D02*
X105791666Y-112834226D01*
X105017857Y-113965178D02*
X104958333Y-114024702D01*
X105017857Y-114084226D01*
X105077380Y-114024702D01*
X105017857Y-113965178D01*
X105017857Y-114084226D01*
X103529761Y-113727083D02*
X102934523Y-113727083D01*
X103648809Y-114084226D02*
X103232142Y-112834226D01*
X102815476Y-114084226D01*
X102398809Y-114084226D02*
X102398809Y-112834226D01*
X102398809Y-113310416D02*
X102279761Y-113250892D01*
X102041666Y-113250892D01*
X101922619Y-113310416D01*
X101863095Y-113369940D01*
X101803571Y-113488988D01*
X101803571Y-113846130D01*
X101863095Y-113965178D01*
X101922619Y-114024702D01*
X102041666Y-114084226D01*
X102279761Y-114084226D01*
X102398809Y-114024702D01*
X101267857Y-114084226D02*
X101267857Y-113250892D01*
X101267857Y-113488988D02*
X101208333Y-113369940D01*
X101148809Y-113310416D01*
X101029761Y-113250892D01*
X100910714Y-113250892D01*
X99958333Y-114084226D02*
X99958333Y-113429464D01*
X100017857Y-113310416D01*
X100136904Y-113250892D01*
X100375000Y-113250892D01*
X100494047Y-113310416D01*
X99958333Y-114024702D02*
X100077380Y-114084226D01*
X100375000Y-114084226D01*
X100494047Y-114024702D01*
X100553571Y-113905654D01*
X100553571Y-113786607D01*
X100494047Y-113667559D01*
X100375000Y-113608035D01*
X100077380Y-113608035D01*
X99958333Y-113548511D01*
X99363095Y-114084226D02*
X99363095Y-112834226D01*
X98827380Y-114084226D02*
X98827380Y-113429464D01*
X98886904Y-113310416D01*
X99005952Y-113250892D01*
X99184523Y-113250892D01*
X99303571Y-113310416D01*
X99363095Y-113369940D01*
X97696428Y-114084226D02*
X97696428Y-113429464D01*
X97755952Y-113310416D01*
X97875000Y-113250892D01*
X98113095Y-113250892D01*
X98232142Y-113310416D01*
X97696428Y-114024702D02*
X97815476Y-114084226D01*
X98113095Y-114084226D01*
X98232142Y-114024702D01*
X98291666Y-113905654D01*
X98291666Y-113786607D01*
X98232142Y-113667559D01*
X98113095Y-113608035D01*
X97815476Y-113608035D01*
X97696428Y-113548511D01*
X97101190Y-114084226D02*
X97101190Y-113250892D01*
X97101190Y-113369940D02*
X97041666Y-113310416D01*
X96922619Y-113250892D01*
X96744047Y-113250892D01*
X96625000Y-113310416D01*
X96565476Y-113429464D01*
X96565476Y-114084226D01*
X96565476Y-113429464D02*
X96505952Y-113310416D01*
X96386904Y-113250892D01*
X96208333Y-113250892D01*
X96089285Y-113310416D01*
X96029761Y-113429464D01*
X96029761Y-114084226D01*
D12*
X51555000Y-105261904D02*
X51602619Y-105357142D01*
X51602619Y-105500000D01*
X51555000Y-105642857D01*
X51459761Y-105738095D01*
X51364523Y-105785714D01*
X51174047Y-105833333D01*
X51031190Y-105833333D01*
X50840714Y-105785714D01*
X50745476Y-105738095D01*
X50650238Y-105642857D01*
X50602619Y-105500000D01*
X50602619Y-105404761D01*
X50650238Y-105261904D01*
X50697857Y-105214285D01*
X51031190Y-105214285D01*
X51031190Y-105404761D01*
X51269285Y-104785714D02*
X50602619Y-104785714D01*
X51174047Y-104785714D02*
X51221666Y-104738095D01*
X51269285Y-104642857D01*
X51269285Y-104500000D01*
X51221666Y-104404761D01*
X51126428Y-104357142D01*
X50602619Y-104357142D01*
X50602619Y-103452380D02*
X51602619Y-103452380D01*
X50650238Y-103452380D02*
X50602619Y-103547619D01*
X50602619Y-103738095D01*
X50650238Y-103833333D01*
X50697857Y-103880952D01*
X50793095Y-103928571D01*
X51078809Y-103928571D01*
X51174047Y-103880952D01*
X51221666Y-103833333D01*
X51269285Y-103738095D01*
X51269285Y-103547619D01*
X51221666Y-103452380D01*
X50983571Y-102214285D02*
X50983571Y-101452380D01*
X50602619Y-101833333D02*
X51364523Y-101833333D01*
X51602619Y-100500000D02*
X51602619Y-100976190D01*
X51126428Y-101023809D01*
X51174047Y-100976190D01*
X51221666Y-100880952D01*
X51221666Y-100642857D01*
X51174047Y-100547619D01*
X51126428Y-100500000D01*
X51031190Y-100452380D01*
X50793095Y-100452380D01*
X50697857Y-100500000D01*
X50650238Y-100547619D01*
X50602619Y-100642857D01*
X50602619Y-100880952D01*
X50650238Y-100976190D01*
X50697857Y-101023809D01*
X51602619Y-100166666D02*
X50602619Y-99833333D01*
X51602619Y-99500000D01*
X50602619Y-98404761D02*
X51602619Y-98404761D01*
X51269285Y-97928571D02*
X50602619Y-97928571D01*
X51174047Y-97928571D02*
X51221666Y-97880952D01*
X51269285Y-97785714D01*
X51269285Y-97642857D01*
X51221666Y-97547619D01*
X51126428Y-97500000D01*
X50602619Y-97500000D01*
X51602619Y-96071428D02*
X51602619Y-95880952D01*
X51555000Y-95785714D01*
X51459761Y-95690476D01*
X51269285Y-95642857D01*
X50935952Y-95642857D01*
X50745476Y-95690476D01*
X50650238Y-95785714D01*
X50602619Y-95880952D01*
X50602619Y-96071428D01*
X50650238Y-96166666D01*
X50745476Y-96261904D01*
X50935952Y-96309523D01*
X51269285Y-96309523D01*
X51459761Y-96261904D01*
X51555000Y-96166666D01*
X51602619Y-96071428D01*
X51269285Y-94785714D02*
X50602619Y-94785714D01*
X51269285Y-95214285D02*
X50745476Y-95214285D01*
X50650238Y-95166666D01*
X50602619Y-95071428D01*
X50602619Y-94928571D01*
X50650238Y-94833333D01*
X50697857Y-94785714D01*
X51269285Y-94452380D02*
X51269285Y-94071428D01*
X51602619Y-94309523D02*
X50745476Y-94309523D01*
X50650238Y-94261904D01*
X50602619Y-94166666D01*
X50602619Y-94071428D01*
X48992619Y-105952380D02*
X49992619Y-105952380D01*
X48992619Y-105380952D01*
X49992619Y-105380952D01*
X49040238Y-104523809D02*
X48992619Y-104619047D01*
X48992619Y-104809523D01*
X49040238Y-104904761D01*
X49135476Y-104952380D01*
X49516428Y-104952380D01*
X49611666Y-104904761D01*
X49659285Y-104809523D01*
X49659285Y-104619047D01*
X49611666Y-104523809D01*
X49516428Y-104476190D01*
X49421190Y-104476190D01*
X49325952Y-104952380D01*
X48992619Y-103904761D02*
X49040238Y-104000000D01*
X49087857Y-104047619D01*
X49183095Y-104095238D01*
X49468809Y-104095238D01*
X49564047Y-104047619D01*
X49611666Y-104000000D01*
X49659285Y-103904761D01*
X49659285Y-103761904D01*
X49611666Y-103666666D01*
X49564047Y-103619047D01*
X49468809Y-103571428D01*
X49183095Y-103571428D01*
X49087857Y-103619047D01*
X49040238Y-103666666D01*
X48992619Y-103761904D01*
X48992619Y-103904761D01*
X49659285Y-103142857D02*
X48659285Y-103142857D01*
X49611666Y-103142857D02*
X49659285Y-103047619D01*
X49659285Y-102857142D01*
X49611666Y-102761904D01*
X49564047Y-102714285D01*
X49468809Y-102666666D01*
X49183095Y-102666666D01*
X49087857Y-102714285D01*
X49040238Y-102761904D01*
X48992619Y-102857142D01*
X48992619Y-103047619D01*
X49040238Y-103142857D01*
X48992619Y-102238095D02*
X49659285Y-102238095D01*
X49992619Y-102238095D02*
X49945000Y-102285714D01*
X49897380Y-102238095D01*
X49945000Y-102190476D01*
X49992619Y-102238095D01*
X49897380Y-102238095D01*
X48992619Y-101857142D02*
X49659285Y-101333333D01*
X49659285Y-101857142D02*
X48992619Y-101333333D01*
X49040238Y-100571428D02*
X48992619Y-100666666D01*
X48992619Y-100857142D01*
X49040238Y-100952380D01*
X49135476Y-101000000D01*
X49516428Y-101000000D01*
X49611666Y-100952380D01*
X49659285Y-100857142D01*
X49659285Y-100666666D01*
X49611666Y-100571428D01*
X49516428Y-100523809D01*
X49421190Y-100523809D01*
X49325952Y-101000000D01*
X48992619Y-99952380D02*
X49040238Y-100047619D01*
X49135476Y-100095238D01*
X49992619Y-100095238D01*
X49040238Y-98857142D02*
X48992619Y-98714285D01*
X48992619Y-98476190D01*
X49040238Y-98380952D01*
X49087857Y-98333333D01*
X49183095Y-98285714D01*
X49278333Y-98285714D01*
X49373571Y-98333333D01*
X49421190Y-98380952D01*
X49468809Y-98476190D01*
X49516428Y-98666666D01*
X49564047Y-98761904D01*
X49611666Y-98809523D01*
X49706904Y-98857142D01*
X49802142Y-98857142D01*
X49897380Y-98809523D01*
X49945000Y-98761904D01*
X49992619Y-98666666D01*
X49992619Y-98428571D01*
X49945000Y-98285714D01*
X49659285Y-98000000D02*
X49659285Y-97619047D01*
X49992619Y-97857142D02*
X49135476Y-97857142D01*
X49040238Y-97809523D01*
X48992619Y-97714285D01*
X48992619Y-97619047D01*
X48992619Y-97285714D02*
X49659285Y-97285714D01*
X49468809Y-97285714D02*
X49564047Y-97238095D01*
X49611666Y-97190476D01*
X49659285Y-97095238D01*
X49659285Y-97000000D01*
X48992619Y-96666666D02*
X49659285Y-96666666D01*
X49992619Y-96666666D02*
X49945000Y-96714285D01*
X49897380Y-96666666D01*
X49945000Y-96619047D01*
X49992619Y-96666666D01*
X49897380Y-96666666D01*
X49659285Y-96190476D02*
X48659285Y-96190476D01*
X49611666Y-96190476D02*
X49659285Y-96095238D01*
X49659285Y-95904761D01*
X49611666Y-95809523D01*
X49564047Y-95761904D01*
X49468809Y-95714285D01*
X49183095Y-95714285D01*
X49087857Y-95761904D01*
X49040238Y-95809523D01*
X48992619Y-95904761D01*
X48992619Y-96095238D01*
X49040238Y-96190476D01*
X49897380Y-94571428D02*
X49945000Y-94523809D01*
X49992619Y-94428571D01*
X49992619Y-94190476D01*
X49945000Y-94095238D01*
X49897380Y-94047619D01*
X49802142Y-94000000D01*
X49706904Y-94000000D01*
X49564047Y-94047619D01*
X48992619Y-94619047D01*
X48992619Y-94000000D01*
X148445000Y-94738095D02*
X148397380Y-94642857D01*
X148397380Y-94500000D01*
X148445000Y-94357142D01*
X148540238Y-94261904D01*
X148635476Y-94214285D01*
X148825952Y-94166666D01*
X148968809Y-94166666D01*
X149159285Y-94214285D01*
X149254523Y-94261904D01*
X149349761Y-94357142D01*
X149397380Y-94500000D01*
X149397380Y-94595238D01*
X149349761Y-94738095D01*
X149302142Y-94785714D01*
X148968809Y-94785714D01*
X148968809Y-94595238D01*
X148730714Y-95214285D02*
X149397380Y-95214285D01*
X148825952Y-95214285D02*
X148778333Y-95261904D01*
X148730714Y-95357142D01*
X148730714Y-95500000D01*
X148778333Y-95595238D01*
X148873571Y-95642857D01*
X149397380Y-95642857D01*
X149397380Y-96547619D02*
X148397380Y-96547619D01*
X149349761Y-96547619D02*
X149397380Y-96452380D01*
X149397380Y-96261904D01*
X149349761Y-96166666D01*
X149302142Y-96119047D01*
X149206904Y-96071428D01*
X148921190Y-96071428D01*
X148825952Y-96119047D01*
X148778333Y-96166666D01*
X148730714Y-96261904D01*
X148730714Y-96452380D01*
X148778333Y-96547619D01*
X149016428Y-97785714D02*
X149016428Y-98547619D01*
X149397380Y-98166666D02*
X148635476Y-98166666D01*
X148397380Y-99500000D02*
X148397380Y-99023809D01*
X148873571Y-98976190D01*
X148825952Y-99023809D01*
X148778333Y-99119047D01*
X148778333Y-99357142D01*
X148825952Y-99452380D01*
X148873571Y-99500000D01*
X148968809Y-99547619D01*
X149206904Y-99547619D01*
X149302142Y-99500000D01*
X149349761Y-99452380D01*
X149397380Y-99357142D01*
X149397380Y-99119047D01*
X149349761Y-99023809D01*
X149302142Y-98976190D01*
X148397380Y-99833333D02*
X149397380Y-100166666D01*
X148397380Y-100500000D01*
X149397380Y-101595238D02*
X148397380Y-101595238D01*
X148730714Y-102071428D02*
X149397380Y-102071428D01*
X148825952Y-102071428D02*
X148778333Y-102119047D01*
X148730714Y-102214285D01*
X148730714Y-102357142D01*
X148778333Y-102452380D01*
X148873571Y-102500000D01*
X149397380Y-102500000D01*
X148397380Y-103928571D02*
X148397380Y-104119047D01*
X148445000Y-104214285D01*
X148540238Y-104309523D01*
X148730714Y-104357142D01*
X149064047Y-104357142D01*
X149254523Y-104309523D01*
X149349761Y-104214285D01*
X149397380Y-104119047D01*
X149397380Y-103928571D01*
X149349761Y-103833333D01*
X149254523Y-103738095D01*
X149064047Y-103690476D01*
X148730714Y-103690476D01*
X148540238Y-103738095D01*
X148445000Y-103833333D01*
X148397380Y-103928571D01*
X148730714Y-105214285D02*
X149397380Y-105214285D01*
X148730714Y-104785714D02*
X149254523Y-104785714D01*
X149349761Y-104833333D01*
X149397380Y-104928571D01*
X149397380Y-105071428D01*
X149349761Y-105166666D01*
X149302142Y-105214285D01*
X148730714Y-105547619D02*
X148730714Y-105928571D01*
X148397380Y-105690476D02*
X149254523Y-105690476D01*
X149349761Y-105738095D01*
X149397380Y-105833333D01*
X149397380Y-105928571D01*
X151007380Y-94047619D02*
X150007380Y-94047619D01*
X151007380Y-94619047D01*
X150007380Y-94619047D01*
X150959761Y-95476190D02*
X151007380Y-95380952D01*
X151007380Y-95190476D01*
X150959761Y-95095238D01*
X150864523Y-95047619D01*
X150483571Y-95047619D01*
X150388333Y-95095238D01*
X150340714Y-95190476D01*
X150340714Y-95380952D01*
X150388333Y-95476190D01*
X150483571Y-95523809D01*
X150578809Y-95523809D01*
X150674047Y-95047619D01*
X151007380Y-96095238D02*
X150959761Y-96000000D01*
X150912142Y-95952380D01*
X150816904Y-95904761D01*
X150531190Y-95904761D01*
X150435952Y-95952380D01*
X150388333Y-96000000D01*
X150340714Y-96095238D01*
X150340714Y-96238095D01*
X150388333Y-96333333D01*
X150435952Y-96380952D01*
X150531190Y-96428571D01*
X150816904Y-96428571D01*
X150912142Y-96380952D01*
X150959761Y-96333333D01*
X151007380Y-96238095D01*
X151007380Y-96095238D01*
X150340714Y-96857142D02*
X151340714Y-96857142D01*
X150388333Y-96857142D02*
X150340714Y-96952380D01*
X150340714Y-97142857D01*
X150388333Y-97238095D01*
X150435952Y-97285714D01*
X150531190Y-97333333D01*
X150816904Y-97333333D01*
X150912142Y-97285714D01*
X150959761Y-97238095D01*
X151007380Y-97142857D01*
X151007380Y-96952380D01*
X150959761Y-96857142D01*
X151007380Y-97761904D02*
X150340714Y-97761904D01*
X150007380Y-97761904D02*
X150055000Y-97714285D01*
X150102619Y-97761904D01*
X150055000Y-97809523D01*
X150007380Y-97761904D01*
X150102619Y-97761904D01*
X151007380Y-98142857D02*
X150340714Y-98666666D01*
X150340714Y-98142857D02*
X151007380Y-98666666D01*
X150959761Y-99428571D02*
X151007380Y-99333333D01*
X151007380Y-99142857D01*
X150959761Y-99047619D01*
X150864523Y-99000000D01*
X150483571Y-99000000D01*
X150388333Y-99047619D01*
X150340714Y-99142857D01*
X150340714Y-99333333D01*
X150388333Y-99428571D01*
X150483571Y-99476190D01*
X150578809Y-99476190D01*
X150674047Y-99000000D01*
X151007380Y-100047619D02*
X150959761Y-99952380D01*
X150864523Y-99904761D01*
X150007380Y-99904761D01*
X150959761Y-101142857D02*
X151007380Y-101285714D01*
X151007380Y-101523809D01*
X150959761Y-101619047D01*
X150912142Y-101666666D01*
X150816904Y-101714285D01*
X150721666Y-101714285D01*
X150626428Y-101666666D01*
X150578809Y-101619047D01*
X150531190Y-101523809D01*
X150483571Y-101333333D01*
X150435952Y-101238095D01*
X150388333Y-101190476D01*
X150293095Y-101142857D01*
X150197857Y-101142857D01*
X150102619Y-101190476D01*
X150055000Y-101238095D01*
X150007380Y-101333333D01*
X150007380Y-101571428D01*
X150055000Y-101714285D01*
X150340714Y-102000000D02*
X150340714Y-102380952D01*
X150007380Y-102142857D02*
X150864523Y-102142857D01*
X150959761Y-102190476D01*
X151007380Y-102285714D01*
X151007380Y-102380952D01*
X151007380Y-102714285D02*
X150340714Y-102714285D01*
X150531190Y-102714285D02*
X150435952Y-102761904D01*
X150388333Y-102809523D01*
X150340714Y-102904761D01*
X150340714Y-103000000D01*
X151007380Y-103333333D02*
X150340714Y-103333333D01*
X150007380Y-103333333D02*
X150055000Y-103285714D01*
X150102619Y-103333333D01*
X150055000Y-103380952D01*
X150007380Y-103333333D01*
X150102619Y-103333333D01*
X150340714Y-103809523D02*
X151340714Y-103809523D01*
X150388333Y-103809523D02*
X150340714Y-103904761D01*
X150340714Y-104095238D01*
X150388333Y-104190476D01*
X150435952Y-104238095D01*
X150531190Y-104285714D01*
X150816904Y-104285714D01*
X150912142Y-104238095D01*
X150959761Y-104190476D01*
X151007380Y-104095238D01*
X151007380Y-103904761D01*
X150959761Y-103809523D01*
X151007380Y-106000000D02*
X151007380Y-105428571D01*
X151007380Y-105714285D02*
X150007380Y-105714285D01*
X150150238Y-105619047D01*
X150245476Y-105523809D01*
X150293095Y-105428571D01*
X124993333Y-114147380D02*
X124993333Y-113147380D01*
X124660000Y-113861666D01*
X124326666Y-113147380D01*
X124326666Y-114147380D01*
X123707619Y-114147380D02*
X123802857Y-114099761D01*
X123850476Y-114052142D01*
X123898095Y-113956904D01*
X123898095Y-113671190D01*
X123850476Y-113575952D01*
X123802857Y-113528333D01*
X123707619Y-113480714D01*
X123564761Y-113480714D01*
X123469523Y-113528333D01*
X123421904Y-113575952D01*
X123374285Y-113671190D01*
X123374285Y-113956904D01*
X123421904Y-114052142D01*
X123469523Y-114099761D01*
X123564761Y-114147380D01*
X123707619Y-114147380D01*
X123088571Y-113480714D02*
X122707619Y-113480714D01*
X122945714Y-113147380D02*
X122945714Y-114004523D01*
X122898095Y-114099761D01*
X122802857Y-114147380D01*
X122707619Y-114147380D01*
X122231428Y-114147380D02*
X122326666Y-114099761D01*
X122374285Y-114052142D01*
X122421904Y-113956904D01*
X122421904Y-113671190D01*
X122374285Y-113575952D01*
X122326666Y-113528333D01*
X122231428Y-113480714D01*
X122088571Y-113480714D01*
X121993333Y-113528333D01*
X121945714Y-113575952D01*
X121898095Y-113671190D01*
X121898095Y-113956904D01*
X121945714Y-114052142D01*
X121993333Y-114099761D01*
X122088571Y-114147380D01*
X122231428Y-114147380D01*
X121469523Y-114147380D02*
X121469523Y-113480714D01*
X121469523Y-113671190D02*
X121421904Y-113575952D01*
X121374285Y-113528333D01*
X121279047Y-113480714D01*
X121183809Y-113480714D01*
X127874285Y-115471666D02*
X127398095Y-115471666D01*
X127969523Y-115757380D02*
X127636190Y-114757380D01*
X127302857Y-115757380D01*
X126445714Y-115757380D02*
X127017142Y-115757380D01*
X126731428Y-115757380D02*
X126731428Y-114757380D01*
X126826666Y-114900238D01*
X126921904Y-114995476D01*
X127017142Y-115043095D01*
X125302857Y-115471666D02*
X124826666Y-115471666D01*
X125398095Y-115757380D02*
X125064761Y-114757380D01*
X124731428Y-115757380D01*
X124445714Y-114852619D02*
X124398095Y-114805000D01*
X124302857Y-114757380D01*
X124064761Y-114757380D01*
X123969523Y-114805000D01*
X123921904Y-114852619D01*
X123874285Y-114947857D01*
X123874285Y-115043095D01*
X123921904Y-115185952D01*
X124493333Y-115757380D01*
X123874285Y-115757380D01*
X122350476Y-115233571D02*
X122207619Y-115281190D01*
X122160000Y-115328809D01*
X122112380Y-115424047D01*
X122112380Y-115566904D01*
X122160000Y-115662142D01*
X122207619Y-115709761D01*
X122302857Y-115757380D01*
X122683809Y-115757380D01*
X122683809Y-114757380D01*
X122350476Y-114757380D01*
X122255238Y-114805000D01*
X122207619Y-114852619D01*
X122160000Y-114947857D01*
X122160000Y-115043095D01*
X122207619Y-115138333D01*
X122255238Y-115185952D01*
X122350476Y-115233571D01*
X122683809Y-115233571D01*
X121160000Y-115757380D02*
X121731428Y-115757380D01*
X121445714Y-115757380D02*
X121445714Y-114757380D01*
X121540952Y-114900238D01*
X121636190Y-114995476D01*
X121731428Y-115043095D01*
X119636190Y-115233571D02*
X119493333Y-115281190D01*
X119445714Y-115328809D01*
X119398095Y-115424047D01*
X119398095Y-115566904D01*
X119445714Y-115662142D01*
X119493333Y-115709761D01*
X119588571Y-115757380D01*
X119969523Y-115757380D01*
X119969523Y-114757380D01*
X119636190Y-114757380D01*
X119540952Y-114805000D01*
X119493333Y-114852619D01*
X119445714Y-114947857D01*
X119445714Y-115043095D01*
X119493333Y-115138333D01*
X119540952Y-115185952D01*
X119636190Y-115233571D01*
X119969523Y-115233571D01*
X119017142Y-114852619D02*
X118969523Y-114805000D01*
X118874285Y-114757380D01*
X118636190Y-114757380D01*
X118540952Y-114805000D01*
X118493333Y-114852619D01*
X118445714Y-114947857D01*
X118445714Y-115043095D01*
X118493333Y-115185952D01*
X119064761Y-115757380D01*
X118445714Y-115757380D01*
X72832380Y-103457380D02*
X72832380Y-102457380D01*
X72260952Y-103457380D01*
X72260952Y-102457380D01*
X71403809Y-103409761D02*
X71499047Y-103457380D01*
X71689523Y-103457380D01*
X71784761Y-103409761D01*
X71832380Y-103314523D01*
X71832380Y-102933571D01*
X71784761Y-102838333D01*
X71689523Y-102790714D01*
X71499047Y-102790714D01*
X71403809Y-102838333D01*
X71356190Y-102933571D01*
X71356190Y-103028809D01*
X71832380Y-103124047D01*
X70784761Y-103457380D02*
X70880000Y-103409761D01*
X70927619Y-103362142D01*
X70975238Y-103266904D01*
X70975238Y-102981190D01*
X70927619Y-102885952D01*
X70880000Y-102838333D01*
X70784761Y-102790714D01*
X70641904Y-102790714D01*
X70546666Y-102838333D01*
X70499047Y-102885952D01*
X70451428Y-102981190D01*
X70451428Y-103266904D01*
X70499047Y-103362142D01*
X70546666Y-103409761D01*
X70641904Y-103457380D01*
X70784761Y-103457380D01*
X70022857Y-102790714D02*
X70022857Y-103790714D01*
X70022857Y-102838333D02*
X69927619Y-102790714D01*
X69737142Y-102790714D01*
X69641904Y-102838333D01*
X69594285Y-102885952D01*
X69546666Y-102981190D01*
X69546666Y-103266904D01*
X69594285Y-103362142D01*
X69641904Y-103409761D01*
X69737142Y-103457380D01*
X69927619Y-103457380D01*
X70022857Y-103409761D01*
X69118095Y-103457380D02*
X69118095Y-102790714D01*
X69118095Y-102457380D02*
X69165714Y-102505000D01*
X69118095Y-102552619D01*
X69070476Y-102505000D01*
X69118095Y-102457380D01*
X69118095Y-102552619D01*
X68737142Y-103457380D02*
X68213333Y-102790714D01*
X68737142Y-102790714D02*
X68213333Y-103457380D01*
X67451428Y-103409761D02*
X67546666Y-103457380D01*
X67737142Y-103457380D01*
X67832380Y-103409761D01*
X67880000Y-103314523D01*
X67880000Y-102933571D01*
X67832380Y-102838333D01*
X67737142Y-102790714D01*
X67546666Y-102790714D01*
X67451428Y-102838333D01*
X67403809Y-102933571D01*
X67403809Y-103028809D01*
X67880000Y-103124047D01*
X66832380Y-103457380D02*
X66927619Y-103409761D01*
X66975238Y-103314523D01*
X66975238Y-102457380D01*
X65737142Y-103409761D02*
X65594285Y-103457380D01*
X65356190Y-103457380D01*
X65260952Y-103409761D01*
X65213333Y-103362142D01*
X65165714Y-103266904D01*
X65165714Y-103171666D01*
X65213333Y-103076428D01*
X65260952Y-103028809D01*
X65356190Y-102981190D01*
X65546666Y-102933571D01*
X65641904Y-102885952D01*
X65689523Y-102838333D01*
X65737142Y-102743095D01*
X65737142Y-102647857D01*
X65689523Y-102552619D01*
X65641904Y-102505000D01*
X65546666Y-102457380D01*
X65308571Y-102457380D01*
X65165714Y-102505000D01*
X64880000Y-102790714D02*
X64499047Y-102790714D01*
X64737142Y-102457380D02*
X64737142Y-103314523D01*
X64689523Y-103409761D01*
X64594285Y-103457380D01*
X64499047Y-103457380D01*
X64165714Y-103457380D02*
X64165714Y-102790714D01*
X64165714Y-102981190D02*
X64118095Y-102885952D01*
X64070476Y-102838333D01*
X63975238Y-102790714D01*
X63880000Y-102790714D01*
X63546666Y-103457380D02*
X63546666Y-102790714D01*
X63546666Y-102457380D02*
X63594285Y-102505000D01*
X63546666Y-102552619D01*
X63499047Y-102505000D01*
X63546666Y-102457380D01*
X63546666Y-102552619D01*
X63070476Y-102790714D02*
X63070476Y-103790714D01*
X63070476Y-102838333D02*
X62975238Y-102790714D01*
X62784761Y-102790714D01*
X62689523Y-102838333D01*
X62641904Y-102885952D01*
X62594285Y-102981190D01*
X62594285Y-103266904D01*
X62641904Y-103362142D01*
X62689523Y-103409761D01*
X62784761Y-103457380D01*
X62975238Y-103457380D01*
X63070476Y-103409761D01*
X61499047Y-102457380D02*
X60880000Y-102457380D01*
X61213333Y-102838333D01*
X61070476Y-102838333D01*
X60975238Y-102885952D01*
X60927619Y-102933571D01*
X60880000Y-103028809D01*
X60880000Y-103266904D01*
X60927619Y-103362142D01*
X60975238Y-103409761D01*
X61070476Y-103457380D01*
X61356190Y-103457380D01*
X61451428Y-103409761D01*
X61499047Y-103362142D01*
X71022857Y-105067380D02*
X71022857Y-104067380D01*
X70546666Y-104400714D02*
X70546666Y-105067380D01*
X70546666Y-104495952D02*
X70499047Y-104448333D01*
X70403809Y-104400714D01*
X70260952Y-104400714D01*
X70165714Y-104448333D01*
X70118095Y-104543571D01*
X70118095Y-105067380D01*
X68880000Y-104686428D02*
X68118095Y-104686428D01*
X68499047Y-105067380D02*
X68499047Y-104305476D01*
X67165714Y-104067380D02*
X67641904Y-104067380D01*
X67689523Y-104543571D01*
X67641904Y-104495952D01*
X67546666Y-104448333D01*
X67308571Y-104448333D01*
X67213333Y-104495952D01*
X67165714Y-104543571D01*
X67118095Y-104638809D01*
X67118095Y-104876904D01*
X67165714Y-104972142D01*
X67213333Y-105019761D01*
X67308571Y-105067380D01*
X67546666Y-105067380D01*
X67641904Y-105019761D01*
X67689523Y-104972142D01*
X66832380Y-104067380D02*
X66499047Y-105067380D01*
X66165714Y-104067380D01*
X64546666Y-104115000D02*
X64641904Y-104067380D01*
X64784761Y-104067380D01*
X64927619Y-104115000D01*
X65022857Y-104210238D01*
X65070476Y-104305476D01*
X65118095Y-104495952D01*
X65118095Y-104638809D01*
X65070476Y-104829285D01*
X65022857Y-104924523D01*
X64927619Y-105019761D01*
X64784761Y-105067380D01*
X64689523Y-105067380D01*
X64546666Y-105019761D01*
X64499047Y-104972142D01*
X64499047Y-104638809D01*
X64689523Y-104638809D01*
X64070476Y-104400714D02*
X64070476Y-105067380D01*
X64070476Y-104495952D02*
X64022857Y-104448333D01*
X63927619Y-104400714D01*
X63784761Y-104400714D01*
X63689523Y-104448333D01*
X63641904Y-104543571D01*
X63641904Y-105067380D01*
X62737142Y-105067380D02*
X62737142Y-104067380D01*
X62737142Y-105019761D02*
X62832380Y-105067380D01*
X63022857Y-105067380D01*
X63118095Y-105019761D01*
X63165714Y-104972142D01*
X63213333Y-104876904D01*
X63213333Y-104591190D01*
X63165714Y-104495952D01*
X63118095Y-104448333D01*
X63022857Y-104400714D01*
X62832380Y-104400714D01*
X62737142Y-104448333D01*
D10*
X84941428Y-87407142D02*
X83798571Y-87407142D01*
X84370000Y-87978571D02*
X84370000Y-86835714D01*
X81941428Y-87407142D02*
X80798571Y-87407142D01*
D12*
X136428571Y-103147380D02*
X136095238Y-104147380D01*
X135761904Y-103147380D01*
X134857142Y-104052142D02*
X134904761Y-104099761D01*
X135047619Y-104147380D01*
X135142857Y-104147380D01*
X135285714Y-104099761D01*
X135380952Y-104004523D01*
X135428571Y-103909285D01*
X135476190Y-103718809D01*
X135476190Y-103575952D01*
X135428571Y-103385476D01*
X135380952Y-103290238D01*
X135285714Y-103195000D01*
X135142857Y-103147380D01*
X135047619Y-103147380D01*
X134904761Y-103195000D01*
X134857142Y-103242619D01*
X133857142Y-104052142D02*
X133904761Y-104099761D01*
X134047619Y-104147380D01*
X134142857Y-104147380D01*
X134285714Y-104099761D01*
X134380952Y-104004523D01*
X134428571Y-103909285D01*
X134476190Y-103718809D01*
X134476190Y-103575952D01*
X134428571Y-103385476D01*
X134380952Y-103290238D01*
X134285714Y-103195000D01*
X134142857Y-103147380D01*
X134047619Y-103147380D01*
X133904761Y-103195000D01*
X133857142Y-103242619D01*
X132095238Y-104052142D02*
X132142857Y-104099761D01*
X132285714Y-104147380D01*
X132380952Y-104147380D01*
X132523809Y-104099761D01*
X132619047Y-104004523D01*
X132666666Y-103909285D01*
X132714285Y-103718809D01*
X132714285Y-103575952D01*
X132666666Y-103385476D01*
X132619047Y-103290238D01*
X132523809Y-103195000D01*
X132380952Y-103147380D01*
X132285714Y-103147380D01*
X132142857Y-103195000D01*
X132095238Y-103242619D01*
X131714285Y-104099761D02*
X131571428Y-104147380D01*
X131333333Y-104147380D01*
X131238095Y-104099761D01*
X131190476Y-104052142D01*
X131142857Y-103956904D01*
X131142857Y-103861666D01*
X131190476Y-103766428D01*
X131238095Y-103718809D01*
X131333333Y-103671190D01*
X131523809Y-103623571D01*
X131619047Y-103575952D01*
X131666666Y-103528333D01*
X131714285Y-103433095D01*
X131714285Y-103337857D01*
X131666666Y-103242619D01*
X131619047Y-103195000D01*
X131523809Y-103147380D01*
X131285714Y-103147380D01*
X131142857Y-103195000D01*
X130000000Y-104099761D02*
X129857142Y-104147380D01*
X129619047Y-104147380D01*
X129523809Y-104099761D01*
X129476190Y-104052142D01*
X129428571Y-103956904D01*
X129428571Y-103861666D01*
X129476190Y-103766428D01*
X129523809Y-103718809D01*
X129619047Y-103671190D01*
X129809523Y-103623571D01*
X129904761Y-103575952D01*
X129952380Y-103528333D01*
X130000000Y-103433095D01*
X130000000Y-103337857D01*
X129952380Y-103242619D01*
X129904761Y-103195000D01*
X129809523Y-103147380D01*
X129571428Y-103147380D01*
X129428571Y-103195000D01*
X129000000Y-104147380D02*
X129000000Y-103147380D01*
X128761904Y-103147380D01*
X128619047Y-103195000D01*
X128523809Y-103290238D01*
X128476190Y-103385476D01*
X128428571Y-103575952D01*
X128428571Y-103718809D01*
X128476190Y-103909285D01*
X128523809Y-104004523D01*
X128619047Y-104099761D01*
X128761904Y-104147380D01*
X129000000Y-104147380D01*
X128000000Y-104147380D02*
X128000000Y-103147380D01*
X126809523Y-104099761D02*
X126666666Y-104147380D01*
X126428571Y-104147380D01*
X126333333Y-104099761D01*
X126285714Y-104052142D01*
X126238095Y-103956904D01*
X126238095Y-103861666D01*
X126285714Y-103766428D01*
X126333333Y-103718809D01*
X126428571Y-103671190D01*
X126619047Y-103623571D01*
X126714285Y-103575952D01*
X126761904Y-103528333D01*
X126809523Y-103433095D01*
X126809523Y-103337857D01*
X126761904Y-103242619D01*
X126714285Y-103195000D01*
X126619047Y-103147380D01*
X126380952Y-103147380D01*
X126238095Y-103195000D01*
X125809523Y-104147380D02*
X125809523Y-103147380D01*
X125571428Y-103147380D01*
X125428571Y-103195000D01*
X125333333Y-103290238D01*
X125285714Y-103385476D01*
X125238095Y-103575952D01*
X125238095Y-103718809D01*
X125285714Y-103909285D01*
X125333333Y-104004523D01*
X125428571Y-104099761D01*
X125571428Y-104147380D01*
X125809523Y-104147380D01*
X124619047Y-103147380D02*
X124428571Y-103147380D01*
X124333333Y-103195000D01*
X124238095Y-103290238D01*
X124190476Y-103480714D01*
X124190476Y-103814047D01*
X124238095Y-104004523D01*
X124333333Y-104099761D01*
X124428571Y-104147380D01*
X124619047Y-104147380D01*
X124714285Y-104099761D01*
X124809523Y-104004523D01*
X124857142Y-103814047D01*
X124857142Y-103480714D01*
X124809523Y-103290238D01*
X124714285Y-103195000D01*
X124619047Y-103147380D01*
X123047619Y-104099761D02*
X122904761Y-104147380D01*
X122666666Y-104147380D01*
X122571428Y-104099761D01*
X122523809Y-104052142D01*
X122476190Y-103956904D01*
X122476190Y-103861666D01*
X122523809Y-103766428D01*
X122571428Y-103718809D01*
X122666666Y-103671190D01*
X122857142Y-103623571D01*
X122952380Y-103575952D01*
X123000000Y-103528333D01*
X123047619Y-103433095D01*
X123047619Y-103337857D01*
X123000000Y-103242619D01*
X122952380Y-103195000D01*
X122857142Y-103147380D01*
X122619047Y-103147380D01*
X122476190Y-103195000D01*
X121476190Y-104052142D02*
X121523809Y-104099761D01*
X121666666Y-104147380D01*
X121761904Y-104147380D01*
X121904761Y-104099761D01*
X122000000Y-104004523D01*
X122047619Y-103909285D01*
X122095238Y-103718809D01*
X122095238Y-103575952D01*
X122047619Y-103385476D01*
X122000000Y-103290238D01*
X121904761Y-103195000D01*
X121761904Y-103147380D01*
X121666666Y-103147380D01*
X121523809Y-103195000D01*
X121476190Y-103242619D01*
X121047619Y-104147380D02*
X121047619Y-103147380D01*
X120476190Y-104147380D02*
X120904761Y-103575952D01*
X120476190Y-103147380D02*
X121047619Y-103718809D01*
X118761904Y-103195000D02*
X118857142Y-103147380D01*
X119000000Y-103147380D01*
X119142857Y-103195000D01*
X119238095Y-103290238D01*
X119285714Y-103385476D01*
X119333333Y-103575952D01*
X119333333Y-103718809D01*
X119285714Y-103909285D01*
X119238095Y-104004523D01*
X119142857Y-104099761D01*
X119000000Y-104147380D01*
X118904761Y-104147380D01*
X118761904Y-104099761D01*
X118714285Y-104052142D01*
X118714285Y-103718809D01*
X118904761Y-103718809D01*
X118285714Y-104147380D02*
X118285714Y-103147380D01*
X117714285Y-104147380D01*
X117714285Y-103147380D01*
X117238095Y-104147380D02*
X117238095Y-103147380D01*
X117000000Y-103147380D01*
X116857142Y-103195000D01*
X116761904Y-103290238D01*
X116714285Y-103385476D01*
X116666666Y-103575952D01*
X116666666Y-103718809D01*
X116714285Y-103909285D01*
X116761904Y-104004523D01*
X116857142Y-104099761D01*
X117000000Y-104147380D01*
X117238095Y-104147380D01*
X131595238Y-105471666D02*
X131119047Y-105471666D01*
X131690476Y-105757380D02*
X131357142Y-104757380D01*
X131023809Y-105757380D01*
X130261904Y-105709761D02*
X130357142Y-105757380D01*
X130547619Y-105757380D01*
X130642857Y-105709761D01*
X130690476Y-105662142D01*
X130738095Y-105566904D01*
X130738095Y-105281190D01*
X130690476Y-105185952D01*
X130642857Y-105138333D01*
X130547619Y-105090714D01*
X130357142Y-105090714D01*
X130261904Y-105138333D01*
X129404761Y-105709761D02*
X129500000Y-105757380D01*
X129690476Y-105757380D01*
X129785714Y-105709761D01*
X129833333Y-105662142D01*
X129880952Y-105566904D01*
X129880952Y-105281190D01*
X129833333Y-105185952D01*
X129785714Y-105138333D01*
X129690476Y-105090714D01*
X129500000Y-105090714D01*
X129404761Y-105138333D01*
X128595238Y-105709761D02*
X128690476Y-105757380D01*
X128880952Y-105757380D01*
X128976190Y-105709761D01*
X129023809Y-105614523D01*
X129023809Y-105233571D01*
X128976190Y-105138333D01*
X128880952Y-105090714D01*
X128690476Y-105090714D01*
X128595238Y-105138333D01*
X128547619Y-105233571D01*
X128547619Y-105328809D01*
X129023809Y-105424047D01*
X127976190Y-105757380D02*
X128071428Y-105709761D01*
X128119047Y-105614523D01*
X128119047Y-104757380D01*
X127214285Y-105709761D02*
X127309523Y-105757380D01*
X127500000Y-105757380D01*
X127595238Y-105709761D01*
X127642857Y-105614523D01*
X127642857Y-105233571D01*
X127595238Y-105138333D01*
X127500000Y-105090714D01*
X127309523Y-105090714D01*
X127214285Y-105138333D01*
X127166666Y-105233571D01*
X127166666Y-105328809D01*
X127642857Y-105424047D01*
X126738095Y-105757380D02*
X126738095Y-105090714D01*
X126738095Y-105281190D02*
X126690476Y-105185952D01*
X126642857Y-105138333D01*
X126547619Y-105090714D01*
X126452380Y-105090714D01*
X125976190Y-105757380D02*
X126071428Y-105709761D01*
X126119047Y-105662142D01*
X126166666Y-105566904D01*
X126166666Y-105281190D01*
X126119047Y-105185952D01*
X126071428Y-105138333D01*
X125976190Y-105090714D01*
X125833333Y-105090714D01*
X125738095Y-105138333D01*
X125690476Y-105185952D01*
X125642857Y-105281190D01*
X125642857Y-105566904D01*
X125690476Y-105662142D01*
X125738095Y-105709761D01*
X125833333Y-105757380D01*
X125976190Y-105757380D01*
X125214285Y-105757380D02*
X125214285Y-105090714D01*
X125214285Y-105185952D02*
X125166666Y-105138333D01*
X125071428Y-105090714D01*
X124928571Y-105090714D01*
X124833333Y-105138333D01*
X124785714Y-105233571D01*
X124785714Y-105757380D01*
X124785714Y-105233571D02*
X124738095Y-105138333D01*
X124642857Y-105090714D01*
X124500000Y-105090714D01*
X124404761Y-105138333D01*
X124357142Y-105233571D01*
X124357142Y-105757380D01*
X123500000Y-105709761D02*
X123595238Y-105757380D01*
X123785714Y-105757380D01*
X123880952Y-105709761D01*
X123928571Y-105614523D01*
X123928571Y-105233571D01*
X123880952Y-105138333D01*
X123785714Y-105090714D01*
X123595238Y-105090714D01*
X123500000Y-105138333D01*
X123452380Y-105233571D01*
X123452380Y-105328809D01*
X123928571Y-105424047D01*
X123166666Y-105090714D02*
X122785714Y-105090714D01*
X123023809Y-104757380D02*
X123023809Y-105614523D01*
X122976190Y-105709761D01*
X122880952Y-105757380D01*
X122785714Y-105757380D01*
X122071428Y-105709761D02*
X122166666Y-105757380D01*
X122357142Y-105757380D01*
X122452380Y-105709761D01*
X122500000Y-105614523D01*
X122500000Y-105233571D01*
X122452380Y-105138333D01*
X122357142Y-105090714D01*
X122166666Y-105090714D01*
X122071428Y-105138333D01*
X122023809Y-105233571D01*
X122023809Y-105328809D01*
X122500000Y-105424047D01*
X121595238Y-105757380D02*
X121595238Y-105090714D01*
X121595238Y-105281190D02*
X121547619Y-105185952D01*
X121500000Y-105138333D01*
X121404761Y-105090714D01*
X121309523Y-105090714D01*
X136833333Y-83342380D02*
X136833333Y-82342380D01*
X136261904Y-83342380D01*
X136261904Y-82342380D01*
X135404761Y-83294761D02*
X135500000Y-83342380D01*
X135690476Y-83342380D01*
X135785714Y-83294761D01*
X135833333Y-83199523D01*
X135833333Y-82818571D01*
X135785714Y-82723333D01*
X135690476Y-82675714D01*
X135500000Y-82675714D01*
X135404761Y-82723333D01*
X135357142Y-82818571D01*
X135357142Y-82913809D01*
X135833333Y-83009047D01*
X134785714Y-83342380D02*
X134880952Y-83294761D01*
X134928571Y-83247142D01*
X134976190Y-83151904D01*
X134976190Y-82866190D01*
X134928571Y-82770952D01*
X134880952Y-82723333D01*
X134785714Y-82675714D01*
X134642857Y-82675714D01*
X134547619Y-82723333D01*
X134500000Y-82770952D01*
X134452380Y-82866190D01*
X134452380Y-83151904D01*
X134500000Y-83247142D01*
X134547619Y-83294761D01*
X134642857Y-83342380D01*
X134785714Y-83342380D01*
X134023809Y-82675714D02*
X134023809Y-83675714D01*
X134023809Y-82723333D02*
X133928571Y-82675714D01*
X133738095Y-82675714D01*
X133642857Y-82723333D01*
X133595238Y-82770952D01*
X133547619Y-82866190D01*
X133547619Y-83151904D01*
X133595238Y-83247142D01*
X133642857Y-83294761D01*
X133738095Y-83342380D01*
X133928571Y-83342380D01*
X134023809Y-83294761D01*
X133119047Y-83342380D02*
X133119047Y-82675714D01*
X133119047Y-82342380D02*
X133166666Y-82390000D01*
X133119047Y-82437619D01*
X133071428Y-82390000D01*
X133119047Y-82342380D01*
X133119047Y-82437619D01*
X132738095Y-83342380D02*
X132214285Y-82675714D01*
X132738095Y-82675714D02*
X132214285Y-83342380D01*
X131452380Y-83294761D02*
X131547619Y-83342380D01*
X131738095Y-83342380D01*
X131833333Y-83294761D01*
X131880952Y-83199523D01*
X131880952Y-82818571D01*
X131833333Y-82723333D01*
X131738095Y-82675714D01*
X131547619Y-82675714D01*
X131452380Y-82723333D01*
X131404761Y-82818571D01*
X131404761Y-82913809D01*
X131880952Y-83009047D01*
X130833333Y-83342380D02*
X130928571Y-83294761D01*
X130976190Y-83199523D01*
X130976190Y-82342380D01*
X138404761Y-85333333D02*
X138452380Y-85285714D01*
X138547619Y-85142857D01*
X138595238Y-85047619D01*
X138642857Y-84904761D01*
X138690476Y-84666666D01*
X138690476Y-84476190D01*
X138642857Y-84238095D01*
X138595238Y-84095238D01*
X138547619Y-84000000D01*
X138452380Y-83857142D01*
X138404761Y-83809523D01*
X138166666Y-84285714D02*
X137785714Y-84285714D01*
X138023809Y-83952380D02*
X138023809Y-84809523D01*
X137976190Y-84904761D01*
X137880952Y-84952380D01*
X137785714Y-84952380D01*
X137309523Y-84952380D02*
X137404761Y-84904761D01*
X137452380Y-84857142D01*
X137500000Y-84761904D01*
X137500000Y-84476190D01*
X137452380Y-84380952D01*
X137404761Y-84333333D01*
X137309523Y-84285714D01*
X137166666Y-84285714D01*
X137071428Y-84333333D01*
X137023809Y-84380952D01*
X136976190Y-84476190D01*
X136976190Y-84761904D01*
X137023809Y-84857142D01*
X137071428Y-84904761D01*
X137166666Y-84952380D01*
X137309523Y-84952380D01*
X135357142Y-84904761D02*
X135452380Y-84952380D01*
X135642857Y-84952380D01*
X135738095Y-84904761D01*
X135785714Y-84857142D01*
X135833333Y-84761904D01*
X135833333Y-84476190D01*
X135785714Y-84380952D01*
X135738095Y-84333333D01*
X135642857Y-84285714D01*
X135452380Y-84285714D01*
X135357142Y-84333333D01*
X134785714Y-84952380D02*
X134880952Y-84904761D01*
X134928571Y-84857142D01*
X134976190Y-84761904D01*
X134976190Y-84476190D01*
X134928571Y-84380952D01*
X134880952Y-84333333D01*
X134785714Y-84285714D01*
X134642857Y-84285714D01*
X134547619Y-84333333D01*
X134500000Y-84380952D01*
X134452380Y-84476190D01*
X134452380Y-84761904D01*
X134500000Y-84857142D01*
X134547619Y-84904761D01*
X134642857Y-84952380D01*
X134785714Y-84952380D01*
X134023809Y-84285714D02*
X134023809Y-84952380D01*
X134023809Y-84380952D02*
X133976190Y-84333333D01*
X133880952Y-84285714D01*
X133738095Y-84285714D01*
X133642857Y-84333333D01*
X133595238Y-84428571D01*
X133595238Y-84952380D01*
X133261904Y-84285714D02*
X132880952Y-84285714D01*
X133119047Y-83952380D02*
X133119047Y-84809523D01*
X133071428Y-84904761D01*
X132976190Y-84952380D01*
X132880952Y-84952380D01*
X132547619Y-84952380D02*
X132547619Y-84285714D01*
X132547619Y-84476190D02*
X132500000Y-84380952D01*
X132452380Y-84333333D01*
X132357142Y-84285714D01*
X132261904Y-84285714D01*
X131785714Y-84952380D02*
X131880952Y-84904761D01*
X131928571Y-84857142D01*
X131976190Y-84761904D01*
X131976190Y-84476190D01*
X131928571Y-84380952D01*
X131880952Y-84333333D01*
X131785714Y-84285714D01*
X131642857Y-84285714D01*
X131547619Y-84333333D01*
X131500000Y-84380952D01*
X131452380Y-84476190D01*
X131452380Y-84761904D01*
X131500000Y-84857142D01*
X131547619Y-84904761D01*
X131642857Y-84952380D01*
X131785714Y-84952380D01*
X130880952Y-84952380D02*
X130976190Y-84904761D01*
X131023809Y-84809523D01*
X131023809Y-83952380D01*
X130357142Y-84952380D02*
X130452380Y-84904761D01*
X130500000Y-84809523D01*
X130500000Y-83952380D01*
X129595238Y-84904761D02*
X129690476Y-84952380D01*
X129880952Y-84952380D01*
X129976190Y-84904761D01*
X130023809Y-84809523D01*
X130023809Y-84428571D01*
X129976190Y-84333333D01*
X129880952Y-84285714D01*
X129690476Y-84285714D01*
X129595238Y-84333333D01*
X129547619Y-84428571D01*
X129547619Y-84523809D01*
X130023809Y-84619047D01*
X129119047Y-84952380D02*
X129119047Y-84285714D01*
X129119047Y-84476190D02*
X129071428Y-84380952D01*
X129023809Y-84333333D01*
X128928571Y-84285714D01*
X128833333Y-84285714D01*
X128595238Y-85333333D02*
X128547619Y-85285714D01*
X128452380Y-85142857D01*
X128404761Y-85047619D01*
X128357142Y-84904761D01*
X128309523Y-84666666D01*
X128309523Y-84476190D01*
X128357142Y-84238095D01*
X128404761Y-84095238D01*
X128452380Y-84000000D01*
X128547619Y-83857142D01*
X128595238Y-83809523D01*
X138214285Y-86562380D02*
X138214285Y-85562380D01*
X137976190Y-85562380D01*
X137833333Y-85610000D01*
X137738095Y-85705238D01*
X137690476Y-85800476D01*
X137642857Y-85990952D01*
X137642857Y-86133809D01*
X137690476Y-86324285D01*
X137738095Y-86419523D01*
X137833333Y-86514761D01*
X137976190Y-86562380D01*
X138214285Y-86562380D01*
X136785714Y-86562380D02*
X136785714Y-86038571D01*
X136833333Y-85943333D01*
X136928571Y-85895714D01*
X137119047Y-85895714D01*
X137214285Y-85943333D01*
X136785714Y-86514761D02*
X136880952Y-86562380D01*
X137119047Y-86562380D01*
X137214285Y-86514761D01*
X137261904Y-86419523D01*
X137261904Y-86324285D01*
X137214285Y-86229047D01*
X137119047Y-86181428D01*
X136880952Y-86181428D01*
X136785714Y-86133809D01*
X136452380Y-85895714D02*
X136071428Y-85895714D01*
X136309523Y-85562380D02*
X136309523Y-86419523D01*
X136261904Y-86514761D01*
X136166666Y-86562380D01*
X136071428Y-86562380D01*
X135309523Y-86562380D02*
X135309523Y-86038571D01*
X135357142Y-85943333D01*
X135452380Y-85895714D01*
X135642857Y-85895714D01*
X135738095Y-85943333D01*
X135309523Y-86514761D02*
X135404761Y-86562380D01*
X135642857Y-86562380D01*
X135738095Y-86514761D01*
X135785714Y-86419523D01*
X135785714Y-86324285D01*
X135738095Y-86229047D01*
X135642857Y-86181428D01*
X135404761Y-86181428D01*
X135309523Y-86133809D01*
X134071428Y-86181428D02*
X133309523Y-86181428D01*
X133690476Y-86562380D02*
X133690476Y-85800476D01*
X132357142Y-85562380D02*
X132833333Y-85562380D01*
X132880952Y-86038571D01*
X132833333Y-85990952D01*
X132738095Y-85943333D01*
X132500000Y-85943333D01*
X132404761Y-85990952D01*
X132357142Y-86038571D01*
X132309523Y-86133809D01*
X132309523Y-86371904D01*
X132357142Y-86467142D01*
X132404761Y-86514761D01*
X132500000Y-86562380D01*
X132738095Y-86562380D01*
X132833333Y-86514761D01*
X132880952Y-86467142D01*
X130595238Y-85610000D02*
X130690476Y-85562380D01*
X130833333Y-85562380D01*
X130976190Y-85610000D01*
X131071428Y-85705238D01*
X131119047Y-85800476D01*
X131166666Y-85990952D01*
X131166666Y-86133809D01*
X131119047Y-86324285D01*
X131071428Y-86419523D01*
X130976190Y-86514761D01*
X130833333Y-86562380D01*
X130738095Y-86562380D01*
X130595238Y-86514761D01*
X130547619Y-86467142D01*
X130547619Y-86133809D01*
X130738095Y-86133809D01*
X130119047Y-85895714D02*
X130119047Y-86562380D01*
X130119047Y-85990952D02*
X130071428Y-85943333D01*
X129976190Y-85895714D01*
X129833333Y-85895714D01*
X129738095Y-85943333D01*
X129690476Y-86038571D01*
X129690476Y-86562380D01*
X128785714Y-86562380D02*
X128785714Y-85562380D01*
X128785714Y-86514761D02*
X128880952Y-86562380D01*
X129071428Y-86562380D01*
X129166666Y-86514761D01*
X129214285Y-86467142D01*
X129261904Y-86371904D01*
X129261904Y-86086190D01*
X129214285Y-85990952D01*
X129166666Y-85943333D01*
X129071428Y-85895714D01*
X128880952Y-85895714D01*
X128785714Y-85943333D01*
X66357142Y-85169380D02*
X66357142Y-84169380D01*
X66357142Y-84645571D02*
X65785714Y-84645571D01*
X65785714Y-85169380D02*
X65785714Y-84169380D01*
X65166666Y-85169380D02*
X65261904Y-85121761D01*
X65309523Y-85074142D01*
X65357142Y-84978904D01*
X65357142Y-84693190D01*
X65309523Y-84597952D01*
X65261904Y-84550333D01*
X65166666Y-84502714D01*
X65023809Y-84502714D01*
X64928571Y-84550333D01*
X64880952Y-84597952D01*
X64833333Y-84693190D01*
X64833333Y-84978904D01*
X64880952Y-85074142D01*
X64928571Y-85121761D01*
X65023809Y-85169380D01*
X65166666Y-85169380D01*
X64547619Y-84502714D02*
X64166666Y-84502714D01*
X64404761Y-84169380D02*
X64404761Y-85026523D01*
X64357142Y-85121761D01*
X64261904Y-85169380D01*
X64166666Y-85169380D01*
X63452380Y-85121761D02*
X63547619Y-85169380D01*
X63738095Y-85169380D01*
X63833333Y-85121761D01*
X63880952Y-85026523D01*
X63880952Y-84645571D01*
X63833333Y-84550333D01*
X63738095Y-84502714D01*
X63547619Y-84502714D01*
X63452380Y-84550333D01*
X63404761Y-84645571D01*
X63404761Y-84740809D01*
X63880952Y-84836047D01*
X62976190Y-84502714D02*
X62976190Y-85169380D01*
X62976190Y-84597952D02*
X62928571Y-84550333D01*
X62833333Y-84502714D01*
X62690476Y-84502714D01*
X62595238Y-84550333D01*
X62547619Y-84645571D01*
X62547619Y-85169380D01*
X61642857Y-85169380D02*
X61642857Y-84169380D01*
X61642857Y-85121761D02*
X61738095Y-85169380D01*
X61928571Y-85169380D01*
X62023809Y-85121761D01*
X62071428Y-85074142D01*
X62119047Y-84978904D01*
X62119047Y-84693190D01*
X62071428Y-84597952D01*
X62023809Y-84550333D01*
X61928571Y-84502714D01*
X61738095Y-84502714D01*
X61642857Y-84550333D01*
X67833333Y-85779380D02*
X67261904Y-85779380D01*
X67547619Y-86779380D02*
X67547619Y-85779380D01*
X66928571Y-86779380D02*
X66928571Y-85779380D01*
X66500000Y-86779380D02*
X66500000Y-86255571D01*
X66547619Y-86160333D01*
X66642857Y-86112714D01*
X66785714Y-86112714D01*
X66880952Y-86160333D01*
X66928571Y-86207952D01*
X65642857Y-86731761D02*
X65738095Y-86779380D01*
X65928571Y-86779380D01*
X66023809Y-86731761D01*
X66071428Y-86636523D01*
X66071428Y-86255571D01*
X66023809Y-86160333D01*
X65928571Y-86112714D01*
X65738095Y-86112714D01*
X65642857Y-86160333D01*
X65595238Y-86255571D01*
X65595238Y-86350809D01*
X66071428Y-86446047D01*
X65166666Y-86779380D02*
X65166666Y-86112714D01*
X65166666Y-86303190D02*
X65119047Y-86207952D01*
X65071428Y-86160333D01*
X64976190Y-86112714D01*
X64880952Y-86112714D01*
X64547619Y-86779380D02*
X64547619Y-86112714D01*
X64547619Y-86207952D02*
X64500000Y-86160333D01*
X64404761Y-86112714D01*
X64261904Y-86112714D01*
X64166666Y-86160333D01*
X64119047Y-86255571D01*
X64119047Y-86779380D01*
X64119047Y-86255571D02*
X64071428Y-86160333D01*
X63976190Y-86112714D01*
X63833333Y-86112714D01*
X63738095Y-86160333D01*
X63690476Y-86255571D01*
X63690476Y-86779380D01*
X63214285Y-86779380D02*
X63214285Y-86112714D01*
X63214285Y-85779380D02*
X63261904Y-85827000D01*
X63214285Y-85874619D01*
X63166666Y-85827000D01*
X63214285Y-85779380D01*
X63214285Y-85874619D01*
X62785714Y-86731761D02*
X62690476Y-86779380D01*
X62500000Y-86779380D01*
X62404761Y-86731761D01*
X62357142Y-86636523D01*
X62357142Y-86588904D01*
X62404761Y-86493666D01*
X62500000Y-86446047D01*
X62642857Y-86446047D01*
X62738095Y-86398428D01*
X62785714Y-86303190D01*
X62785714Y-86255571D01*
X62738095Y-86160333D01*
X62642857Y-86112714D01*
X62500000Y-86112714D01*
X62404761Y-86160333D01*
X62071428Y-86112714D02*
X61690476Y-86112714D01*
X61928571Y-85779380D02*
X61928571Y-86636523D01*
X61880952Y-86731761D01*
X61785714Y-86779380D01*
X61690476Y-86779380D01*
X61214285Y-86779380D02*
X61309523Y-86731761D01*
X61357142Y-86684142D01*
X61404761Y-86588904D01*
X61404761Y-86303190D01*
X61357142Y-86207952D01*
X61309523Y-86160333D01*
X61214285Y-86112714D01*
X61071428Y-86112714D01*
X60976190Y-86160333D01*
X60928571Y-86207952D01*
X60880952Y-86303190D01*
X60880952Y-86588904D01*
X60928571Y-86684142D01*
X60976190Y-86731761D01*
X61071428Y-86779380D01*
X61214285Y-86779380D01*
X60452380Y-86779380D02*
X60452380Y-86112714D01*
X60452380Y-86303190D02*
X60404761Y-86207952D01*
X60357142Y-86160333D01*
X60261904Y-86112714D01*
X60166666Y-86112714D01*
X75297142Y-85212380D02*
X75297142Y-84212380D01*
X75297142Y-84688571D02*
X74725714Y-84688571D01*
X74725714Y-85212380D02*
X74725714Y-84212380D01*
X74106666Y-85212380D02*
X74201904Y-85164761D01*
X74249523Y-85117142D01*
X74297142Y-85021904D01*
X74297142Y-84736190D01*
X74249523Y-84640952D01*
X74201904Y-84593333D01*
X74106666Y-84545714D01*
X73963809Y-84545714D01*
X73868571Y-84593333D01*
X73820952Y-84640952D01*
X73773333Y-84736190D01*
X73773333Y-85021904D01*
X73820952Y-85117142D01*
X73868571Y-85164761D01*
X73963809Y-85212380D01*
X74106666Y-85212380D01*
X73487619Y-84545714D02*
X73106666Y-84545714D01*
X73344761Y-84212380D02*
X73344761Y-85069523D01*
X73297142Y-85164761D01*
X73201904Y-85212380D01*
X73106666Y-85212380D01*
X72392380Y-85164761D02*
X72487619Y-85212380D01*
X72678095Y-85212380D01*
X72773333Y-85164761D01*
X72820952Y-85069523D01*
X72820952Y-84688571D01*
X72773333Y-84593333D01*
X72678095Y-84545714D01*
X72487619Y-84545714D01*
X72392380Y-84593333D01*
X72344761Y-84688571D01*
X72344761Y-84783809D01*
X72820952Y-84879047D01*
X71916190Y-84545714D02*
X71916190Y-85212380D01*
X71916190Y-84640952D02*
X71868571Y-84593333D01*
X71773333Y-84545714D01*
X71630476Y-84545714D01*
X71535238Y-84593333D01*
X71487619Y-84688571D01*
X71487619Y-85212380D01*
X70582857Y-85212380D02*
X70582857Y-84212380D01*
X70582857Y-85164761D02*
X70678095Y-85212380D01*
X70868571Y-85212380D01*
X70963809Y-85164761D01*
X71011428Y-85117142D01*
X71059047Y-85021904D01*
X71059047Y-84736190D01*
X71011428Y-84640952D01*
X70963809Y-84593333D01*
X70868571Y-84545714D01*
X70678095Y-84545714D01*
X70582857Y-84593333D01*
D10*
X75011428Y-87407142D02*
X73868571Y-87407142D01*
X72011428Y-87407142D02*
X70868571Y-87407142D01*
X71440000Y-87978571D02*
X71440000Y-86835714D01*
D12*
X125154761Y-84452380D02*
X124488095Y-85452380D01*
X124488095Y-84452380D02*
X125154761Y-85452380D01*
X124107142Y-85071428D02*
X123345238Y-85071428D01*
X122869047Y-84928571D02*
X122535714Y-84928571D01*
X122392857Y-85452380D02*
X122869047Y-85452380D01*
X122869047Y-84452380D01*
X122392857Y-84452380D01*
X121964285Y-84785714D02*
X121964285Y-85452380D01*
X121964285Y-84880952D02*
X121916666Y-84833333D01*
X121821428Y-84785714D01*
X121678571Y-84785714D01*
X121583333Y-84833333D01*
X121535714Y-84928571D01*
X121535714Y-85452380D01*
X120630952Y-85452380D02*
X120630952Y-84452380D01*
X120630952Y-85404761D02*
X120726190Y-85452380D01*
X120916666Y-85452380D01*
X121011904Y-85404761D01*
X121059523Y-85357142D01*
X121107142Y-85261904D01*
X121107142Y-84976190D01*
X121059523Y-84880952D01*
X121011904Y-84833333D01*
X120916666Y-84785714D01*
X120726190Y-84785714D01*
X120630952Y-84833333D01*
X120202380Y-85404761D02*
X120107142Y-85452380D01*
X119916666Y-85452380D01*
X119821428Y-85404761D01*
X119773809Y-85309523D01*
X119773809Y-85261904D01*
X119821428Y-85166666D01*
X119916666Y-85119047D01*
X120059523Y-85119047D01*
X120154761Y-85071428D01*
X120202380Y-84976190D01*
X120202380Y-84928571D01*
X120154761Y-84833333D01*
X120059523Y-84785714D01*
X119916666Y-84785714D01*
X119821428Y-84833333D01*
X119488095Y-84785714D02*
X119107142Y-84785714D01*
X119345238Y-84452380D02*
X119345238Y-85309523D01*
X119297619Y-85404761D01*
X119202380Y-85452380D01*
X119107142Y-85452380D01*
X118630952Y-85452380D02*
X118726190Y-85404761D01*
X118773809Y-85357142D01*
X118821428Y-85261904D01*
X118821428Y-84976190D01*
X118773809Y-84880952D01*
X118726190Y-84833333D01*
X118630952Y-84785714D01*
X118488095Y-84785714D01*
X118392857Y-84833333D01*
X118345238Y-84880952D01*
X118297619Y-84976190D01*
X118297619Y-85261904D01*
X118345238Y-85357142D01*
X118392857Y-85404761D01*
X118488095Y-85452380D01*
X118630952Y-85452380D01*
X117869047Y-84785714D02*
X117869047Y-85785714D01*
X117869047Y-84833333D02*
X117773809Y-84785714D01*
X117583333Y-84785714D01*
X117488095Y-84833333D01*
X117440476Y-84880952D01*
X117392857Y-84976190D01*
X117392857Y-85261904D01*
X117440476Y-85357142D01*
X117488095Y-85404761D01*
X117583333Y-85452380D01*
X117773809Y-85452380D01*
X117869047Y-85404761D01*
X137452380Y-114052142D02*
X137500000Y-114099761D01*
X137642857Y-114147380D01*
X137738095Y-114147380D01*
X137880952Y-114099761D01*
X137976190Y-114004523D01*
X138023809Y-113909285D01*
X138071428Y-113718809D01*
X138071428Y-113575952D01*
X138023809Y-113385476D01*
X137976190Y-113290238D01*
X137880952Y-113195000D01*
X137738095Y-113147380D01*
X137642857Y-113147380D01*
X137500000Y-113195000D01*
X137452380Y-113242619D01*
X137023809Y-114147380D02*
X137023809Y-113147380D01*
X136595238Y-114147380D02*
X136595238Y-113623571D01*
X136642857Y-113528333D01*
X136738095Y-113480714D01*
X136880952Y-113480714D01*
X136976190Y-113528333D01*
X137023809Y-113575952D01*
X135690476Y-114147380D02*
X135690476Y-113623571D01*
X135738095Y-113528333D01*
X135833333Y-113480714D01*
X136023809Y-113480714D01*
X136119047Y-113528333D01*
X135690476Y-114099761D02*
X135785714Y-114147380D01*
X136023809Y-114147380D01*
X136119047Y-114099761D01*
X136166666Y-114004523D01*
X136166666Y-113909285D01*
X136119047Y-113814047D01*
X136023809Y-113766428D01*
X135785714Y-113766428D01*
X135690476Y-113718809D01*
X135214285Y-114147380D02*
X135214285Y-113480714D01*
X135214285Y-113575952D02*
X135166666Y-113528333D01*
X135071428Y-113480714D01*
X134928571Y-113480714D01*
X134833333Y-113528333D01*
X134785714Y-113623571D01*
X134785714Y-114147380D01*
X134785714Y-113623571D02*
X134738095Y-113528333D01*
X134642857Y-113480714D01*
X134500000Y-113480714D01*
X134404761Y-113528333D01*
X134357142Y-113623571D01*
X134357142Y-114147380D01*
X133880952Y-114147380D02*
X133880952Y-113147380D01*
X133880952Y-113528333D02*
X133785714Y-113480714D01*
X133595238Y-113480714D01*
X133500000Y-113528333D01*
X133452380Y-113575952D01*
X133404761Y-113671190D01*
X133404761Y-113956904D01*
X133452380Y-114052142D01*
X133500000Y-114099761D01*
X133595238Y-114147380D01*
X133785714Y-114147380D01*
X133880952Y-114099761D01*
X132595238Y-114099761D02*
X132690476Y-114147380D01*
X132880952Y-114147380D01*
X132976190Y-114099761D01*
X133023809Y-114004523D01*
X133023809Y-113623571D01*
X132976190Y-113528333D01*
X132880952Y-113480714D01*
X132690476Y-113480714D01*
X132595238Y-113528333D01*
X132547619Y-113623571D01*
X132547619Y-113718809D01*
X133023809Y-113814047D01*
X132119047Y-114147380D02*
X132119047Y-113480714D01*
X132119047Y-113671190D02*
X132071428Y-113575952D01*
X132023809Y-113528333D01*
X131928571Y-113480714D01*
X131833333Y-113480714D01*
X138833333Y-114757380D02*
X138261904Y-114757380D01*
X138547619Y-115757380D02*
X138547619Y-114757380D01*
X137928571Y-115757380D02*
X137928571Y-114757380D01*
X137500000Y-115757380D02*
X137500000Y-115233571D01*
X137547619Y-115138333D01*
X137642857Y-115090714D01*
X137785714Y-115090714D01*
X137880952Y-115138333D01*
X137928571Y-115185952D01*
X136642857Y-115709761D02*
X136738095Y-115757380D01*
X136928571Y-115757380D01*
X137023809Y-115709761D01*
X137071428Y-115614523D01*
X137071428Y-115233571D01*
X137023809Y-115138333D01*
X136928571Y-115090714D01*
X136738095Y-115090714D01*
X136642857Y-115138333D01*
X136595238Y-115233571D01*
X136595238Y-115328809D01*
X137071428Y-115424047D01*
X136166666Y-115757380D02*
X136166666Y-115090714D01*
X136166666Y-115281190D02*
X136119047Y-115185952D01*
X136071428Y-115138333D01*
X135976190Y-115090714D01*
X135880952Y-115090714D01*
X135547619Y-115757380D02*
X135547619Y-115090714D01*
X135547619Y-115185952D02*
X135500000Y-115138333D01*
X135404761Y-115090714D01*
X135261904Y-115090714D01*
X135166666Y-115138333D01*
X135119047Y-115233571D01*
X135119047Y-115757380D01*
X135119047Y-115233571D02*
X135071428Y-115138333D01*
X134976190Y-115090714D01*
X134833333Y-115090714D01*
X134738095Y-115138333D01*
X134690476Y-115233571D01*
X134690476Y-115757380D01*
X134214285Y-115757380D02*
X134214285Y-115090714D01*
X134214285Y-114757380D02*
X134261904Y-114805000D01*
X134214285Y-114852619D01*
X134166666Y-114805000D01*
X134214285Y-114757380D01*
X134214285Y-114852619D01*
X133785714Y-115709761D02*
X133690476Y-115757380D01*
X133500000Y-115757380D01*
X133404761Y-115709761D01*
X133357142Y-115614523D01*
X133357142Y-115566904D01*
X133404761Y-115471666D01*
X133500000Y-115424047D01*
X133642857Y-115424047D01*
X133738095Y-115376428D01*
X133785714Y-115281190D01*
X133785714Y-115233571D01*
X133738095Y-115138333D01*
X133642857Y-115090714D01*
X133500000Y-115090714D01*
X133404761Y-115138333D01*
X133071428Y-115090714D02*
X132690476Y-115090714D01*
X132928571Y-114757380D02*
X132928571Y-115614523D01*
X132880952Y-115709761D01*
X132785714Y-115757380D01*
X132690476Y-115757380D01*
X132214285Y-115757380D02*
X132309523Y-115709761D01*
X132357142Y-115662142D01*
X132404761Y-115566904D01*
X132404761Y-115281190D01*
X132357142Y-115185952D01*
X132309523Y-115138333D01*
X132214285Y-115090714D01*
X132071428Y-115090714D01*
X131976190Y-115138333D01*
X131928571Y-115185952D01*
X131880952Y-115281190D01*
X131880952Y-115566904D01*
X131928571Y-115662142D01*
X131976190Y-115709761D01*
X132071428Y-115757380D01*
X132214285Y-115757380D01*
X131452380Y-115757380D02*
X131452380Y-115090714D01*
X131452380Y-115281190D02*
X131404761Y-115185952D01*
X131357142Y-115138333D01*
X131261904Y-115090714D01*
X131166666Y-115090714D01*
X82278476Y-103246380D02*
X82278476Y-102246380D01*
X82278476Y-102722571D02*
X81707047Y-102722571D01*
X81707047Y-103246380D02*
X81707047Y-102246380D01*
X80849904Y-103198761D02*
X80945142Y-103246380D01*
X81135619Y-103246380D01*
X81230857Y-103198761D01*
X81278476Y-103103523D01*
X81278476Y-102722571D01*
X81230857Y-102627333D01*
X81135619Y-102579714D01*
X80945142Y-102579714D01*
X80849904Y-102627333D01*
X80802285Y-102722571D01*
X80802285Y-102817809D01*
X81278476Y-102913047D01*
X79945142Y-103246380D02*
X79945142Y-102722571D01*
X79992761Y-102627333D01*
X80088000Y-102579714D01*
X80278476Y-102579714D01*
X80373714Y-102627333D01*
X79945142Y-103198761D02*
X80040380Y-103246380D01*
X80278476Y-103246380D01*
X80373714Y-103198761D01*
X80421333Y-103103523D01*
X80421333Y-103008285D01*
X80373714Y-102913047D01*
X80278476Y-102865428D01*
X80040380Y-102865428D01*
X79945142Y-102817809D01*
X79611809Y-102579714D02*
X79230857Y-102579714D01*
X79468952Y-102246380D02*
X79468952Y-103103523D01*
X79421333Y-103198761D01*
X79326095Y-103246380D01*
X79230857Y-103246380D01*
X78516571Y-103198761D02*
X78611809Y-103246380D01*
X78802285Y-103246380D01*
X78897523Y-103198761D01*
X78945142Y-103103523D01*
X78945142Y-102722571D01*
X78897523Y-102627333D01*
X78802285Y-102579714D01*
X78611809Y-102579714D01*
X78516571Y-102627333D01*
X78468952Y-102722571D01*
X78468952Y-102817809D01*
X78945142Y-102913047D01*
X78040380Y-103246380D02*
X78040380Y-102579714D01*
X78040380Y-102770190D02*
X77992761Y-102674952D01*
X77945142Y-102627333D01*
X77849904Y-102579714D01*
X77754666Y-102579714D01*
X87370000Y-85212380D02*
X87370000Y-84212380D01*
X86989047Y-84212380D01*
X86893809Y-84260000D01*
X86846190Y-84307619D01*
X86798571Y-84402857D01*
X86798571Y-84545714D01*
X86846190Y-84640952D01*
X86893809Y-84688571D01*
X86989047Y-84736190D01*
X87370000Y-84736190D01*
X85941428Y-85212380D02*
X85941428Y-84688571D01*
X85989047Y-84593333D01*
X86084285Y-84545714D01*
X86274761Y-84545714D01*
X86370000Y-84593333D01*
X85941428Y-85164761D02*
X86036666Y-85212380D01*
X86274761Y-85212380D01*
X86370000Y-85164761D01*
X86417619Y-85069523D01*
X86417619Y-84974285D01*
X86370000Y-84879047D01*
X86274761Y-84831428D01*
X86036666Y-84831428D01*
X85941428Y-84783809D01*
X85465238Y-85212380D02*
X85465238Y-84545714D01*
X85465238Y-84736190D02*
X85417619Y-84640952D01*
X85370000Y-84593333D01*
X85274761Y-84545714D01*
X85179523Y-84545714D01*
X84989047Y-84545714D02*
X84608095Y-84545714D01*
X84846190Y-84212380D02*
X84846190Y-85069523D01*
X84798571Y-85164761D01*
X84703333Y-85212380D01*
X84608095Y-85212380D01*
X82941428Y-85117142D02*
X82989047Y-85164761D01*
X83131904Y-85212380D01*
X83227142Y-85212380D01*
X83370000Y-85164761D01*
X83465238Y-85069523D01*
X83512857Y-84974285D01*
X83560476Y-84783809D01*
X83560476Y-84640952D01*
X83512857Y-84450476D01*
X83465238Y-84355238D01*
X83370000Y-84260000D01*
X83227142Y-84212380D01*
X83131904Y-84212380D01*
X82989047Y-84260000D01*
X82941428Y-84307619D01*
X82370000Y-85212380D02*
X82465238Y-85164761D01*
X82512857Y-85117142D01*
X82560476Y-85021904D01*
X82560476Y-84736190D01*
X82512857Y-84640952D01*
X82465238Y-84593333D01*
X82370000Y-84545714D01*
X82227142Y-84545714D01*
X82131904Y-84593333D01*
X82084285Y-84640952D01*
X82036666Y-84736190D01*
X82036666Y-85021904D01*
X82084285Y-85117142D01*
X82131904Y-85164761D01*
X82227142Y-85212380D01*
X82370000Y-85212380D01*
X81465238Y-85212380D02*
X81560476Y-85164761D01*
X81608095Y-85117142D01*
X81655714Y-85021904D01*
X81655714Y-84736190D01*
X81608095Y-84640952D01*
X81560476Y-84593333D01*
X81465238Y-84545714D01*
X81322380Y-84545714D01*
X81227142Y-84593333D01*
X81179523Y-84640952D01*
X81131904Y-84736190D01*
X81131904Y-85021904D01*
X81179523Y-85117142D01*
X81227142Y-85164761D01*
X81322380Y-85212380D01*
X81465238Y-85212380D01*
X80560476Y-85212380D02*
X80655714Y-85164761D01*
X80703333Y-85069523D01*
X80703333Y-84212380D01*
X80179523Y-85212380D02*
X80179523Y-84545714D01*
X80179523Y-84212380D02*
X80227142Y-84260000D01*
X80179523Y-84307619D01*
X80131904Y-84260000D01*
X80179523Y-84212380D01*
X80179523Y-84307619D01*
X79703333Y-84545714D02*
X79703333Y-85212380D01*
X79703333Y-84640952D02*
X79655714Y-84593333D01*
X79560476Y-84545714D01*
X79417619Y-84545714D01*
X79322380Y-84593333D01*
X79274761Y-84688571D01*
X79274761Y-85212380D01*
X78370000Y-84545714D02*
X78370000Y-85355238D01*
X78417619Y-85450476D01*
X78465238Y-85498095D01*
X78560476Y-85545714D01*
X78703333Y-85545714D01*
X78798571Y-85498095D01*
X78370000Y-85164761D02*
X78465238Y-85212380D01*
X78655714Y-85212380D01*
X78750952Y-85164761D01*
X78798571Y-85117142D01*
X78846190Y-85021904D01*
X78846190Y-84736190D01*
X78798571Y-84640952D01*
X78750952Y-84593333D01*
X78655714Y-84545714D01*
X78465238Y-84545714D01*
X78370000Y-84593333D01*
%TO.C,J3*%
X73563333Y-95642380D02*
X73563333Y-96356666D01*
X73610952Y-96499523D01*
X73706190Y-96594761D01*
X73849047Y-96642380D01*
X73944285Y-96642380D01*
X73182380Y-95642380D02*
X72563333Y-95642380D01*
X72896666Y-96023333D01*
X72753809Y-96023333D01*
X72658571Y-96070952D01*
X72610952Y-96118571D01*
X72563333Y-96213809D01*
X72563333Y-96451904D01*
X72610952Y-96547142D01*
X72658571Y-96594761D01*
X72753809Y-96642380D01*
X73039523Y-96642380D01*
X73134761Y-96594761D01*
X73182380Y-96547142D01*
%TO.C,J4*%
X83063333Y-95642380D02*
X83063333Y-96356666D01*
X83110952Y-96499523D01*
X83206190Y-96594761D01*
X83349047Y-96642380D01*
X83444285Y-96642380D01*
X82158571Y-95975714D02*
X82158571Y-96642380D01*
X82396666Y-95594761D02*
X82634761Y-96309047D01*
X82015714Y-96309047D01*
%TO.C,J6*%
X64083333Y-95902380D02*
X64083333Y-96616666D01*
X64130952Y-96759523D01*
X64226190Y-96854761D01*
X64369047Y-96902380D01*
X64464285Y-96902380D01*
X63178571Y-95902380D02*
X63369047Y-95902380D01*
X63464285Y-95950000D01*
X63511904Y-95997619D01*
X63607142Y-96140476D01*
X63654761Y-96330952D01*
X63654761Y-96711904D01*
X63607142Y-96807142D01*
X63559523Y-96854761D01*
X63464285Y-96902380D01*
X63273809Y-96902380D01*
X63178571Y-96854761D01*
X63130952Y-96807142D01*
X63083333Y-96711904D01*
X63083333Y-96473809D01*
X63130952Y-96378571D01*
X63178571Y-96330952D01*
X63273809Y-96283333D01*
X63464285Y-96283333D01*
X63559523Y-96330952D01*
X63607142Y-96378571D01*
X63654761Y-96473809D01*
%TO.C,J7*%
X115452380Y-88166666D02*
X116166666Y-88166666D01*
X116309523Y-88119047D01*
X116404761Y-88023809D01*
X116452380Y-87880952D01*
X116452380Y-87785714D01*
X115452380Y-88547619D02*
X115452380Y-89214285D01*
X116452380Y-88785714D01*
%TO.C,J8*%
X139952380Y-111166666D02*
X140666666Y-111166666D01*
X140809523Y-111119047D01*
X140904761Y-111023809D01*
X140952380Y-110880952D01*
X140952380Y-110785714D01*
X140380952Y-111785714D02*
X140333333Y-111690476D01*
X140285714Y-111642857D01*
X140190476Y-111595238D01*
X140142857Y-111595238D01*
X140047619Y-111642857D01*
X140000000Y-111690476D01*
X139952380Y-111785714D01*
X139952380Y-111976190D01*
X140000000Y-112071428D01*
X140047619Y-112119047D01*
X140142857Y-112166666D01*
X140190476Y-112166666D01*
X140285714Y-112119047D01*
X140333333Y-112071428D01*
X140380952Y-111976190D01*
X140380952Y-111785714D01*
X140428571Y-111690476D01*
X140476190Y-111642857D01*
X140571428Y-111595238D01*
X140761904Y-111595238D01*
X140857142Y-111642857D01*
X140904761Y-111690476D01*
X140952380Y-111785714D01*
X140952380Y-111976190D01*
X140904761Y-112071428D01*
X140857142Y-112119047D01*
X140761904Y-112166666D01*
X140571428Y-112166666D01*
X140476190Y-112119047D01*
X140428571Y-112071428D01*
X140380952Y-111976190D01*
%TO.C,J2*%
X114952380Y-111166666D02*
X115666666Y-111166666D01*
X115809523Y-111119047D01*
X115904761Y-111023809D01*
X115952380Y-110880952D01*
X115952380Y-110785714D01*
X115047619Y-111595238D02*
X115000000Y-111642857D01*
X114952380Y-111738095D01*
X114952380Y-111976190D01*
X115000000Y-112071428D01*
X115047619Y-112119047D01*
X115142857Y-112166666D01*
X115238095Y-112166666D01*
X115380952Y-112119047D01*
X115952380Y-111547619D01*
X115952380Y-112166666D01*
%TO.C,J5*%
X80293333Y-114712380D02*
X80293333Y-115426666D01*
X80340952Y-115569523D01*
X80436190Y-115664761D01*
X80579047Y-115712380D01*
X80674285Y-115712380D01*
X79340952Y-114712380D02*
X79817142Y-114712380D01*
X79864761Y-115188571D01*
X79817142Y-115140952D01*
X79721904Y-115093333D01*
X79483809Y-115093333D01*
X79388571Y-115140952D01*
X79340952Y-115188571D01*
X79293333Y-115283809D01*
X79293333Y-115521904D01*
X79340952Y-115617142D01*
X79388571Y-115664761D01*
X79483809Y-115712380D01*
X79721904Y-115712380D01*
X79817142Y-115664761D01*
X79864761Y-115617142D01*
%TO.C,J9*%
X139452380Y-88166666D02*
X140166666Y-88166666D01*
X140309523Y-88119047D01*
X140404761Y-88023809D01*
X140452380Y-87880952D01*
X140452380Y-87785714D01*
X140452380Y-88690476D02*
X140452380Y-88880952D01*
X140404761Y-88976190D01*
X140357142Y-89023809D01*
X140214285Y-89119047D01*
X140023809Y-89166666D01*
X139642857Y-89166666D01*
X139547619Y-89119047D01*
X139500000Y-89071428D01*
X139452380Y-88976190D01*
X139452380Y-88785714D01*
X139500000Y-88690476D01*
X139547619Y-88642857D01*
X139642857Y-88595238D01*
X139880952Y-88595238D01*
X139976190Y-88642857D01*
X140023809Y-88690476D01*
X140071428Y-88785714D01*
X140071428Y-88976190D01*
X140023809Y-89071428D01*
X139976190Y-89119047D01*
X139880952Y-89166666D01*
%TO.C,J10*%
X145309523Y-91952380D02*
X145309523Y-92666666D01*
X145357142Y-92809523D01*
X145452380Y-92904761D01*
X145595238Y-92952380D01*
X145690476Y-92952380D01*
X144309523Y-92952380D02*
X144880952Y-92952380D01*
X144595238Y-92952380D02*
X144595238Y-91952380D01*
X144690476Y-92095238D01*
X144785714Y-92190476D01*
X144880952Y-92238095D01*
X143690476Y-91952380D02*
X143595238Y-91952380D01*
X143500000Y-92000000D01*
X143452380Y-92047619D01*
X143404761Y-92142857D01*
X143357142Y-92333333D01*
X143357142Y-92571428D01*
X143404761Y-92761904D01*
X143452380Y-92857142D01*
X143500000Y-92904761D01*
X143595238Y-92952380D01*
X143690476Y-92952380D01*
X143785714Y-92904761D01*
X143833333Y-92857142D01*
X143880952Y-92761904D01*
X143928571Y-92571428D01*
X143928571Y-92333333D01*
X143880952Y-92142857D01*
X143833333Y-92047619D01*
X143785714Y-92000000D01*
X143690476Y-91952380D01*
%TO.C,J11*%
X59052380Y-95990476D02*
X59766666Y-95990476D01*
X59909523Y-95942857D01*
X60004761Y-95847619D01*
X60052380Y-95704761D01*
X60052380Y-95609523D01*
X60052380Y-96990476D02*
X60052380Y-96419047D01*
X60052380Y-96704761D02*
X59052380Y-96704761D01*
X59195238Y-96609523D01*
X59290476Y-96514285D01*
X59338095Y-96419047D01*
X60052380Y-97942857D02*
X60052380Y-97371428D01*
X60052380Y-97657142D02*
X59052380Y-97657142D01*
X59195238Y-97561904D01*
X59290476Y-97466666D01*
X59338095Y-97371428D01*
%TO.C,C1*%
X138157142Y-97033333D02*
X138204761Y-96985714D01*
X138252380Y-96842857D01*
X138252380Y-96747619D01*
X138204761Y-96604761D01*
X138109523Y-96509523D01*
X138014285Y-96461904D01*
X137823809Y-96414285D01*
X137680952Y-96414285D01*
X137490476Y-96461904D01*
X137395238Y-96509523D01*
X137300000Y-96604761D01*
X137252380Y-96747619D01*
X137252380Y-96842857D01*
X137300000Y-96985714D01*
X137347619Y-97033333D01*
X138252380Y-97985714D02*
X138252380Y-97414285D01*
X138252380Y-97700000D02*
X137252380Y-97700000D01*
X137395238Y-97604761D01*
X137490476Y-97509523D01*
X137538095Y-97414285D01*
%TO.C,C2*%
X135666666Y-95357142D02*
X135714285Y-95404761D01*
X135857142Y-95452380D01*
X135952380Y-95452380D01*
X136095238Y-95404761D01*
X136190476Y-95309523D01*
X136238095Y-95214285D01*
X136285714Y-95023809D01*
X136285714Y-94880952D01*
X136238095Y-94690476D01*
X136190476Y-94595238D01*
X136095238Y-94500000D01*
X135952380Y-94452380D01*
X135857142Y-94452380D01*
X135714285Y-94500000D01*
X135666666Y-94547619D01*
X135285714Y-94547619D02*
X135238095Y-94500000D01*
X135142857Y-94452380D01*
X134904761Y-94452380D01*
X134809523Y-94500000D01*
X134761904Y-94547619D01*
X134714285Y-94642857D01*
X134714285Y-94738095D01*
X134761904Y-94880952D01*
X135333333Y-95452380D01*
X134714285Y-95452380D01*
%TO.C,C3*%
X62157142Y-99071333D02*
X62204761Y-99023714D01*
X62252380Y-98880857D01*
X62252380Y-98785619D01*
X62204761Y-98642761D01*
X62109523Y-98547523D01*
X62014285Y-98499904D01*
X61823809Y-98452285D01*
X61680952Y-98452285D01*
X61490476Y-98499904D01*
X61395238Y-98547523D01*
X61300000Y-98642761D01*
X61252380Y-98785619D01*
X61252380Y-98880857D01*
X61300000Y-99023714D01*
X61347619Y-99071333D01*
X61252380Y-99404666D02*
X61252380Y-100023714D01*
X61633333Y-99690380D01*
X61633333Y-99833238D01*
X61680952Y-99928476D01*
X61728571Y-99976095D01*
X61823809Y-100023714D01*
X62061904Y-100023714D01*
X62157142Y-99976095D01*
X62204761Y-99928476D01*
X62252380Y-99833238D01*
X62252380Y-99547523D01*
X62204761Y-99452285D01*
X62157142Y-99404666D01*
%TO.C,J12*%
X68197523Y-113422380D02*
X68197523Y-114136666D01*
X68245142Y-114279523D01*
X68340380Y-114374761D01*
X68483238Y-114422380D01*
X68578476Y-114422380D01*
X67197523Y-114422380D02*
X67768952Y-114422380D01*
X67483238Y-114422380D02*
X67483238Y-113422380D01*
X67578476Y-113565238D01*
X67673714Y-113660476D01*
X67768952Y-113708095D01*
X66816571Y-113517619D02*
X66768952Y-113470000D01*
X66673714Y-113422380D01*
X66435619Y-113422380D01*
X66340380Y-113470000D01*
X66292761Y-113517619D01*
X66245142Y-113612857D01*
X66245142Y-113708095D01*
X66292761Y-113850952D01*
X66864190Y-114422380D01*
X66245142Y-114422380D01*
%TO.C,J13*%
X127059523Y-94902380D02*
X127059523Y-95616666D01*
X127107142Y-95759523D01*
X127202380Y-95854761D01*
X127345238Y-95902380D01*
X127440476Y-95902380D01*
X126059523Y-95902380D02*
X126630952Y-95902380D01*
X126345238Y-95902380D02*
X126345238Y-94902380D01*
X126440476Y-95045238D01*
X126535714Y-95140476D01*
X126630952Y-95188095D01*
X125726190Y-94902380D02*
X125107142Y-94902380D01*
X125440476Y-95283333D01*
X125297619Y-95283333D01*
X125202380Y-95330952D01*
X125154761Y-95378571D01*
X125107142Y-95473809D01*
X125107142Y-95711904D01*
X125154761Y-95807142D01*
X125202380Y-95854761D01*
X125297619Y-95902380D01*
X125583333Y-95902380D01*
X125678571Y-95854761D01*
X125726190Y-95807142D01*
D13*
%TO.C,J3*%
X76300000Y-93860000D02*
X73250000Y-93860000D01*
X70200000Y-90910000D02*
X70200000Y-93860000D01*
X69440000Y-88650000D02*
X77060000Y-88650000D01*
X71250000Y-89410000D02*
X69450000Y-89410000D01*
X75250000Y-89410000D02*
X75250000Y-88660000D01*
X69450000Y-89410000D02*
X69450000Y-88660000D01*
X69450000Y-88660000D02*
X71250000Y-88660000D01*
X75250000Y-88660000D02*
X77050000Y-88660000D01*
X77050000Y-90910000D02*
X76300000Y-90910000D01*
X76300000Y-90910000D02*
X76300000Y-93860000D01*
X72750000Y-89410000D02*
X72750000Y-88660000D01*
X71250000Y-88660000D02*
X71250000Y-89410000D01*
X69450000Y-90910000D02*
X70200000Y-90910000D01*
X76100000Y-88360000D02*
X77350000Y-88360000D01*
X73750000Y-89410000D02*
X72750000Y-89410000D01*
X69440000Y-94620000D02*
X69440000Y-88650000D01*
X77350000Y-88360000D02*
X77350000Y-89610000D01*
X77060000Y-88650000D02*
X77060000Y-94620000D01*
X77050000Y-88660000D02*
X77050000Y-89410000D01*
X77060000Y-94620000D02*
X69440000Y-94620000D01*
X72750000Y-88660000D02*
X73750000Y-88660000D01*
X77050000Y-89410000D02*
X75250000Y-89410000D01*
X70200000Y-93860000D02*
X73250000Y-93860000D01*
X73750000Y-88660000D02*
X73750000Y-89410000D01*
%TO.C,J4*%
X86550000Y-88660000D02*
X86550000Y-89410000D01*
X83250000Y-89410000D02*
X82250000Y-89410000D01*
X85800000Y-93860000D02*
X82750000Y-93860000D01*
X80750000Y-89410000D02*
X78950000Y-89410000D01*
X84750000Y-89410000D02*
X84750000Y-88660000D01*
X78940000Y-88650000D02*
X86560000Y-88650000D01*
X86560000Y-88650000D02*
X86560000Y-94620000D01*
X82250000Y-88660000D02*
X83250000Y-88660000D01*
X79700000Y-93860000D02*
X82750000Y-93860000D01*
X78940000Y-94620000D02*
X78940000Y-88650000D01*
X78950000Y-88660000D02*
X80750000Y-88660000D01*
X86550000Y-90910000D02*
X85800000Y-90910000D01*
X80750000Y-88660000D02*
X80750000Y-89410000D01*
X78950000Y-90910000D02*
X79700000Y-90910000D01*
X85600000Y-88360000D02*
X86850000Y-88360000D01*
X82250000Y-89410000D02*
X82250000Y-88660000D01*
X86850000Y-88360000D02*
X86850000Y-89610000D01*
X78950000Y-89410000D02*
X78950000Y-88660000D01*
X83250000Y-88660000D02*
X83250000Y-89410000D01*
X85800000Y-90910000D02*
X85800000Y-93860000D01*
X86550000Y-89410000D02*
X84750000Y-89410000D01*
X84750000Y-88660000D02*
X86550000Y-88660000D01*
X79700000Y-90910000D02*
X79700000Y-93860000D01*
X86560000Y-94620000D02*
X78940000Y-94620000D01*
%TO.C,J6*%
X59940000Y-94620000D02*
X59940000Y-88650000D01*
X59940000Y-88650000D02*
X67560000Y-88650000D01*
X59950000Y-89410000D02*
X59950000Y-88660000D01*
X67550000Y-89410000D02*
X65750000Y-89410000D01*
X63250000Y-88660000D02*
X64250000Y-88660000D01*
X60700000Y-90910000D02*
X60700000Y-93860000D01*
X64250000Y-88660000D02*
X64250000Y-89410000D01*
X67850000Y-88360000D02*
X67850000Y-89610000D01*
X59950000Y-88660000D02*
X61750000Y-88660000D01*
X63250000Y-89410000D02*
X63250000Y-88660000D01*
X67560000Y-94620000D02*
X59940000Y-94620000D01*
X61750000Y-89410000D02*
X59950000Y-89410000D01*
X61750000Y-88660000D02*
X61750000Y-89410000D01*
X66800000Y-93860000D02*
X63750000Y-93860000D01*
X65750000Y-89410000D02*
X65750000Y-88660000D01*
X67550000Y-88660000D02*
X67550000Y-89410000D01*
X66600000Y-88360000D02*
X67850000Y-88360000D01*
X65750000Y-88660000D02*
X67550000Y-88660000D01*
X59950000Y-90910000D02*
X60700000Y-90910000D01*
X67560000Y-88650000D02*
X67560000Y-94620000D01*
X67550000Y-90910000D02*
X66800000Y-90910000D01*
X60700000Y-93860000D02*
X63750000Y-93860000D01*
X66800000Y-90910000D02*
X66800000Y-93860000D01*
X64250000Y-89410000D02*
X63250000Y-89410000D01*
%TO.C,J7*%
X117440000Y-93510000D02*
X117440000Y-87540000D01*
X119250000Y-87550000D02*
X119250000Y-88300000D01*
X118200000Y-89800000D02*
X118200000Y-92750000D01*
X117450000Y-88300000D02*
X117450000Y-87550000D01*
X117450000Y-87550000D02*
X119250000Y-87550000D01*
X121750000Y-88300000D02*
X120750000Y-88300000D01*
X124300000Y-89800000D02*
X124300000Y-92750000D01*
X124100000Y-87250000D02*
X125350000Y-87250000D01*
X117440000Y-87540000D02*
X125060000Y-87540000D01*
X125050000Y-89800000D02*
X124300000Y-89800000D01*
X124300000Y-92750000D02*
X121250000Y-92750000D01*
X121750000Y-87550000D02*
X121750000Y-88300000D01*
X118200000Y-92750000D02*
X121250000Y-92750000D01*
X125060000Y-93510000D02*
X117440000Y-93510000D01*
X120750000Y-87550000D02*
X121750000Y-87550000D01*
X119250000Y-88300000D02*
X117450000Y-88300000D01*
X123250000Y-88300000D02*
X123250000Y-87550000D01*
X123250000Y-87550000D02*
X125050000Y-87550000D01*
X125350000Y-87250000D02*
X125350000Y-88500000D01*
X117450000Y-89800000D02*
X118200000Y-89800000D01*
X125050000Y-88300000D02*
X123250000Y-88300000D01*
X125050000Y-87550000D02*
X125050000Y-88300000D01*
X125060000Y-87540000D02*
X125060000Y-93510000D01*
X120750000Y-88300000D02*
X120750000Y-87550000D01*
%TO.C,J8*%
X139350000Y-106250000D02*
X139350000Y-107500000D01*
X139050000Y-108800000D02*
X138300000Y-108800000D01*
X133250000Y-106550000D02*
X133250000Y-107300000D01*
X137250000Y-106550000D02*
X139050000Y-106550000D01*
X138300000Y-111750000D02*
X135250000Y-111750000D01*
X132200000Y-108800000D02*
X132200000Y-111750000D01*
X137250000Y-107300000D02*
X137250000Y-106550000D01*
X134750000Y-106550000D02*
X135750000Y-106550000D01*
X139050000Y-106550000D02*
X139050000Y-107300000D01*
X131450000Y-107300000D02*
X131450000Y-106550000D01*
X131450000Y-106550000D02*
X133250000Y-106550000D01*
X139050000Y-107300000D02*
X137250000Y-107300000D01*
X132200000Y-111750000D02*
X135250000Y-111750000D01*
X135750000Y-106550000D02*
X135750000Y-107300000D01*
X138300000Y-108800000D02*
X138300000Y-111750000D01*
X134750000Y-107300000D02*
X134750000Y-106550000D01*
X138100000Y-106250000D02*
X139350000Y-106250000D01*
X139060000Y-112510000D02*
X131440000Y-112510000D01*
X133250000Y-107300000D02*
X131450000Y-107300000D01*
X139060000Y-106540000D02*
X139060000Y-112510000D01*
X131450000Y-108800000D02*
X132200000Y-108800000D01*
X131440000Y-112510000D02*
X131440000Y-106540000D01*
X135750000Y-107300000D02*
X134750000Y-107300000D01*
X131440000Y-106540000D02*
X139060000Y-106540000D01*
%TO.C,J2*%
X128800000Y-111640000D02*
X123250000Y-111640000D01*
X118750000Y-107190000D02*
X116950000Y-107190000D01*
X128600000Y-106140000D02*
X129850000Y-106140000D01*
X128800000Y-108690000D02*
X128800000Y-111640000D01*
X126250000Y-107190000D02*
X120250000Y-107190000D01*
X127750000Y-107190000D02*
X127750000Y-106440000D01*
X116950000Y-106440000D02*
X118750000Y-106440000D01*
X120250000Y-107190000D02*
X120250000Y-106440000D01*
X116950000Y-108690000D02*
X117700000Y-108690000D01*
X129550000Y-108690000D02*
X128800000Y-108690000D01*
X129550000Y-107190000D02*
X127750000Y-107190000D01*
X116940000Y-106430000D02*
X129560000Y-106430000D01*
X129560000Y-112400000D02*
X116940000Y-112400000D01*
X129560000Y-106430000D02*
X129560000Y-112400000D01*
X118750000Y-106440000D02*
X118750000Y-107190000D01*
X129850000Y-106140000D02*
X129850000Y-107390000D01*
X117700000Y-108690000D02*
X117700000Y-111640000D01*
X126250000Y-106440000D02*
X126250000Y-107190000D01*
X127750000Y-106440000D02*
X129550000Y-106440000D01*
X120250000Y-106440000D02*
X126250000Y-106440000D01*
X116940000Y-112400000D02*
X116940000Y-106430000D01*
X129550000Y-106440000D02*
X129550000Y-107190000D01*
X116950000Y-107190000D02*
X116950000Y-106440000D01*
X117700000Y-111640000D02*
X123250000Y-111640000D01*
%TO.C,J5*%
X74820000Y-106400000D02*
X85100000Y-106400000D01*
X83570000Y-110275000D02*
X83535000Y-110239000D01*
X83775000Y-110069000D02*
X83728000Y-110023000D01*
X74820000Y-104340000D02*
X85100000Y-104340000D01*
X74820000Y-114261000D02*
X74820000Y-104340000D01*
X74580000Y-104840000D02*
X74580000Y-104100000D01*
X74820000Y-104900000D02*
X85100000Y-104900000D01*
X74820000Y-111301000D02*
X85100000Y-111301000D01*
X81273000Y-107977000D02*
X81226000Y-107931000D01*
X74580000Y-104100000D02*
X75080000Y-104100000D01*
X74820000Y-114261000D02*
X85100000Y-114261000D01*
X85100000Y-114261000D02*
X85100000Y-104340000D01*
X81466000Y-107761000D02*
X81431000Y-107726000D01*
X75884573Y-108316958D02*
G75*
G03*
X75885000Y-109684000I1535431J-683041D01*
G01*
X76736958Y-110535427D02*
G75*
G03*
X78104000Y-110535000I683041J1535431D01*
G01*
X78103318Y-107465244D02*
G75*
G03*
X77420000Y-107320000I-683317J-1534748D01*
G01*
X77448805Y-107319747D02*
G75*
G03*
X76736000Y-107465000I-28806J-1680254D01*
G01*
X78955427Y-109683042D02*
G75*
G03*
X78955000Y-108316000I-1535431J683041D01*
G01*
X84180000Y-109000000D02*
G75*
G03*
X84180000Y-109000000I-1680000J0D01*
G01*
%TO.C,J9*%
X136750000Y-88300000D02*
X136750000Y-87550000D01*
X128440000Y-87540000D02*
X138560000Y-87540000D01*
X128440000Y-93510000D02*
X128440000Y-87540000D01*
X138550000Y-88300000D02*
X136750000Y-88300000D01*
X131750000Y-88300000D02*
X131750000Y-87550000D01*
X137600000Y-87250000D02*
X138850000Y-87250000D01*
X135250000Y-88300000D02*
X131750000Y-88300000D01*
X128450000Y-87550000D02*
X130250000Y-87550000D01*
X130250000Y-88300000D02*
X128450000Y-88300000D01*
X138550000Y-89800000D02*
X137800000Y-89800000D01*
X137800000Y-89800000D02*
X137800000Y-92750000D01*
X137800000Y-92750000D02*
X133500000Y-92750000D01*
X136750000Y-87550000D02*
X138550000Y-87550000D01*
X138560000Y-93510000D02*
X128440000Y-93510000D01*
X130250000Y-87550000D02*
X130250000Y-88300000D01*
X128450000Y-89800000D02*
X129200000Y-89800000D01*
X131750000Y-87550000D02*
X135250000Y-87550000D01*
X138850000Y-87250000D02*
X138850000Y-88500000D01*
X138560000Y-87540000D02*
X138560000Y-93510000D01*
X138550000Y-87550000D02*
X138550000Y-88300000D01*
X129200000Y-92750000D02*
X133500000Y-92750000D01*
X129200000Y-89800000D02*
X129200000Y-92750000D01*
X135250000Y-87550000D02*
X135250000Y-88300000D01*
X128450000Y-88300000D02*
X128450000Y-87550000D01*
%TO.C,J10*%
X145200000Y-105550000D02*
X142250000Y-105550000D01*
X147450000Y-103000000D02*
X146700000Y-103000000D01*
X145200000Y-93700000D02*
X145200000Y-94450000D01*
X147450000Y-106300000D02*
X146700000Y-106300000D01*
X147450000Y-104500000D02*
X147450000Y-106300000D01*
X141490000Y-93690000D02*
X147460000Y-93690000D01*
X147460000Y-106310000D02*
X141490000Y-106310000D01*
X147450000Y-97000000D02*
X147450000Y-103000000D01*
X146700000Y-93700000D02*
X147450000Y-93700000D01*
X142250000Y-94450000D02*
X142250000Y-100000000D01*
X146700000Y-106300000D02*
X146700000Y-104500000D01*
X146700000Y-104500000D02*
X147450000Y-104500000D01*
X147450000Y-95500000D02*
X146700000Y-95500000D01*
X146700000Y-97000000D02*
X147450000Y-97000000D01*
X141490000Y-106310000D02*
X141490000Y-93690000D01*
X145200000Y-106300000D02*
X145200000Y-105550000D01*
X145200000Y-94450000D02*
X142250000Y-94450000D01*
X147460000Y-93690000D02*
X147460000Y-106310000D01*
X147450000Y-93700000D02*
X147450000Y-95500000D01*
X146700000Y-95500000D02*
X146700000Y-93700000D01*
X146700000Y-103000000D02*
X146700000Y-97000000D01*
X142250000Y-105550000D02*
X142250000Y-100000000D01*
X147750000Y-106600000D02*
X146500000Y-106600000D01*
X147750000Y-105350000D02*
X147750000Y-106600000D01*
%TO.C,J11*%
X53300000Y-97000000D02*
X53300000Y-103000000D01*
X57750000Y-105550000D02*
X57750000Y-100000000D01*
X52550000Y-93700000D02*
X53300000Y-93700000D01*
X52550000Y-97000000D02*
X53300000Y-97000000D01*
X52550000Y-106300000D02*
X52550000Y-104500000D01*
X52250000Y-93400000D02*
X53500000Y-93400000D01*
X53300000Y-93700000D02*
X53300000Y-95500000D01*
X53300000Y-104500000D02*
X53300000Y-106300000D01*
X54800000Y-105550000D02*
X57750000Y-105550000D01*
X54800000Y-94450000D02*
X57750000Y-94450000D01*
X52550000Y-103000000D02*
X52550000Y-97000000D01*
X53300000Y-106300000D02*
X52550000Y-106300000D01*
X53300000Y-95500000D02*
X52550000Y-95500000D01*
X52550000Y-95500000D02*
X52550000Y-93700000D01*
X58510000Y-106310000D02*
X52540000Y-106310000D01*
X53300000Y-103000000D02*
X52550000Y-103000000D01*
X52540000Y-106310000D02*
X52540000Y-93690000D01*
X52550000Y-104500000D02*
X53300000Y-104500000D01*
X58510000Y-93690000D02*
X58510000Y-106310000D01*
X52540000Y-93690000D02*
X58510000Y-93690000D01*
X57750000Y-94450000D02*
X57750000Y-100000000D01*
X54800000Y-93700000D02*
X54800000Y-94450000D01*
X54800000Y-106300000D02*
X54800000Y-105550000D01*
X52250000Y-94650000D02*
X52250000Y-93400000D01*
%TO.C,C1*%
X140335000Y-97623752D02*
X140335000Y-97101248D01*
X138865000Y-97623752D02*
X138865000Y-97101248D01*
%TO.C,C2*%
X132423752Y-95735000D02*
X131901248Y-95735000D01*
X132423752Y-94265000D02*
X131901248Y-94265000D01*
%TO.C,C3*%
X60735000Y-100738748D02*
X60735000Y-101261252D01*
X59265000Y-100738748D02*
X59265000Y-101261252D01*
%TO.C,J12*%
X63128000Y-111640000D02*
X67428000Y-111640000D01*
X62378000Y-107190000D02*
X62378000Y-106440000D01*
X72488000Y-106430000D02*
X72488000Y-112400000D01*
X70678000Y-107190000D02*
X70678000Y-106440000D01*
X72778000Y-106140000D02*
X72778000Y-107390000D01*
X69178000Y-107190000D02*
X65678000Y-107190000D01*
X64178000Y-107190000D02*
X62378000Y-107190000D01*
X63128000Y-108690000D02*
X63128000Y-111640000D01*
X62368000Y-112400000D02*
X62368000Y-106430000D01*
X71728000Y-108690000D02*
X71728000Y-111640000D01*
X72488000Y-112400000D02*
X62368000Y-112400000D01*
X65678000Y-107190000D02*
X65678000Y-106440000D01*
X69178000Y-106440000D02*
X69178000Y-107190000D01*
X62378000Y-106440000D02*
X64178000Y-106440000D01*
X65678000Y-106440000D02*
X69178000Y-106440000D01*
X72478000Y-107190000D02*
X70678000Y-107190000D01*
X62368000Y-106430000D02*
X72488000Y-106430000D01*
X70678000Y-106440000D02*
X72478000Y-106440000D01*
X71728000Y-111640000D02*
X67428000Y-111640000D01*
X72478000Y-108690000D02*
X71728000Y-108690000D01*
X72478000Y-106440000D02*
X72478000Y-107190000D01*
X64178000Y-106440000D02*
X64178000Y-107190000D01*
X71528000Y-106140000D02*
X72778000Y-106140000D01*
X62378000Y-108690000D02*
X63128000Y-108690000D01*
%TO.C,J13*%
X133250000Y-97300000D02*
X133250000Y-96550000D01*
X135050000Y-98800000D02*
X134300000Y-98800000D01*
X117450000Y-97300000D02*
X117450000Y-96550000D01*
X119250000Y-96550000D02*
X119250000Y-97300000D01*
X135060000Y-96540000D02*
X135060000Y-102510000D01*
X135060000Y-102510000D02*
X117440000Y-102510000D01*
X120750000Y-97300000D02*
X120750000Y-96550000D01*
X117440000Y-102510000D02*
X117440000Y-96540000D01*
X131750000Y-97300000D02*
X120750000Y-97300000D01*
X118200000Y-98800000D02*
X118200000Y-101750000D01*
X120750000Y-96550000D02*
X131750000Y-96550000D01*
X118200000Y-101750000D02*
X126250000Y-101750000D01*
X131750000Y-96550000D02*
X131750000Y-97300000D01*
X117440000Y-96540000D02*
X135060000Y-96540000D01*
X134100000Y-96250000D02*
X135350000Y-96250000D01*
X117450000Y-96550000D02*
X119250000Y-96550000D01*
X135050000Y-96550000D02*
X135050000Y-97300000D01*
X133250000Y-96550000D02*
X135050000Y-96550000D01*
X134300000Y-98800000D02*
X134300000Y-101750000D01*
X117450000Y-98800000D02*
X118200000Y-98800000D01*
X135350000Y-96250000D02*
X135350000Y-97500000D01*
X119250000Y-97300000D02*
X117450000Y-97300000D01*
X135050000Y-97300000D02*
X133250000Y-97300000D01*
X134300000Y-101750000D02*
X126250000Y-101750000D01*
%TD*%
M02*
