M48
; DRILL file {KiCad (6.0.1)} date Tue Jan 25 20:37:12 2022
; FORMAT={-:-/ absolute / inch / decimal}
; #@! TF.CreationDate,2022-01-25T20:37:12+01:00
; #@! TF.GenerationSoftware,Kicad,Pcbnew,(6.0.1)
; #@! TF.FileFunction,Plated,1,2,PTH
FMAT,2
INCH
; #@! TA.AperFunction,Plated,PTH,ComponentDrill
T1C0.0374
; #@! TA.AperFunction,Plated,PTH,ComponentDrill
T2C0.0394
; #@! TA.AperFunction,Plated,PTH,ComponentDrill
T3C0.0512
%
G90
G05
T1
X2.1654Y-3.7894
X2.1654Y-3.8878
X2.1654Y-3.9862
X2.1654Y-4.0846
X2.5562Y-4.287
X2.6546Y-4.287
X2.7531Y-4.287
X4.7047Y-4.287
X4.7244Y-3.8976
X4.8031Y-4.287
X4.8228Y-3.8976
X4.9016Y-4.287
X4.9213Y-3.8976
X5.0Y-4.287
X5.0197Y-3.8976
X5.1181Y-3.8976
X5.1575Y-3.5433
X5.2165Y-3.8976
X5.2559Y-3.5433
X5.3543Y-3.5433
X5.7087Y-3.7894
X5.7087Y-3.8878
X5.7087Y-3.9862
X5.7087Y-4.0846
T2
X2.4606Y-3.587
X2.5591Y-3.587
X2.8346Y-3.587
X2.9331Y-3.587
X3.2087Y-3.587
X3.3071Y-3.587
X3.4055Y-3.878
X3.4055Y-3.9961
X3.5236Y-3.878
X3.5236Y-3.9961
X3.6417Y-3.878
X3.6417Y-3.9961
X3.7598Y-3.878
X3.7598Y-3.9961
X3.878Y-3.878
X3.878Y-3.9961
X3.9961Y-3.878
X3.9961Y-3.9961
X4.1142Y-3.878
X4.1142Y-3.9961
X4.2323Y-3.878
X4.2323Y-3.9961
X4.3504Y-3.878
X4.3504Y-3.9961
X4.4685Y-3.878
X4.4685Y-3.9961
X4.7244Y-3.5433
X4.8228Y-3.5433
X5.2756Y-4.2913
X5.374Y-4.2913
T3
X3.048Y-4.2913
X3.248Y-4.2913
T0
M30
