%TF.GenerationSoftware,KiCad,Pcbnew,(6.0.4-0)*%
%TF.CreationDate,2022-03-28T23:15:47-05:00*%
%TF.ProjectId,Toolhead_PCB,546f6f6c-6865-4616-945f-5043422e6b69,rev?*%
%TF.SameCoordinates,Original*%
%TF.FileFunction,Legend,Bot*%
%TF.FilePolarity,Positive*%
%FSLAX46Y46*%
G04 Gerber Fmt 4.6, Leading zero omitted, Abs format (unit mm)*
G04 Created by KiCad (PCBNEW (6.0.4-0)) date 2022-03-28 23:15:47*
%MOMM*%
%LPD*%
G01*
G04 APERTURE LIST*
%ADD10C,0.150000*%
%ADD11C,0.120000*%
G04 APERTURE END LIST*
D10*
%TO.C,C3*%
X105373666Y-83085142D02*
X105421285Y-83132761D01*
X105564142Y-83180380D01*
X105659380Y-83180380D01*
X105802238Y-83132761D01*
X105897476Y-83037523D01*
X105945095Y-82942285D01*
X105992714Y-82751809D01*
X105992714Y-82608952D01*
X105945095Y-82418476D01*
X105897476Y-82323238D01*
X105802238Y-82228000D01*
X105659380Y-82180380D01*
X105564142Y-82180380D01*
X105421285Y-82228000D01*
X105373666Y-82275619D01*
X105040333Y-82180380D02*
X104421285Y-82180380D01*
X104754619Y-82561333D01*
X104611761Y-82561333D01*
X104516523Y-82608952D01*
X104468904Y-82656571D01*
X104421285Y-82751809D01*
X104421285Y-82989904D01*
X104468904Y-83085142D01*
X104516523Y-83132761D01*
X104611761Y-83180380D01*
X104897476Y-83180380D01*
X104992714Y-83132761D01*
X105040333Y-83085142D01*
%TO.C,C1*%
X105945142Y-87895333D02*
X105992761Y-87847714D01*
X106040380Y-87704857D01*
X106040380Y-87609619D01*
X105992761Y-87466761D01*
X105897523Y-87371523D01*
X105802285Y-87323904D01*
X105611809Y-87276285D01*
X105468952Y-87276285D01*
X105278476Y-87323904D01*
X105183238Y-87371523D01*
X105088000Y-87466761D01*
X105040380Y-87609619D01*
X105040380Y-87704857D01*
X105088000Y-87847714D01*
X105135619Y-87895333D01*
X106040380Y-88847714D02*
X106040380Y-88276285D01*
X106040380Y-88562000D02*
X105040380Y-88562000D01*
X105183238Y-88466761D01*
X105278476Y-88371523D01*
X105326095Y-88276285D01*
%TO.C,U1*%
X91452380Y-85738095D02*
X92261904Y-85738095D01*
X92357142Y-85785714D01*
X92404761Y-85833333D01*
X92452380Y-85928571D01*
X92452380Y-86119047D01*
X92404761Y-86214285D01*
X92357142Y-86261904D01*
X92261904Y-86309523D01*
X91452380Y-86309523D01*
X92452380Y-87309523D02*
X92452380Y-86738095D01*
X92452380Y-87023809D02*
X91452380Y-87023809D01*
X91595238Y-86928571D01*
X91690476Y-86833333D01*
X91738095Y-86738095D01*
%TO.C,R2*%
X97626666Y-83180380D02*
X97960000Y-82704190D01*
X98198095Y-83180380D02*
X98198095Y-82180380D01*
X97817142Y-82180380D01*
X97721904Y-82228000D01*
X97674285Y-82275619D01*
X97626666Y-82370857D01*
X97626666Y-82513714D01*
X97674285Y-82608952D01*
X97721904Y-82656571D01*
X97817142Y-82704190D01*
X98198095Y-82704190D01*
X97245714Y-82275619D02*
X97198095Y-82228000D01*
X97102857Y-82180380D01*
X96864761Y-82180380D01*
X96769523Y-82228000D01*
X96721904Y-82275619D01*
X96674285Y-82370857D01*
X96674285Y-82466095D01*
X96721904Y-82608952D01*
X97293333Y-83180380D01*
X96674285Y-83180380D01*
%TO.C,R1*%
X107818380Y-87895333D02*
X107342190Y-87562000D01*
X107818380Y-87323904D02*
X106818380Y-87323904D01*
X106818380Y-87704857D01*
X106866000Y-87800095D01*
X106913619Y-87847714D01*
X107008857Y-87895333D01*
X107151714Y-87895333D01*
X107246952Y-87847714D01*
X107294571Y-87800095D01*
X107342190Y-87704857D01*
X107342190Y-87323904D01*
X107818380Y-88847714D02*
X107818380Y-88276285D01*
X107818380Y-88562000D02*
X106818380Y-88562000D01*
X106961238Y-88466761D01*
X107056476Y-88371523D01*
X107104095Y-88276285D01*
%TO.C,C4*%
X92038666Y-84355142D02*
X92086285Y-84402761D01*
X92229142Y-84450380D01*
X92324380Y-84450380D01*
X92467238Y-84402761D01*
X92562476Y-84307523D01*
X92610095Y-84212285D01*
X92657714Y-84021809D01*
X92657714Y-83878952D01*
X92610095Y-83688476D01*
X92562476Y-83593238D01*
X92467238Y-83498000D01*
X92324380Y-83450380D01*
X92229142Y-83450380D01*
X92086285Y-83498000D01*
X92038666Y-83545619D01*
X91181523Y-83783714D02*
X91181523Y-84450380D01*
X91419619Y-83402761D02*
X91657714Y-84117047D01*
X91038666Y-84117047D01*
%TO.C,U2*%
X103047904Y-87374380D02*
X103047904Y-88183904D01*
X103000285Y-88279142D01*
X102952666Y-88326761D01*
X102857428Y-88374380D01*
X102666952Y-88374380D01*
X102571714Y-88326761D01*
X102524095Y-88279142D01*
X102476476Y-88183904D01*
X102476476Y-87374380D01*
X102047904Y-87469619D02*
X102000285Y-87422000D01*
X101905047Y-87374380D01*
X101666952Y-87374380D01*
X101571714Y-87422000D01*
X101524095Y-87469619D01*
X101476476Y-87564857D01*
X101476476Y-87660095D01*
X101524095Y-87802952D01*
X102095523Y-88374380D01*
X101476476Y-88374380D01*
%TO.C,R3*%
X91784666Y-88895380D02*
X92118000Y-88419190D01*
X92356095Y-88895380D02*
X92356095Y-87895380D01*
X91975142Y-87895380D01*
X91879904Y-87943000D01*
X91832285Y-87990619D01*
X91784666Y-88085857D01*
X91784666Y-88228714D01*
X91832285Y-88323952D01*
X91879904Y-88371571D01*
X91975142Y-88419190D01*
X92356095Y-88419190D01*
X91451333Y-87895380D02*
X90832285Y-87895380D01*
X91165619Y-88276333D01*
X91022761Y-88276333D01*
X90927523Y-88323952D01*
X90879904Y-88371571D01*
X90832285Y-88466809D01*
X90832285Y-88704904D01*
X90879904Y-88800142D01*
X90927523Y-88847761D01*
X91022761Y-88895380D01*
X91308476Y-88895380D01*
X91403714Y-88847761D01*
X91451333Y-88800142D01*
D11*
%TO.C,C3*%
X101891420Y-82472000D02*
X102172580Y-82472000D01*
X101891420Y-83492000D02*
X102172580Y-83492000D01*
%TO.C,C1*%
X106098000Y-85381420D02*
X106098000Y-85662580D01*
X105078000Y-85381420D02*
X105078000Y-85662580D01*
%TO.C,U1*%
X92818000Y-87606000D02*
X92818000Y-88656000D01*
X98038000Y-87606000D02*
X98038000Y-88656000D01*
X98038000Y-86486000D02*
X98038000Y-85436000D01*
%TO.C,R2*%
X97697258Y-83475500D02*
X97222742Y-83475500D01*
X97697258Y-84520500D02*
X97222742Y-84520500D01*
%TO.C,R1*%
X107888500Y-85759258D02*
X107888500Y-85284742D01*
X106843500Y-85759258D02*
X106843500Y-85284742D01*
%TO.C,C4*%
X94017420Y-83488000D02*
X94298580Y-83488000D01*
X94017420Y-84508000D02*
X94298580Y-84508000D01*
%TO.C,U2*%
X102286000Y-87082000D02*
X100611000Y-87082000D01*
X102286000Y-87082000D02*
X102936000Y-87082000D01*
X102286000Y-83962000D02*
X101636000Y-83962000D01*
X102286000Y-83962000D02*
X102936000Y-83962000D01*
%TO.C,R3*%
X91380742Y-90362500D02*
X91855258Y-90362500D01*
X91380742Y-89317500D02*
X91855258Y-89317500D01*
%TD*%
M02*
