%TF.GenerationSoftware,KiCad,Pcbnew,(6.0.4-0)*%
%TF.CreationDate,2022-03-28T23:15:47-05:00*%
%TF.ProjectId,Toolhead_PCB,546f6f6c-6865-4616-945f-5043422e6b69,rev?*%
%TF.SameCoordinates,Original*%
%TF.FileFunction,Soldermask,Top*%
%TF.FilePolarity,Negative*%
%FSLAX46Y46*%
G04 Gerber Fmt 4.6, Leading zero omitted, Abs format (unit mm)*
G04 Created by KiCad (PCBNEW (6.0.4-0)) date 2022-03-28 23:15:47*
%MOMM*%
%LPD*%
G01*
G04 APERTURE LIST*
G04 Aperture macros list*
%AMRoundRect*
0 Rectangle with rounded corners*
0 $1 Rounding radius*
0 $2 $3 $4 $5 $6 $7 $8 $9 X,Y pos of 4 corners*
0 Add a 4 corners polygon primitive as box body*
4,1,4,$2,$3,$4,$5,$6,$7,$8,$9,$2,$3,0*
0 Add four circle primitives for the rounded corners*
1,1,$1+$1,$2,$3*
1,1,$1+$1,$4,$5*
1,1,$1+$1,$6,$7*
1,1,$1+$1,$8,$9*
0 Add four rect primitives between the rounded corners*
20,1,$1+$1,$2,$3,$4,$5,0*
20,1,$1+$1,$4,$5,$6,$7,0*
20,1,$1+$1,$6,$7,$8,$9,0*
20,1,$1+$1,$8,$9,$2,$3,0*%
G04 Aperture macros list end*
%ADD10C,3.102000*%
%ADD11RoundRect,0.301001X-0.499999X-0.499999X0.499999X-0.499999X0.499999X0.499999X-0.499999X0.499999X0*%
%ADD12C,1.602000*%
%ADD13C,3.302000*%
%ADD14RoundRect,0.301000X0.600000X0.750000X-0.600000X0.750000X-0.600000X-0.750000X0.600000X-0.750000X0*%
%ADD15O,1.802000X2.102000*%
%ADD16RoundRect,0.301000X0.600000X0.725000X-0.600000X0.725000X-0.600000X-0.725000X0.600000X-0.725000X0*%
%ADD17O,1.802000X2.052000*%
G04 APERTURE END LIST*
D10*
%TO.C,J1*%
X88660000Y-87552000D03*
X111360000Y-87552000D03*
D11*
X86500000Y-91872000D03*
D12*
X89500000Y-91872000D03*
X92500000Y-91872000D03*
X95500000Y-91872000D03*
X98500000Y-91872000D03*
X101500000Y-91872000D03*
X104500000Y-91872000D03*
X107500000Y-91872000D03*
X110500000Y-91872000D03*
X113500000Y-91872000D03*
X86500000Y-94872000D03*
X89500000Y-94872000D03*
X92500000Y-94872000D03*
X95500000Y-94872000D03*
X98500000Y-94872000D03*
X101500000Y-94872000D03*
X104500000Y-94872000D03*
X107500000Y-94872000D03*
X110500000Y-94872000D03*
X113500000Y-94872000D03*
%TD*%
D13*
%TO.C,H1*%
X78080000Y-100000000D03*
%TD*%
%TO.C,H2*%
X121920000Y-100000000D03*
%TD*%
D14*
%TO.C,J7*%
X96825000Y-99966000D03*
D15*
X94325000Y-99966000D03*
%TD*%
D14*
%TO.C,J5*%
X114605000Y-99966000D03*
D15*
X112105000Y-99966000D03*
%TD*%
D14*
%TO.C,J3*%
X105675000Y-99966000D03*
D15*
X103175000Y-99966000D03*
%TD*%
D14*
%TO.C,J6*%
X87935000Y-99966000D03*
D15*
X85435000Y-99966000D03*
%TD*%
D14*
%TO.C,J4*%
X87935000Y-107586000D03*
D15*
X85435000Y-107586000D03*
%TD*%
D16*
%TO.C,J2*%
X103770000Y-107586000D03*
D17*
X101270000Y-107586000D03*
X98770000Y-107586000D03*
X96270000Y-107586000D03*
%TD*%
D14*
%TO.C,J8*%
X114605000Y-107586000D03*
D15*
X112105000Y-107586000D03*
%TD*%
M02*
