G04 #@! TF.GenerationSoftware,KiCad,Pcbnew,(6.0.1)*
G04 #@! TF.CreationDate,2022-01-25T19:41:42+01:00*
G04 #@! TF.ProjectId,Toolhead_PCB,546f6f6c-6865-4616-945f-5043422e6b69,rev?*
G04 #@! TF.SameCoordinates,Original*
G04 #@! TF.FileFunction,Soldermask,Bot*
G04 #@! TF.FilePolarity,Negative*
%FSLAX46Y46*%
G04 Gerber Fmt 4.6, Leading zero omitted, Abs format (unit mm)*
G04 Created by KiCad (PCBNEW (6.0.1)) date 2022-01-25 19:41:42*
%MOMM*%
%LPD*%
G01*
G04 APERTURE LIST*
G04 Aperture macros list*
%AMRoundRect*
0 Rectangle with rounded corners*
0 $1 Rounding radius*
0 $2 $3 $4 $5 $6 $7 $8 $9 X,Y pos of 4 corners*
0 Add a 4 corners polygon primitive as box body*
4,1,4,$2,$3,$4,$5,$6,$7,$8,$9,$2,$3,0*
0 Add four circle primitives for the rounded corners*
1,1,$1+$1,$2,$3*
1,1,$1+$1,$4,$5*
1,1,$1+$1,$6,$7*
1,1,$1+$1,$8,$9*
0 Add four rect primitives between the rounded corners*
20,1,$1+$1,$2,$3,$4,$5,0*
20,1,$1+$1,$4,$5,$6,$7,0*
20,1,$1+$1,$6,$7,$8,$9,0*
20,1,$1+$1,$8,$9,$2,$3,0*%
G04 Aperture macros list end*
%ADD10C,3.102000*%
%ADD11RoundRect,0.301001X-0.499999X-0.499999X0.499999X-0.499999X0.499999X0.499999X-0.499999X0.499999X0*%
%ADD12C,1.602000*%
%ADD13C,3.302000*%
%ADD14RoundRect,0.301000X0.600000X0.750000X-0.600000X0.750000X-0.600000X-0.750000X0.600000X-0.750000X0*%
%ADD15O,1.802000X2.102000*%
%ADD16RoundRect,0.301000X0.600000X0.725000X-0.600000X0.725000X-0.600000X-0.725000X0.600000X-0.725000X0*%
%ADD17O,1.802000X2.052000*%
%ADD18RoundRect,0.276000X-0.225000X-0.250000X0.225000X-0.250000X0.225000X0.250000X-0.225000X0.250000X0*%
%ADD19RoundRect,0.276000X-0.250000X0.225000X-0.250000X-0.225000X0.250000X-0.225000X0.250000X0.225000X0*%
%ADD20RoundRect,0.201000X-0.150000X0.325000X-0.150000X-0.325000X0.150000X-0.325000X0.150000X0.325000X0*%
%ADD21RoundRect,0.201000X-0.325000X0.150000X-0.325000X-0.150000X0.325000X-0.150000X0.325000X0.150000X0*%
%ADD22RoundRect,0.251000X0.200000X0.275000X-0.200000X0.275000X-0.200000X-0.275000X0.200000X-0.275000X0*%
%ADD23RoundRect,0.251000X0.275000X-0.200000X0.275000X0.200000X-0.275000X0.200000X-0.275000X-0.200000X0*%
%ADD24RoundRect,0.201000X0.512500X0.150000X-0.512500X0.150000X-0.512500X-0.150000X0.512500X-0.150000X0*%
%ADD25RoundRect,0.251000X-0.200000X-0.275000X0.200000X-0.275000X0.200000X0.275000X-0.200000X0.275000X0*%
G04 APERTURE END LIST*
D10*
X88660000Y-87552000D03*
X111360000Y-87552000D03*
D11*
X86500000Y-91872000D03*
D12*
X89500000Y-91872000D03*
X92500000Y-91872000D03*
X95500000Y-91872000D03*
X98500000Y-91872000D03*
X101500000Y-91872000D03*
X104500000Y-91872000D03*
X107500000Y-91872000D03*
X110500000Y-91872000D03*
X113500000Y-91872000D03*
X86500000Y-94872000D03*
X89500000Y-94872000D03*
X92500000Y-94872000D03*
X95500000Y-94872000D03*
X98500000Y-94872000D03*
X101500000Y-94872000D03*
X104500000Y-94872000D03*
X107500000Y-94872000D03*
X110500000Y-94872000D03*
X113500000Y-94872000D03*
D13*
X78080000Y-100000000D03*
X121920000Y-100000000D03*
D14*
X96825000Y-99966000D03*
D15*
X94325000Y-99966000D03*
D14*
X114605000Y-99966000D03*
D15*
X112105000Y-99966000D03*
D14*
X105675000Y-99966000D03*
D15*
X103175000Y-99966000D03*
D14*
X87935000Y-99966000D03*
D15*
X85435000Y-99966000D03*
D14*
X87935000Y-107586000D03*
D15*
X85435000Y-107586000D03*
D16*
X103770000Y-107586000D03*
D17*
X101270000Y-107586000D03*
X98770000Y-107586000D03*
X96270000Y-107586000D03*
D14*
X114605000Y-107586000D03*
D15*
X112105000Y-107586000D03*
D18*
X101257000Y-82982000D03*
X102807000Y-82982000D03*
X101257000Y-88062000D03*
X102807000Y-88062000D03*
D19*
X105588000Y-84747000D03*
X105588000Y-86297000D03*
D20*
X93428000Y-86046000D03*
X94228000Y-86046000D03*
X95028000Y-86046000D03*
X95828000Y-86046000D03*
X96628000Y-86046000D03*
X97428000Y-86046000D03*
D21*
X97428000Y-87046000D03*
D20*
X97428000Y-88046000D03*
X96628000Y-88046000D03*
X95828000Y-88046000D03*
X95028000Y-88046000D03*
X94228000Y-88046000D03*
X93428000Y-88046000D03*
D21*
X93428000Y-87046000D03*
D22*
X98285000Y-83998000D03*
X96635000Y-83998000D03*
D23*
X107366000Y-86347000D03*
X107366000Y-84697000D03*
D18*
X93383000Y-83998000D03*
X94933000Y-83998000D03*
D24*
X103169500Y-84572000D03*
X103169500Y-85522000D03*
X103169500Y-86472000D03*
X100894500Y-86472000D03*
X100894500Y-84572000D03*
D25*
X90793000Y-89840000D03*
X92443000Y-89840000D03*
G36*
X96965084Y-87338537D02*
G01*
X97026860Y-87379815D01*
X97103199Y-87395000D01*
X97752801Y-87395000D01*
X97809885Y-87383645D01*
X97811779Y-87384288D01*
X97812169Y-87386250D01*
X97811120Y-87387420D01*
X97786765Y-87398777D01*
X97786675Y-87399800D01*
X97785846Y-87400482D01*
X97744338Y-87418844D01*
X97706202Y-87476658D01*
X97705377Y-87545944D01*
X97736925Y-87599845D01*
X97742486Y-87605406D01*
X97742885Y-87605975D01*
X97748127Y-87617217D01*
X97747952Y-87619209D01*
X97746140Y-87620054D01*
X97744651Y-87619173D01*
X97718686Y-87580314D01*
X97654140Y-87537185D01*
X97577801Y-87522000D01*
X97278199Y-87522000D01*
X97201860Y-87537185D01*
X97137314Y-87580314D01*
X97094185Y-87644860D01*
X97079000Y-87721199D01*
X97079000Y-88370801D01*
X97094185Y-88447140D01*
X97123431Y-88490909D01*
X97123562Y-88492905D01*
X97121899Y-88494016D01*
X97120354Y-88493434D01*
X97115177Y-88488257D01*
X97054128Y-88454923D01*
X96984969Y-88459869D01*
X96940872Y-88488208D01*
X96935646Y-88493434D01*
X96933714Y-88493952D01*
X96932300Y-88492538D01*
X96932569Y-88490909D01*
X96961815Y-88447140D01*
X96977000Y-88370801D01*
X96977000Y-87721199D01*
X96961815Y-87644860D01*
X96932569Y-87601091D01*
X96932438Y-87599095D01*
X96934101Y-87597984D01*
X96935646Y-87598566D01*
X96940823Y-87603743D01*
X97001872Y-87637077D01*
X97071031Y-87632131D01*
X97115128Y-87603792D01*
X97119054Y-87599866D01*
X97152388Y-87538817D01*
X97147448Y-87469735D01*
X97105923Y-87414264D01*
X97048088Y-87390710D01*
X97038760Y-87389481D01*
X96981521Y-87398406D01*
X96979656Y-87397685D01*
X96979301Y-87397016D01*
X96962061Y-87340786D01*
X96962509Y-87338837D01*
X96964421Y-87338251D01*
X96965084Y-87338537D01*
G37*
G36*
X94535646Y-87598566D02*
G01*
X94540823Y-87603743D01*
X94601872Y-87637077D01*
X94671031Y-87632131D01*
X94715128Y-87603792D01*
X94720354Y-87598566D01*
X94722286Y-87598048D01*
X94723700Y-87599462D01*
X94723431Y-87601091D01*
X94694185Y-87644860D01*
X94679000Y-87721199D01*
X94679000Y-88370801D01*
X94694185Y-88447140D01*
X94723431Y-88490909D01*
X94723562Y-88492905D01*
X94721899Y-88494016D01*
X94720354Y-88493434D01*
X94715177Y-88488257D01*
X94654128Y-88454923D01*
X94584969Y-88459869D01*
X94540872Y-88488208D01*
X94535646Y-88493434D01*
X94533714Y-88493952D01*
X94532300Y-88492538D01*
X94532569Y-88490909D01*
X94561815Y-88447140D01*
X94577000Y-88370801D01*
X94577000Y-87721199D01*
X94561815Y-87644860D01*
X94532569Y-87601091D01*
X94532438Y-87599095D01*
X94534101Y-87597984D01*
X94535646Y-87598566D01*
G37*
G36*
X96135646Y-87598566D02*
G01*
X96140823Y-87603743D01*
X96201872Y-87637077D01*
X96271031Y-87632131D01*
X96315128Y-87603792D01*
X96320354Y-87598566D01*
X96322286Y-87598048D01*
X96323700Y-87599462D01*
X96323431Y-87601091D01*
X96294185Y-87644860D01*
X96279000Y-87721199D01*
X96279000Y-88370801D01*
X96294185Y-88447140D01*
X96323431Y-88490909D01*
X96323562Y-88492905D01*
X96321899Y-88494016D01*
X96320354Y-88493434D01*
X96315177Y-88488257D01*
X96254128Y-88454923D01*
X96184969Y-88459869D01*
X96140872Y-88488208D01*
X96135646Y-88493434D01*
X96133714Y-88493952D01*
X96132300Y-88492538D01*
X96132569Y-88490909D01*
X96161815Y-88447140D01*
X96177000Y-88370801D01*
X96177000Y-87721199D01*
X96161815Y-87644860D01*
X96132569Y-87601091D01*
X96132438Y-87599095D01*
X96134101Y-87597984D01*
X96135646Y-87598566D01*
G37*
G36*
X95335646Y-87598566D02*
G01*
X95340823Y-87603743D01*
X95401872Y-87637077D01*
X95471031Y-87632131D01*
X95515128Y-87603792D01*
X95520354Y-87598566D01*
X95522286Y-87598048D01*
X95523700Y-87599462D01*
X95523431Y-87601091D01*
X95494185Y-87644860D01*
X95479000Y-87721199D01*
X95479000Y-88370801D01*
X95494185Y-88447140D01*
X95523431Y-88490909D01*
X95523562Y-88492905D01*
X95521899Y-88494016D01*
X95520354Y-88493434D01*
X95515177Y-88488257D01*
X95454128Y-88454923D01*
X95384969Y-88459869D01*
X95340872Y-88488208D01*
X95335646Y-88493434D01*
X95333714Y-88493952D01*
X95332300Y-88492538D01*
X95332569Y-88490909D01*
X95361815Y-88447140D01*
X95377000Y-88370801D01*
X95377000Y-87721199D01*
X95361815Y-87644860D01*
X95332569Y-87601091D01*
X95332438Y-87599095D01*
X95334101Y-87597984D01*
X95335646Y-87598566D01*
G37*
G36*
X93923108Y-87298054D02*
G01*
X93923127Y-87299784D01*
X93917885Y-87311025D01*
X93917486Y-87311594D01*
X93910646Y-87318434D01*
X93910490Y-87318476D01*
X93910485Y-87318730D01*
X93877313Y-87379482D01*
X93878733Y-87399337D01*
X93877859Y-87401136D01*
X93876039Y-87401354D01*
X93842166Y-87388720D01*
X93817426Y-87389457D01*
X93807944Y-87390706D01*
X93744335Y-87418847D01*
X93706201Y-87476662D01*
X93705379Y-87545948D01*
X93736925Y-87599845D01*
X93740823Y-87603743D01*
X93801872Y-87637077D01*
X93871031Y-87632131D01*
X93915128Y-87603792D01*
X93920354Y-87598566D01*
X93920510Y-87598524D01*
X93920515Y-87598270D01*
X93953687Y-87537518D01*
X93952267Y-87517663D01*
X93953141Y-87515864D01*
X93954961Y-87515646D01*
X93988834Y-87528280D01*
X94013569Y-87527544D01*
X94061688Y-87521210D01*
X94063536Y-87521976D01*
X94063797Y-87523958D01*
X94062339Y-87525155D01*
X94001860Y-87537185D01*
X93937314Y-87580314D01*
X93923933Y-87600339D01*
X93923522Y-87600542D01*
X93923431Y-87601091D01*
X93894185Y-87644860D01*
X93879000Y-87721199D01*
X93879000Y-88370801D01*
X93894185Y-88447140D01*
X93923431Y-88490909D01*
X93923562Y-88492905D01*
X93921899Y-88494016D01*
X93920354Y-88493434D01*
X93915177Y-88488257D01*
X93854128Y-88454923D01*
X93784969Y-88459869D01*
X93740872Y-88488208D01*
X93735646Y-88493434D01*
X93733714Y-88493952D01*
X93732300Y-88492538D01*
X93732569Y-88490909D01*
X93761815Y-88447140D01*
X93777000Y-88370801D01*
X93777000Y-87721199D01*
X93761815Y-87644860D01*
X93718686Y-87580314D01*
X93654140Y-87537185D01*
X93577801Y-87522000D01*
X93278199Y-87522000D01*
X93201860Y-87537185D01*
X93137314Y-87580314D01*
X93111349Y-87619172D01*
X93109555Y-87620057D01*
X93107892Y-87618946D01*
X93107873Y-87617216D01*
X93113115Y-87605975D01*
X93113514Y-87605406D01*
X93119054Y-87599866D01*
X93152388Y-87538817D01*
X93147448Y-87469735D01*
X93105923Y-87414264D01*
X93070517Y-87399845D01*
X93069944Y-87399108D01*
X93044880Y-87387420D01*
X93043733Y-87385781D01*
X93044578Y-87383969D01*
X93046115Y-87383645D01*
X93103199Y-87395000D01*
X93752801Y-87395000D01*
X93829140Y-87379815D01*
X93893686Y-87336686D01*
X93907067Y-87316661D01*
X93907478Y-87316458D01*
X93907569Y-87315909D01*
X93919651Y-87297828D01*
X93921445Y-87296943D01*
X93923108Y-87298054D01*
G37*
G36*
X96935646Y-85598566D02*
G01*
X96940823Y-85603743D01*
X97001872Y-85637077D01*
X97071031Y-85632131D01*
X97115128Y-85603792D01*
X97120354Y-85598566D01*
X97122286Y-85598048D01*
X97123700Y-85599462D01*
X97123431Y-85601091D01*
X97094185Y-85644860D01*
X97079000Y-85721199D01*
X97079000Y-86370801D01*
X97094185Y-86447140D01*
X97137314Y-86511686D01*
X97201860Y-86554815D01*
X97278199Y-86570000D01*
X97577801Y-86570000D01*
X97654140Y-86554815D01*
X97718686Y-86511686D01*
X97744651Y-86472828D01*
X97746445Y-86471943D01*
X97748108Y-86473054D01*
X97748127Y-86474784D01*
X97742885Y-86486025D01*
X97742486Y-86486594D01*
X97736946Y-86492134D01*
X97703612Y-86553183D01*
X97708552Y-86622265D01*
X97750077Y-86677736D01*
X97785483Y-86692155D01*
X97786056Y-86692892D01*
X97811120Y-86704580D01*
X97812267Y-86706219D01*
X97811422Y-86708031D01*
X97809885Y-86708355D01*
X97752801Y-86697000D01*
X97103199Y-86697000D01*
X97026860Y-86712185D01*
X96962314Y-86755314D01*
X96948933Y-86775339D01*
X96948522Y-86775542D01*
X96948431Y-86776091D01*
X96936349Y-86794172D01*
X96934555Y-86795057D01*
X96932892Y-86793946D01*
X96932873Y-86792216D01*
X96938115Y-86780975D01*
X96938514Y-86780406D01*
X96945354Y-86773566D01*
X96945510Y-86773524D01*
X96945515Y-86773270D01*
X96978687Y-86712518D01*
X96977267Y-86692663D01*
X96978141Y-86690864D01*
X96979961Y-86690646D01*
X97013834Y-86703280D01*
X97038574Y-86702543D01*
X97048056Y-86701294D01*
X97111665Y-86673153D01*
X97149799Y-86615338D01*
X97150621Y-86546052D01*
X97119075Y-86492155D01*
X97115177Y-86488257D01*
X97054128Y-86454923D01*
X96984969Y-86459869D01*
X96940872Y-86488208D01*
X96935646Y-86493434D01*
X96935490Y-86493476D01*
X96935485Y-86493730D01*
X96902313Y-86554482D01*
X96903733Y-86574337D01*
X96902859Y-86576136D01*
X96901039Y-86576354D01*
X96867166Y-86563720D01*
X96842431Y-86564456D01*
X96794312Y-86570790D01*
X96792464Y-86570024D01*
X96792203Y-86568042D01*
X96793661Y-86566845D01*
X96854140Y-86554815D01*
X96918686Y-86511686D01*
X96932067Y-86491661D01*
X96932478Y-86491458D01*
X96932569Y-86490909D01*
X96961815Y-86447140D01*
X96977000Y-86370801D01*
X96977000Y-85721199D01*
X96961815Y-85644860D01*
X96932569Y-85601091D01*
X96932438Y-85599095D01*
X96934101Y-85597984D01*
X96935646Y-85598566D01*
G37*
G36*
X93735646Y-85598566D02*
G01*
X93740823Y-85603743D01*
X93801872Y-85637077D01*
X93871031Y-85632131D01*
X93915128Y-85603792D01*
X93920354Y-85598566D01*
X93922286Y-85598048D01*
X93923700Y-85599462D01*
X93923431Y-85601091D01*
X93894185Y-85644860D01*
X93879000Y-85721199D01*
X93879000Y-86370801D01*
X93894185Y-86447140D01*
X93923431Y-86490909D01*
X93923562Y-86492905D01*
X93921899Y-86494016D01*
X93920354Y-86493434D01*
X93915177Y-86488257D01*
X93854128Y-86454923D01*
X93784969Y-86459869D01*
X93740872Y-86488208D01*
X93736946Y-86492134D01*
X93703612Y-86553183D01*
X93708552Y-86622265D01*
X93750077Y-86677736D01*
X93807912Y-86701290D01*
X93817240Y-86702519D01*
X93874479Y-86693594D01*
X93876344Y-86694315D01*
X93876699Y-86694984D01*
X93893939Y-86751214D01*
X93893491Y-86753163D01*
X93891579Y-86753749D01*
X93890916Y-86753463D01*
X93829140Y-86712185D01*
X93752801Y-86697000D01*
X93103199Y-86697000D01*
X93046115Y-86708355D01*
X93044221Y-86707712D01*
X93043831Y-86705750D01*
X93044880Y-86704580D01*
X93069235Y-86693223D01*
X93069325Y-86692200D01*
X93070154Y-86691518D01*
X93111662Y-86673156D01*
X93149798Y-86615342D01*
X93150623Y-86546056D01*
X93119075Y-86492155D01*
X93113514Y-86486594D01*
X93113115Y-86486025D01*
X93107873Y-86474783D01*
X93108048Y-86472791D01*
X93109860Y-86471946D01*
X93111349Y-86472827D01*
X93137314Y-86511686D01*
X93201860Y-86554815D01*
X93278199Y-86570000D01*
X93577801Y-86570000D01*
X93654140Y-86554815D01*
X93718686Y-86511686D01*
X93761815Y-86447140D01*
X93777000Y-86370801D01*
X93777000Y-85721199D01*
X93761815Y-85644860D01*
X93732569Y-85601091D01*
X93732438Y-85599095D01*
X93734101Y-85597984D01*
X93735646Y-85598566D01*
G37*
G36*
X96135646Y-85598566D02*
G01*
X96140823Y-85603743D01*
X96201872Y-85637077D01*
X96271031Y-85632131D01*
X96315128Y-85603792D01*
X96320354Y-85598566D01*
X96322286Y-85598048D01*
X96323700Y-85599462D01*
X96323431Y-85601091D01*
X96294185Y-85644860D01*
X96279000Y-85721199D01*
X96279000Y-86370801D01*
X96294185Y-86447140D01*
X96323431Y-86490909D01*
X96323562Y-86492905D01*
X96321899Y-86494016D01*
X96320354Y-86493434D01*
X96315177Y-86488257D01*
X96254128Y-86454923D01*
X96184969Y-86459869D01*
X96140872Y-86488208D01*
X96135646Y-86493434D01*
X96133714Y-86493952D01*
X96132300Y-86492538D01*
X96132569Y-86490909D01*
X96161815Y-86447140D01*
X96177000Y-86370801D01*
X96177000Y-85721199D01*
X96161815Y-85644860D01*
X96132569Y-85601091D01*
X96132438Y-85599095D01*
X96134101Y-85597984D01*
X96135646Y-85598566D01*
G37*
G36*
X95335646Y-85598566D02*
G01*
X95340823Y-85603743D01*
X95401872Y-85637077D01*
X95471031Y-85632131D01*
X95515128Y-85603792D01*
X95520354Y-85598566D01*
X95522286Y-85598048D01*
X95523700Y-85599462D01*
X95523431Y-85601091D01*
X95494185Y-85644860D01*
X95479000Y-85721199D01*
X95479000Y-86370801D01*
X95494185Y-86447140D01*
X95523431Y-86490909D01*
X95523562Y-86492905D01*
X95521899Y-86494016D01*
X95520354Y-86493434D01*
X95515177Y-86488257D01*
X95454128Y-86454923D01*
X95384969Y-86459869D01*
X95340872Y-86488208D01*
X95335646Y-86493434D01*
X95333714Y-86493952D01*
X95332300Y-86492538D01*
X95332569Y-86490909D01*
X95361815Y-86447140D01*
X95377000Y-86370801D01*
X95377000Y-85721199D01*
X95361815Y-85644860D01*
X95332569Y-85601091D01*
X95332438Y-85599095D01*
X95334101Y-85597984D01*
X95335646Y-85598566D01*
G37*
G36*
X94535646Y-85598566D02*
G01*
X94540823Y-85603743D01*
X94601872Y-85637077D01*
X94671031Y-85632131D01*
X94715128Y-85603792D01*
X94720354Y-85598566D01*
X94722286Y-85598048D01*
X94723700Y-85599462D01*
X94723431Y-85601091D01*
X94694185Y-85644860D01*
X94679000Y-85721199D01*
X94679000Y-86370801D01*
X94694185Y-86447140D01*
X94723431Y-86490909D01*
X94723562Y-86492905D01*
X94721899Y-86494016D01*
X94720354Y-86493434D01*
X94715177Y-86488257D01*
X94654128Y-86454923D01*
X94584969Y-86459869D01*
X94540872Y-86488208D01*
X94535646Y-86493434D01*
X94533714Y-86493952D01*
X94532300Y-86492538D01*
X94532569Y-86490909D01*
X94561815Y-86447140D01*
X94577000Y-86370801D01*
X94577000Y-85721199D01*
X94561815Y-85644860D01*
X94532569Y-85601091D01*
X94532438Y-85599095D01*
X94534101Y-85597984D01*
X94535646Y-85598566D01*
G37*
G36*
X103675527Y-85872000D02*
G01*
X103675527Y-85874000D01*
X103674056Y-85874983D01*
X103673817Y-85875015D01*
X103610204Y-85903154D01*
X103572070Y-85960965D01*
X103571244Y-86030220D01*
X103607983Y-86088914D01*
X103673825Y-86118985D01*
X103674068Y-86119017D01*
X103675655Y-86120235D01*
X103675394Y-86122218D01*
X103673807Y-86123000D01*
X102665205Y-86123000D01*
X102663473Y-86122000D01*
X102663473Y-86120000D01*
X102664944Y-86119017D01*
X102665183Y-86118985D01*
X102728796Y-86090846D01*
X102766930Y-86033035D01*
X102767756Y-85963780D01*
X102731017Y-85905086D01*
X102665175Y-85875015D01*
X102664932Y-85874983D01*
X102663345Y-85873765D01*
X102663606Y-85871782D01*
X102665193Y-85871000D01*
X103673795Y-85871000D01*
X103675527Y-85872000D01*
G37*
G36*
X103675527Y-84922000D02*
G01*
X103675527Y-84924000D01*
X103674056Y-84924983D01*
X103673817Y-84925015D01*
X103610204Y-84953154D01*
X103572070Y-85010965D01*
X103571244Y-85080220D01*
X103607983Y-85138914D01*
X103673825Y-85168985D01*
X103674068Y-85169017D01*
X103675655Y-85170235D01*
X103675394Y-85172218D01*
X103673807Y-85173000D01*
X102665205Y-85173000D01*
X102663473Y-85172000D01*
X102663473Y-85170000D01*
X102664944Y-85169017D01*
X102665183Y-85168985D01*
X102728796Y-85140846D01*
X102766930Y-85083035D01*
X102767756Y-85013780D01*
X102731017Y-84955086D01*
X102665175Y-84925015D01*
X102664932Y-84924983D01*
X102663345Y-84923765D01*
X102663606Y-84921782D01*
X102665193Y-84921000D01*
X103673795Y-84921000D01*
X103675527Y-84922000D01*
G37*
M02*
