M48
; DRILL file {KiCad (6.0.1)} date Tue Jan 25 19:41:39 2022
; FORMAT={-:-/ absolute / inch / decimal}
; #@! TF.CreationDate,2022-01-25T19:41:39+01:00
; #@! TF.GenerationSoftware,Kicad,Pcbnew,(6.0.1)
; #@! TF.FileFunction,Plated,1,2,PTH
FMAT,2
INCH
; #@! TA.AperFunction,Plated,PTH,ViaDrill
T1C0.0118
; #@! TA.AperFunction,Plated,PTH,ComponentDrill
T2C0.0374
; #@! TA.AperFunction,Plated,PTH,ComponentDrill
T3C0.0394
; #@! TA.AperFunction,Plated,PTH,ComponentDrill
T4C0.0402
%
G90
G05
T1
X3.142Y-4.1257
X3.563Y-3.3661
X3.5821Y-4.2322
X3.602Y-3.332
X3.6614Y-4.2323
X3.707Y-3.347
X3.737Y-3.347
X3.767Y-3.347
X3.797Y-3.347
X3.877Y-3.222
X3.937Y-3.222
X3.937Y-3.367
X3.972Y-3.367
X3.997Y-3.222
X4.007Y-3.367
X4.092Y-3.267
X4.092Y-3.467
X4.117Y-3.292
X4.117Y-3.442
X4.157Y-3.292
X4.157Y-3.442
X4.2126Y-4.2323
X4.277Y-3.332
X4.277Y-3.442
X4.277Y-3.497
X4.2913Y-4.2323
X4.311Y-3.3661
X4.637Y-3.7107
X4.712Y-3.7657
X4.742Y-4.1157
T2
X3.7902Y-4.2357
X3.8886Y-4.2357
X3.987Y-4.2357
X4.0854Y-4.2357
T3
X3.3636Y-3.9357
X3.3636Y-4.2357
X3.462Y-3.9357
X3.462Y-4.2357
X3.7136Y-3.9357
X3.812Y-3.9357
X4.062Y-3.9357
X4.1604Y-3.9357
X4.4136Y-3.9357
X4.4136Y-4.2357
X4.512Y-3.9357
X4.512Y-4.2357
T4
X3.4055Y-3.617
X3.4055Y-3.7351
X3.5236Y-3.617
X3.5236Y-3.7351
X3.6417Y-3.617
X3.6417Y-3.7351
X3.7598Y-3.617
X3.7598Y-3.7351
X3.878Y-3.617
X3.878Y-3.7351
X3.9961Y-3.617
X3.9961Y-3.7351
X4.1142Y-3.617
X4.1142Y-3.7351
X4.2323Y-3.617
X4.2323Y-3.7351
X4.3504Y-3.617
X4.3504Y-3.7351
X4.4685Y-3.617
X4.4685Y-3.7351
T0
M30
