%TF.GenerationSoftware,KiCad,Pcbnew,(6.0.4-0)*%
%TF.CreationDate,2022-03-28T23:15:47-05:00*%
%TF.ProjectId,Toolhead_PCB,546f6f6c-6865-4616-945f-5043422e6b69,rev?*%
%TF.SameCoordinates,Original*%
%TF.FileFunction,Copper,L1,Top*%
%TF.FilePolarity,Positive*%
%FSLAX46Y46*%
G04 Gerber Fmt 4.6, Leading zero omitted, Abs format (unit mm)*
G04 Created by KiCad (PCBNEW (6.0.4-0)) date 2022-03-28 23:15:47*
%MOMM*%
%LPD*%
G01*
G04 APERTURE LIST*
G04 Aperture macros list*
%AMRoundRect*
0 Rectangle with rounded corners*
0 $1 Rounding radius*
0 $2 $3 $4 $5 $6 $7 $8 $9 X,Y pos of 4 corners*
0 Add a 4 corners polygon primitive as box body*
4,1,4,$2,$3,$4,$5,$6,$7,$8,$9,$2,$3,0*
0 Add four circle primitives for the rounded corners*
1,1,$1+$1,$2,$3*
1,1,$1+$1,$4,$5*
1,1,$1+$1,$6,$7*
1,1,$1+$1,$8,$9*
0 Add four rect primitives between the rounded corners*
20,1,$1+$1,$2,$3,$4,$5,0*
20,1,$1+$1,$4,$5,$6,$7,0*
20,1,$1+$1,$6,$7,$8,$9,0*
20,1,$1+$1,$8,$9,$2,$3,0*%
G04 Aperture macros list end*
%TA.AperFunction,ComponentPad*%
%ADD10RoundRect,0.250001X-0.499999X-0.499999X0.499999X-0.499999X0.499999X0.499999X-0.499999X0.499999X0*%
%TD*%
%TA.AperFunction,ComponentPad*%
%ADD11C,1.500000*%
%TD*%
%TA.AperFunction,ComponentPad*%
%ADD12RoundRect,0.250000X0.600000X0.750000X-0.600000X0.750000X-0.600000X-0.750000X0.600000X-0.750000X0*%
%TD*%
%TA.AperFunction,ComponentPad*%
%ADD13O,1.700000X2.000000*%
%TD*%
%TA.AperFunction,ComponentPad*%
%ADD14RoundRect,0.250000X0.600000X0.725000X-0.600000X0.725000X-0.600000X-0.725000X0.600000X-0.725000X0*%
%TD*%
%TA.AperFunction,ComponentPad*%
%ADD15O,1.700000X1.950000*%
%TD*%
%TA.AperFunction,ViaPad*%
%ADD16C,0.600000*%
%TD*%
%TA.AperFunction,Conductor*%
%ADD17C,0.500000*%
%TD*%
%TA.AperFunction,Conductor*%
%ADD18C,1.500000*%
%TD*%
G04 APERTURE END LIST*
D10*
%TO.P,J1,1,Pin_1*%
%TO.N,GND1*%
X86500000Y-91872000D03*
D11*
%TO.P,J1,2,Pin_2*%
%TO.N,/ADXL_SDO*%
X89500000Y-91872000D03*
%TO.P,J1,3,Pin_3*%
%TO.N,/ADXL_CS*%
X92500000Y-91872000D03*
%TO.P,J1,4,Pin_4*%
%TO.N,/Motor_A1*%
X95500000Y-91872000D03*
%TO.P,J1,5,Pin_5*%
%TO.N,/Motor_A2*%
X98500000Y-91872000D03*
%TO.P,J1,6,Pin_6*%
%TO.N,/Motor_B1*%
X101500000Y-91872000D03*
%TO.P,J1,7,Pin_7*%
%TO.N,/Motor_B2*%
X104500000Y-91872000D03*
%TO.P,J1,8,Pin_8*%
%TO.N,GND*%
X107500000Y-91872000D03*
%TO.P,J1,9,Pin_9*%
%TO.N,/Heater2*%
X110500000Y-91872000D03*
%TO.P,J1,10,Pin_10*%
%TO.N,/Heater1*%
X113500000Y-91872000D03*
%TO.P,J1,11,Pin_11*%
%TO.N,/ADXL_SCLK*%
X86500000Y-94872000D03*
%TO.P,J1,12,Pin_12*%
%TO.N,/ADXL_SDI*%
X89500000Y-94872000D03*
%TO.P,J1,13,Pin_13*%
%TO.N,VCC*%
X92500000Y-94872000D03*
%TO.P,J1,14,Pin_14*%
%TO.N,/Endstop_Sig*%
X95500000Y-94872000D03*
%TO.P,J1,15,Pin_15*%
%TO.N,/PartFan+*%
X98500000Y-94872000D03*
%TO.P,J1,16,Pin_16*%
%TO.N,/PartFan-*%
X101500000Y-94872000D03*
%TO.P,J1,17,Pin_17*%
%TO.N,/Hotend_Fan-*%
X104500000Y-94872000D03*
%TO.P,J1,18,Pin_18*%
%TO.N,/Hotend_Fan+*%
X107500000Y-94872000D03*
%TO.P,J1,19,Pin_19*%
%TO.N,/Thermistor_1*%
X110500000Y-94872000D03*
%TO.P,J1,20,Pin_20*%
%TO.N,/Thermistor_2*%
X113500000Y-94872000D03*
%TD*%
D12*
%TO.P,J7,1,Pin_1*%
%TO.N,GND*%
X96825000Y-99966000D03*
D13*
%TO.P,J7,2,Pin_2*%
%TO.N,/Endstop_Sig*%
X94325000Y-99966000D03*
%TD*%
D12*
%TO.P,J5,1,Pin_1*%
%TO.N,/Heater1*%
X114605000Y-99966000D03*
D13*
%TO.P,J5,2,Pin_2*%
%TO.N,/Heater2*%
X112105000Y-99966000D03*
%TD*%
D12*
%TO.P,J3,1,Pin_1*%
%TO.N,/Hotend_Fan-*%
X105675000Y-99966000D03*
D13*
%TO.P,J3,2,Pin_2*%
%TO.N,/Hotend_Fan+*%
X103175000Y-99966000D03*
%TD*%
D12*
%TO.P,J6,1,Pin_1*%
%TO.N,/Thermistor_1*%
X87935000Y-99966000D03*
D13*
%TO.P,J6,2,Pin_2*%
%TO.N,/Thermistor_2*%
X85435000Y-99966000D03*
%TD*%
D12*
%TO.P,J4,1,Pin_1*%
%TO.N,/PartFan-*%
X87935000Y-107586000D03*
D13*
%TO.P,J4,2,Pin_2*%
%TO.N,/PartFan+*%
X85435000Y-107586000D03*
%TD*%
D14*
%TO.P,J2,1,Pin_1*%
%TO.N,/Motor_B2*%
X103770000Y-107586000D03*
D15*
%TO.P,J2,2,Pin_2*%
%TO.N,/Motor_B1*%
X101270000Y-107586000D03*
%TO.P,J2,3,Pin_3*%
%TO.N,/Motor_A2*%
X98770000Y-107586000D03*
%TO.P,J2,4,Pin_4*%
%TO.N,/Motor_A1*%
X96270000Y-107586000D03*
%TD*%
D12*
%TO.P,J8,1,Pin_1*%
%TO.N,/PartFan-*%
X114605000Y-107586000D03*
D13*
%TO.P,J8,2,Pin_2*%
%TO.N,/PartFan+*%
X112105000Y-107586000D03*
%TD*%
D16*
%TO.N,GND*%
X93000000Y-107500000D03*
X107000000Y-107500000D03*
X90985974Y-107496687D03*
X120447000Y-104538000D03*
X109000000Y-107500000D03*
X117780000Y-94251000D03*
X79807000Y-104792000D03*
X119685000Y-95648000D03*
%TO.N,GND1*%
X101778000Y-85522000D03*
X100000000Y-85522000D03*
X91491000Y-84633000D03*
X108636000Y-87427000D03*
X95682000Y-85014000D03*
X101524000Y-81839000D03*
X109500000Y-85500000D03*
X96444000Y-85014000D03*
X100889000Y-85522000D03*
X94920000Y-85014000D03*
X108636000Y-88824000D03*
X100000000Y-81839000D03*
X90500000Y-85500000D03*
X103937000Y-88062000D03*
X104572000Y-87427000D03*
X105588000Y-83617000D03*
X108636000Y-84633000D03*
X94158000Y-85014000D03*
X105588000Y-87427000D03*
X98476000Y-81839000D03*
X103937000Y-82982000D03*
X104572000Y-83617000D03*
%TD*%
D17*
%TO.N,/Hotend_Fan+*%
X103175000Y-99966000D02*
X103175000Y-99197000D01*
X103175000Y-99197000D02*
X107500000Y-94872000D01*
%TO.N,/Hotend_Fan-*%
X101524000Y-101016000D02*
X102032000Y-101524000D01*
X104117000Y-101524000D02*
X105675000Y-99966000D01*
X101524000Y-98984000D02*
X101524000Y-101016000D01*
X104500000Y-96008000D02*
X101524000Y-98984000D01*
X104500000Y-96008000D02*
X104500000Y-94872000D01*
X102032000Y-101524000D02*
X104117000Y-101524000D01*
%TO.N,/PartFan-*%
X113940520Y-109250480D02*
X114605000Y-108586000D01*
X83555010Y-98630990D02*
X84218000Y-97968000D01*
X84218000Y-97968000D02*
X98404000Y-97968000D01*
X87935000Y-107586000D02*
X89599480Y-109250480D01*
X114605000Y-108586000D02*
X114605000Y-107586000D01*
X87935000Y-107586000D02*
X83555010Y-103206010D01*
X83555010Y-103206010D02*
X83555010Y-98630990D01*
X89599480Y-109250480D02*
X113940520Y-109250480D01*
X98404000Y-97968000D02*
X101500000Y-94872000D01*
%TO.N,/PartFan+*%
X83744000Y-96698000D02*
X97968000Y-96698000D01*
X82220000Y-98222000D02*
X83744000Y-96698000D01*
X97968000Y-96698000D02*
X98500000Y-96166000D01*
X85435000Y-106796400D02*
X82220000Y-103581400D01*
X85435000Y-107586000D02*
X85435000Y-106796400D01*
X82220000Y-103581400D02*
X82220000Y-98222000D01*
X98500000Y-96166000D02*
X98500000Y-94872000D01*
%TO.N,/Thermistor_2*%
X85435000Y-99966000D02*
X85435000Y-101437000D01*
X111928000Y-96444000D02*
X113500000Y-94872000D01*
X109000000Y-101761000D02*
X109000000Y-97858000D01*
X88409000Y-104411000D02*
X106350000Y-104411000D01*
X85435000Y-101437000D02*
X88409000Y-104411000D01*
X109000000Y-97858000D02*
X110414000Y-96444000D01*
X110414000Y-96444000D02*
X111928000Y-96444000D01*
X106350000Y-104411000D02*
X109000000Y-101761000D01*
%TO.N,/Thermistor_1*%
X105715000Y-103141000D02*
X107620000Y-101236000D01*
X107620000Y-97752000D02*
X110500000Y-94872000D01*
X87935000Y-101236000D02*
X89840000Y-103141000D01*
X87935000Y-99966000D02*
X87935000Y-101236000D01*
X107620000Y-101236000D02*
X107620000Y-97752000D01*
X89840000Y-103141000D02*
X105715000Y-103141000D01*
D18*
%TO.N,/Heater2*%
X114732000Y-97460000D02*
X115748000Y-96444000D01*
X112105000Y-98817000D02*
X113462000Y-97460000D01*
X112105000Y-99966000D02*
X112105000Y-98817000D01*
X115748000Y-96444000D02*
X115748000Y-91364000D01*
X113462000Y-97460000D02*
X114732000Y-97460000D01*
X115748000Y-91364000D02*
X114384000Y-90000000D01*
X114384000Y-90000000D02*
X112372000Y-90000000D01*
X112372000Y-90000000D02*
X110500000Y-91872000D01*
%TD*%
%TA.AperFunction,Conductor*%
%TO.N,GND*%
G36*
X82756250Y-96397002D02*
G01*
X82802743Y-96450658D01*
X82812847Y-96520932D01*
X82783353Y-96585512D01*
X82777224Y-96592095D01*
X81731089Y-97638230D01*
X81716677Y-97650616D01*
X81705082Y-97659149D01*
X81705077Y-97659154D01*
X81699182Y-97663492D01*
X81694443Y-97669070D01*
X81694440Y-97669073D01*
X81664965Y-97703768D01*
X81658035Y-97711284D01*
X81652340Y-97716979D01*
X81650060Y-97719861D01*
X81634719Y-97739251D01*
X81631928Y-97742655D01*
X81614456Y-97763221D01*
X81584667Y-97798285D01*
X81581339Y-97804801D01*
X81577972Y-97809850D01*
X81574805Y-97814979D01*
X81570266Y-97820716D01*
X81539345Y-97886875D01*
X81537442Y-97890769D01*
X81504231Y-97955808D01*
X81502492Y-97962916D01*
X81500393Y-97968559D01*
X81498476Y-97974322D01*
X81495378Y-97980950D01*
X81493888Y-97988112D01*
X81493888Y-97988113D01*
X81480514Y-98052412D01*
X81479544Y-98056696D01*
X81462192Y-98127610D01*
X81461500Y-98138764D01*
X81461464Y-98138762D01*
X81461225Y-98142755D01*
X81460851Y-98146947D01*
X81459360Y-98154115D01*
X81460392Y-98192250D01*
X81461454Y-98231521D01*
X81461500Y-98234928D01*
X81461500Y-103514330D01*
X81460067Y-103533280D01*
X81456801Y-103554749D01*
X81457394Y-103562041D01*
X81457394Y-103562044D01*
X81461085Y-103607418D01*
X81461500Y-103617633D01*
X81461500Y-103625693D01*
X81461925Y-103629337D01*
X81464789Y-103653907D01*
X81465222Y-103658282D01*
X81471140Y-103731037D01*
X81473396Y-103738001D01*
X81474587Y-103743960D01*
X81475971Y-103749815D01*
X81476818Y-103757081D01*
X81501735Y-103825727D01*
X81503152Y-103829855D01*
X81525649Y-103899299D01*
X81529445Y-103905554D01*
X81531951Y-103911028D01*
X81534670Y-103916458D01*
X81537167Y-103923337D01*
X81541180Y-103929457D01*
X81541180Y-103929458D01*
X81577186Y-103984376D01*
X81579523Y-103988080D01*
X81617405Y-104050507D01*
X81621121Y-104054715D01*
X81621122Y-104054716D01*
X81624803Y-104058884D01*
X81624776Y-104058908D01*
X81627429Y-104061900D01*
X81630132Y-104065133D01*
X81634144Y-104071252D01*
X81639456Y-104076284D01*
X81690383Y-104124528D01*
X81692825Y-104126906D01*
X84213805Y-106647886D01*
X84247831Y-106710198D01*
X84242766Y-106781013D01*
X84234212Y-106799312D01*
X84197325Y-106864114D01*
X84118663Y-107080825D01*
X84117714Y-107086074D01*
X84117713Y-107086077D01*
X84078377Y-107303608D01*
X84078376Y-107303615D01*
X84077639Y-107307692D01*
X84077444Y-107311837D01*
X84076653Y-107328608D01*
X84076500Y-107331844D01*
X84076500Y-107793890D01*
X84076725Y-107796539D01*
X84089397Y-107945881D01*
X84091080Y-107965720D01*
X84092418Y-107970875D01*
X84092419Y-107970881D01*
X84142510Y-108163872D01*
X84148999Y-108188872D01*
X84151191Y-108193738D01*
X84151192Y-108193741D01*
X84183339Y-108265105D01*
X84243688Y-108399075D01*
X84372441Y-108590319D01*
X84376120Y-108594176D01*
X84376122Y-108594178D01*
X84437710Y-108658738D01*
X84531576Y-108757135D01*
X84716542Y-108894754D01*
X84721293Y-108897170D01*
X84721297Y-108897172D01*
X84784481Y-108929296D01*
X84922051Y-108999240D01*
X84927145Y-109000822D01*
X84927148Y-109000823D01*
X85127020Y-109062885D01*
X85142227Y-109067607D01*
X85147516Y-109068308D01*
X85365489Y-109097198D01*
X85365494Y-109097198D01*
X85370774Y-109097898D01*
X85376103Y-109097698D01*
X85376105Y-109097698D01*
X85485966Y-109093574D01*
X85601158Y-109089249D01*
X85623802Y-109084498D01*
X85821572Y-109043002D01*
X85826791Y-109041907D01*
X85831750Y-109039949D01*
X85831752Y-109039948D01*
X86036256Y-108959185D01*
X86036258Y-108959184D01*
X86041221Y-108957224D01*
X86077343Y-108935305D01*
X86233757Y-108840390D01*
X86233756Y-108840390D01*
X86238317Y-108837623D01*
X86278134Y-108803072D01*
X86408412Y-108690023D01*
X86408414Y-108690021D01*
X86412445Y-108686523D01*
X86441670Y-108650880D01*
X86500329Y-108610886D01*
X86571299Y-108608954D01*
X86632048Y-108645698D01*
X86646248Y-108664468D01*
X86677385Y-108714784D01*
X86736522Y-108810348D01*
X86861697Y-108935305D01*
X86867927Y-108939145D01*
X86867928Y-108939146D01*
X87005090Y-109023694D01*
X87012262Y-109028115D01*
X87047938Y-109039948D01*
X87173611Y-109081632D01*
X87173613Y-109081632D01*
X87180139Y-109083797D01*
X87186975Y-109084497D01*
X87186978Y-109084498D01*
X87222663Y-109088154D01*
X87284600Y-109094500D01*
X88318629Y-109094500D01*
X88386750Y-109114502D01*
X88407724Y-109131405D01*
X88552724Y-109276405D01*
X88586750Y-109338717D01*
X88581685Y-109409532D01*
X88539138Y-109466368D01*
X88472618Y-109491179D01*
X88463629Y-109491500D01*
X82170825Y-109491500D01*
X82151437Y-109489999D01*
X82136611Y-109487690D01*
X82136604Y-109487690D01*
X82127736Y-109486309D01*
X82118834Y-109487473D01*
X82118832Y-109487473D01*
X82110126Y-109488611D01*
X82086464Y-109489461D01*
X81994641Y-109484112D01*
X81839530Y-109475075D01*
X81824992Y-109473375D01*
X81554107Y-109425606D01*
X81539864Y-109422231D01*
X81432020Y-109389943D01*
X81276359Y-109343338D01*
X81262591Y-109338327D01*
X81119043Y-109276405D01*
X81010014Y-109229373D01*
X80996936Y-109222804D01*
X80758730Y-109085272D01*
X80746493Y-109077224D01*
X80733576Y-109067607D01*
X80525859Y-108912964D01*
X80514636Y-108903547D01*
X80501940Y-108891568D01*
X80421337Y-108815521D01*
X80314565Y-108714784D01*
X80304511Y-108704127D01*
X80286275Y-108682394D01*
X80127709Y-108493419D01*
X80118966Y-108481674D01*
X79986939Y-108280932D01*
X79974701Y-108257163D01*
X79974626Y-108256969D01*
X79974624Y-108256966D01*
X79971385Y-108248593D01*
X79952027Y-108223319D01*
X79942938Y-108209703D01*
X79177815Y-106884471D01*
X75946928Y-101288411D01*
X75938536Y-101270876D01*
X75933156Y-101256970D01*
X75933156Y-101256969D01*
X75929917Y-101248598D01*
X75919101Y-101234477D01*
X75906546Y-101214433D01*
X75903274Y-101207920D01*
X75795868Y-100994147D01*
X75790079Y-100980739D01*
X75787688Y-100974178D01*
X75696145Y-100723066D01*
X75691947Y-100709079D01*
X75689546Y-100698984D01*
X75628472Y-100442263D01*
X75625920Y-100427879D01*
X75624220Y-100413478D01*
X75601391Y-100220156D01*
X75593757Y-100155508D01*
X75592888Y-100140924D01*
X75592875Y-100132703D01*
X75970743Y-100132703D01*
X76008268Y-100417734D01*
X76009401Y-100421874D01*
X76009401Y-100421876D01*
X76019450Y-100458608D01*
X76084129Y-100695036D01*
X76085813Y-100698984D01*
X76192425Y-100948930D01*
X76196923Y-100959476D01*
X76257261Y-101060293D01*
X76340008Y-101198553D01*
X76344561Y-101206161D01*
X76524313Y-101430528D01*
X76732851Y-101628423D01*
X76880133Y-101734256D01*
X76952099Y-101785969D01*
X76966317Y-101796186D01*
X76970112Y-101798195D01*
X76970113Y-101798196D01*
X76991869Y-101809715D01*
X77220392Y-101930712D01*
X77490373Y-102029511D01*
X77771264Y-102090755D01*
X77799841Y-102093004D01*
X77994282Y-102108307D01*
X77994291Y-102108307D01*
X77996739Y-102108500D01*
X78152271Y-102108500D01*
X78154407Y-102108354D01*
X78154418Y-102108354D01*
X78362548Y-102094165D01*
X78362554Y-102094164D01*
X78366825Y-102093873D01*
X78371020Y-102093004D01*
X78371022Y-102093004D01*
X78573007Y-102051175D01*
X78648342Y-102035574D01*
X78919343Y-101939607D01*
X79082511Y-101855390D01*
X79171005Y-101809715D01*
X79171006Y-101809715D01*
X79174812Y-101807750D01*
X79178313Y-101805289D01*
X79178317Y-101805287D01*
X79327684Y-101700310D01*
X79410023Y-101642441D01*
X79488403Y-101569606D01*
X79617479Y-101449661D01*
X79617481Y-101449658D01*
X79620622Y-101446740D01*
X79802713Y-101224268D01*
X79945730Y-100990886D01*
X79950686Y-100982799D01*
X79952927Y-100979142D01*
X80068483Y-100715898D01*
X80070426Y-100709079D01*
X80146068Y-100443534D01*
X80147244Y-100439406D01*
X80185032Y-100173890D01*
X80187146Y-100159036D01*
X80187146Y-100159034D01*
X80187751Y-100154784D01*
X80187786Y-100148244D01*
X80189235Y-99871583D01*
X80189235Y-99871576D01*
X80189257Y-99867297D01*
X80187254Y-99852078D01*
X80166157Y-99691837D01*
X80151732Y-99582266D01*
X80149019Y-99572347D01*
X80077003Y-99309103D01*
X80075871Y-99304964D01*
X80015041Y-99162350D01*
X79964763Y-99044476D01*
X79964761Y-99044472D01*
X79963077Y-99040524D01*
X79876111Y-98895215D01*
X79817643Y-98797521D01*
X79817640Y-98797517D01*
X79815439Y-98793839D01*
X79635687Y-98569472D01*
X79457343Y-98400230D01*
X79430258Y-98374527D01*
X79430255Y-98374525D01*
X79427149Y-98371577D01*
X79193683Y-98203814D01*
X79171843Y-98192250D01*
X79130822Y-98170531D01*
X78939608Y-98069288D01*
X78717787Y-97988113D01*
X78673658Y-97971964D01*
X78673656Y-97971963D01*
X78669627Y-97970489D01*
X78388736Y-97909245D01*
X78357685Y-97906801D01*
X78165718Y-97891693D01*
X78165709Y-97891693D01*
X78163261Y-97891500D01*
X78007729Y-97891500D01*
X78005593Y-97891646D01*
X78005582Y-97891646D01*
X77797452Y-97905835D01*
X77797446Y-97905836D01*
X77793175Y-97906127D01*
X77788980Y-97906996D01*
X77788978Y-97906996D01*
X77652416Y-97935277D01*
X77511658Y-97964426D01*
X77240657Y-98060393D01*
X77236848Y-98062359D01*
X77088816Y-98138764D01*
X76985188Y-98192250D01*
X76981687Y-98194711D01*
X76981683Y-98194713D01*
X76905078Y-98248552D01*
X76749977Y-98357559D01*
X76721693Y-98383842D01*
X76565583Y-98528909D01*
X76539378Y-98553260D01*
X76357287Y-98775732D01*
X76207073Y-99020858D01*
X76205347Y-99024791D01*
X76205346Y-99024792D01*
X76176553Y-99090384D01*
X76091517Y-99284102D01*
X76012756Y-99560594D01*
X75972249Y-99845216D01*
X75972227Y-99849505D01*
X75972226Y-99849512D01*
X75970835Y-100115062D01*
X75970743Y-100132703D01*
X75592875Y-100132703D01*
X75592469Y-99866665D01*
X75593294Y-99852079D01*
X75602685Y-99770410D01*
X75624626Y-99579609D01*
X75627131Y-99565230D01*
X75688210Y-99304964D01*
X75689792Y-99298225D01*
X75693948Y-99284220D01*
X75763705Y-99091033D01*
X75787100Y-99026245D01*
X75792848Y-99012820D01*
X75792849Y-99012819D01*
X75882868Y-98832282D01*
X75915228Y-98767383D01*
X75922494Y-98754709D01*
X76040838Y-98573505D01*
X76072462Y-98525084D01*
X76081142Y-98513341D01*
X76104038Y-98485857D01*
X76234280Y-98329512D01*
X76253465Y-98310911D01*
X76253791Y-98310656D01*
X76260868Y-98305121D01*
X76279433Y-98279257D01*
X76289820Y-98266609D01*
X78021967Y-96416876D01*
X78083130Y-96380825D01*
X78113938Y-96377000D01*
X82688129Y-96377000D01*
X82756250Y-96397002D01*
G37*
%TD.AperFunction*%
%TA.AperFunction,Conductor*%
G36*
X117224816Y-91399216D02*
G01*
X117292919Y-91419272D01*
X117316680Y-91439089D01*
X123704895Y-98260966D01*
X123717048Y-98276139D01*
X123725497Y-98288540D01*
X123725499Y-98288542D01*
X123730552Y-98295958D01*
X123737484Y-98301658D01*
X123744297Y-98307261D01*
X123761074Y-98323933D01*
X123918855Y-98513335D01*
X123927540Y-98525084D01*
X124077508Y-98754708D01*
X124084774Y-98767382D01*
X124117614Y-98833243D01*
X124197532Y-98993521D01*
X124207154Y-99012819D01*
X124212902Y-99026244D01*
X124225503Y-99061139D01*
X124306054Y-99284219D01*
X124310210Y-99298224D01*
X124372869Y-99565221D01*
X124375376Y-99579608D01*
X124395902Y-99758110D01*
X124406708Y-99852078D01*
X124407533Y-99866664D01*
X124407114Y-100140924D01*
X124406245Y-100155508D01*
X124398611Y-100220156D01*
X124375783Y-100413478D01*
X124374082Y-100427879D01*
X124371530Y-100442263D01*
X124310457Y-100698984D01*
X124308055Y-100709079D01*
X124303857Y-100723066D01*
X124212315Y-100974178D01*
X124209923Y-100980739D01*
X124204134Y-100994147D01*
X124136287Y-101129185D01*
X124096728Y-101207920D01*
X124082271Y-101230386D01*
X124081990Y-101230735D01*
X124081988Y-101230738D01*
X124076359Y-101237727D01*
X124064194Y-101267021D01*
X124056956Y-101281682D01*
X121195701Y-106237522D01*
X120060933Y-108202998D01*
X120049943Y-108219034D01*
X120034890Y-108237723D01*
X120031450Y-108246008D01*
X120031448Y-108246011D01*
X120028079Y-108254125D01*
X120016985Y-108275041D01*
X119941641Y-108389598D01*
X119881071Y-108481692D01*
X119872322Y-108493445D01*
X119695512Y-108704164D01*
X119685456Y-108714822D01*
X119485394Y-108903574D01*
X119474170Y-108912993D01*
X119253529Y-109077257D01*
X119241287Y-109085308D01*
X119003082Y-109222840D01*
X118990004Y-109229409D01*
X118737415Y-109338369D01*
X118723659Y-109343375D01*
X118460148Y-109422270D01*
X118445893Y-109425648D01*
X118175020Y-109473414D01*
X118160467Y-109475116D01*
X117920983Y-109489068D01*
X117894279Y-109487782D01*
X117884816Y-109486309D01*
X117855423Y-109490153D01*
X117853259Y-109490436D01*
X117836920Y-109491500D01*
X115076371Y-109491500D01*
X115008250Y-109471498D01*
X114961757Y-109417842D01*
X114951653Y-109347568D01*
X114981147Y-109282988D01*
X114987276Y-109276405D01*
X115093911Y-109169770D01*
X115108323Y-109157384D01*
X115119918Y-109148851D01*
X115119923Y-109148846D01*
X115125818Y-109144508D01*
X115130557Y-109138929D01*
X115130561Y-109138926D01*
X115130569Y-109138916D01*
X115130576Y-109138911D01*
X115135908Y-109133939D01*
X115136760Y-109134852D01*
X115189920Y-109099954D01*
X115226590Y-109094500D01*
X115255400Y-109094500D01*
X115258646Y-109094163D01*
X115258650Y-109094163D01*
X115354308Y-109084238D01*
X115354312Y-109084237D01*
X115361166Y-109083526D01*
X115367702Y-109081345D01*
X115367704Y-109081345D01*
X115499806Y-109037272D01*
X115528946Y-109027550D01*
X115679348Y-108934478D01*
X115804305Y-108809303D01*
X115836631Y-108756861D01*
X115893275Y-108664968D01*
X115893276Y-108664966D01*
X115897115Y-108658738D01*
X115952797Y-108490861D01*
X115953578Y-108483245D01*
X115962201Y-108399075D01*
X115963500Y-108386400D01*
X115963500Y-106785600D01*
X115957553Y-106728284D01*
X115953238Y-106686692D01*
X115953237Y-106686688D01*
X115952526Y-106679834D01*
X115948710Y-106668394D01*
X115898868Y-106519002D01*
X115896550Y-106512054D01*
X115803478Y-106361652D01*
X115678303Y-106236695D01*
X115672072Y-106232854D01*
X115533968Y-106147725D01*
X115533966Y-106147724D01*
X115527738Y-106143885D01*
X115418194Y-106107551D01*
X115366389Y-106090368D01*
X115366387Y-106090368D01*
X115359861Y-106088203D01*
X115353025Y-106087503D01*
X115353022Y-106087502D01*
X115309969Y-106083091D01*
X115255400Y-106077500D01*
X113954600Y-106077500D01*
X113951354Y-106077837D01*
X113951350Y-106077837D01*
X113855692Y-106087762D01*
X113855688Y-106087763D01*
X113848834Y-106088474D01*
X113842298Y-106090655D01*
X113842296Y-106090655D01*
X113776034Y-106112762D01*
X113681054Y-106144450D01*
X113530652Y-106237522D01*
X113405695Y-106362697D01*
X113401855Y-106368927D01*
X113401854Y-106368928D01*
X113393478Y-106382517D01*
X113316760Y-106506977D01*
X113315920Y-106508339D01*
X113263148Y-106555832D01*
X113193076Y-106567256D01*
X113127952Y-106538982D01*
X113117490Y-106529195D01*
X113012103Y-106418722D01*
X113008424Y-106414865D01*
X112970505Y-106386652D01*
X112827740Y-106280432D01*
X112827741Y-106280432D01*
X112823458Y-106277246D01*
X112818707Y-106274830D01*
X112818703Y-106274828D01*
X112667120Y-106197760D01*
X112617949Y-106172760D01*
X112612855Y-106171178D01*
X112612852Y-106171177D01*
X112402871Y-106105976D01*
X112397773Y-106104393D01*
X112363134Y-106099802D01*
X112174511Y-106074802D01*
X112174506Y-106074802D01*
X112169226Y-106074102D01*
X112163897Y-106074302D01*
X112163895Y-106074302D01*
X112054034Y-106078426D01*
X111938842Y-106082751D01*
X111933623Y-106083846D01*
X111911566Y-106088474D01*
X111713209Y-106130093D01*
X111708250Y-106132051D01*
X111708248Y-106132052D01*
X111503744Y-106212815D01*
X111503742Y-106212816D01*
X111498779Y-106214776D01*
X111494220Y-106217543D01*
X111494217Y-106217544D01*
X111395832Y-106277246D01*
X111301683Y-106334377D01*
X111297653Y-106337874D01*
X111175674Y-106443722D01*
X111127555Y-106485477D01*
X111109926Y-106506977D01*
X110984760Y-106659627D01*
X110984756Y-106659633D01*
X110981376Y-106663755D01*
X110978737Y-106668391D01*
X110978735Y-106668394D01*
X110951739Y-106715820D01*
X110867325Y-106864114D01*
X110788663Y-107080825D01*
X110787714Y-107086074D01*
X110787713Y-107086077D01*
X110748377Y-107303608D01*
X110748376Y-107303615D01*
X110747639Y-107307692D01*
X110747444Y-107311837D01*
X110746653Y-107328608D01*
X110746500Y-107331844D01*
X110746500Y-107793890D01*
X110746725Y-107796539D01*
X110759397Y-107945881D01*
X110761080Y-107965720D01*
X110762418Y-107970875D01*
X110762419Y-107970881D01*
X110812510Y-108163872D01*
X110818999Y-108188872D01*
X110821191Y-108193738D01*
X110821192Y-108193741D01*
X110875468Y-108314230D01*
X110885209Y-108384555D01*
X110855383Y-108448983D01*
X110795460Y-108487058D01*
X110760586Y-108491980D01*
X105254266Y-108491980D01*
X105186145Y-108471978D01*
X105139652Y-108418322D01*
X105128783Y-108361400D01*
X105128500Y-108361400D01*
X105128500Y-106810600D01*
X105125430Y-106781013D01*
X105118238Y-106711692D01*
X105118237Y-106711688D01*
X105117526Y-106704834D01*
X105113710Y-106693394D01*
X105063868Y-106544002D01*
X105061550Y-106537054D01*
X104968478Y-106386652D01*
X104843303Y-106261695D01*
X104812494Y-106242704D01*
X104698968Y-106172725D01*
X104698966Y-106172724D01*
X104692738Y-106168885D01*
X104610419Y-106141581D01*
X104531389Y-106115368D01*
X104531387Y-106115368D01*
X104524861Y-106113203D01*
X104518025Y-106112503D01*
X104518022Y-106112502D01*
X104474969Y-106108091D01*
X104420400Y-106102500D01*
X103119600Y-106102500D01*
X103116354Y-106102837D01*
X103116350Y-106102837D01*
X103020692Y-106112762D01*
X103020688Y-106112763D01*
X103013834Y-106113474D01*
X103007298Y-106115655D01*
X103007296Y-106115655D01*
X102909430Y-106148306D01*
X102846054Y-106169450D01*
X102695652Y-106262522D01*
X102570695Y-106387697D01*
X102493296Y-106513262D01*
X102480920Y-106533339D01*
X102428148Y-106580832D01*
X102358076Y-106592256D01*
X102292952Y-106563982D01*
X102282490Y-106554195D01*
X102236346Y-106505824D01*
X102173424Y-106439865D01*
X101988458Y-106302246D01*
X101983707Y-106299830D01*
X101983703Y-106299828D01*
X101861155Y-106237522D01*
X101782949Y-106197760D01*
X101777855Y-106196178D01*
X101777852Y-106196177D01*
X101567871Y-106130976D01*
X101562773Y-106129393D01*
X101557484Y-106128692D01*
X101339511Y-106099802D01*
X101339506Y-106099802D01*
X101334226Y-106099102D01*
X101328897Y-106099302D01*
X101328895Y-106099302D01*
X101219034Y-106103426D01*
X101103842Y-106107751D01*
X101098623Y-106108846D01*
X101076566Y-106113474D01*
X100878209Y-106155093D01*
X100873250Y-106157051D01*
X100873248Y-106157052D01*
X100668744Y-106237815D01*
X100668742Y-106237816D01*
X100663779Y-106239776D01*
X100659220Y-106242543D01*
X100659217Y-106242544D01*
X100560832Y-106302246D01*
X100466683Y-106359377D01*
X100462653Y-106362874D01*
X100369484Y-106443722D01*
X100292555Y-106510477D01*
X100273809Y-106533339D01*
X100149760Y-106684627D01*
X100149756Y-106684633D01*
X100146376Y-106688755D01*
X100128448Y-106720250D01*
X100077368Y-106769555D01*
X100007738Y-106783417D01*
X99941667Y-106757434D01*
X99914427Y-106728284D01*
X99887814Y-106688755D01*
X99832559Y-106606681D01*
X99673424Y-106439865D01*
X99488458Y-106302246D01*
X99483707Y-106299830D01*
X99483703Y-106299828D01*
X99361155Y-106237522D01*
X99282949Y-106197760D01*
X99277855Y-106196178D01*
X99277852Y-106196177D01*
X99067871Y-106130976D01*
X99062773Y-106129393D01*
X99057484Y-106128692D01*
X98839511Y-106099802D01*
X98839506Y-106099802D01*
X98834226Y-106099102D01*
X98828897Y-106099302D01*
X98828895Y-106099302D01*
X98719034Y-106103426D01*
X98603842Y-106107751D01*
X98598623Y-106108846D01*
X98576566Y-106113474D01*
X98378209Y-106155093D01*
X98373250Y-106157051D01*
X98373248Y-106157052D01*
X98168744Y-106237815D01*
X98168742Y-106237816D01*
X98163779Y-106239776D01*
X98159220Y-106242543D01*
X98159217Y-106242544D01*
X98060832Y-106302246D01*
X97966683Y-106359377D01*
X97962653Y-106362874D01*
X97869484Y-106443722D01*
X97792555Y-106510477D01*
X97773809Y-106533339D01*
X97649760Y-106684627D01*
X97649756Y-106684633D01*
X97646376Y-106688755D01*
X97628448Y-106720250D01*
X97577368Y-106769555D01*
X97507738Y-106783417D01*
X97441667Y-106757434D01*
X97414427Y-106728284D01*
X97387814Y-106688755D01*
X97332559Y-106606681D01*
X97173424Y-106439865D01*
X96988458Y-106302246D01*
X96983707Y-106299830D01*
X96983703Y-106299828D01*
X96861155Y-106237522D01*
X96782949Y-106197760D01*
X96777855Y-106196178D01*
X96777852Y-106196177D01*
X96567871Y-106130976D01*
X96562773Y-106129393D01*
X96557484Y-106128692D01*
X96339511Y-106099802D01*
X96339506Y-106099802D01*
X96334226Y-106099102D01*
X96328897Y-106099302D01*
X96328895Y-106099302D01*
X96219034Y-106103426D01*
X96103842Y-106107751D01*
X96098623Y-106108846D01*
X96076566Y-106113474D01*
X95878209Y-106155093D01*
X95873250Y-106157051D01*
X95873248Y-106157052D01*
X95668744Y-106237815D01*
X95668742Y-106237816D01*
X95663779Y-106239776D01*
X95659220Y-106242543D01*
X95659217Y-106242544D01*
X95560832Y-106302246D01*
X95466683Y-106359377D01*
X95462653Y-106362874D01*
X95369484Y-106443722D01*
X95292555Y-106510477D01*
X95273809Y-106533339D01*
X95149760Y-106684627D01*
X95149756Y-106684633D01*
X95146376Y-106688755D01*
X95143738Y-106693390D01*
X95143735Y-106693394D01*
X95089389Y-106788866D01*
X95032325Y-106889114D01*
X94953663Y-107105825D01*
X94952714Y-107111074D01*
X94952713Y-107111077D01*
X94913377Y-107328608D01*
X94913376Y-107328615D01*
X94912639Y-107332692D01*
X94911500Y-107356844D01*
X94911500Y-107768890D01*
X94926080Y-107940720D01*
X94927418Y-107945875D01*
X94927419Y-107945881D01*
X94933908Y-107970881D01*
X94983999Y-108163872D01*
X94986191Y-108168738D01*
X94986192Y-108168741D01*
X95051730Y-108314230D01*
X95061471Y-108384555D01*
X95031646Y-108448983D01*
X94971722Y-108487058D01*
X94936848Y-108491980D01*
X89965851Y-108491980D01*
X89897730Y-108471978D01*
X89876756Y-108455075D01*
X89330405Y-107908724D01*
X89296379Y-107846412D01*
X89293500Y-107819629D01*
X89293500Y-106785600D01*
X89287553Y-106728284D01*
X89283238Y-106686692D01*
X89283237Y-106686688D01*
X89282526Y-106679834D01*
X89278710Y-106668394D01*
X89228868Y-106519002D01*
X89226550Y-106512054D01*
X89133478Y-106361652D01*
X89008303Y-106236695D01*
X89002072Y-106232854D01*
X88863968Y-106147725D01*
X88863966Y-106147724D01*
X88857738Y-106143885D01*
X88748194Y-106107551D01*
X88696389Y-106090368D01*
X88696387Y-106090368D01*
X88689861Y-106088203D01*
X88683025Y-106087503D01*
X88683022Y-106087502D01*
X88639969Y-106083091D01*
X88585400Y-106077500D01*
X87551371Y-106077500D01*
X87483250Y-106057498D01*
X87462276Y-106040595D01*
X84350415Y-102928734D01*
X84316389Y-102866422D01*
X84313510Y-102839639D01*
X84313510Y-101223168D01*
X84333512Y-101155047D01*
X84387168Y-101108554D01*
X84457442Y-101098450D01*
X84522022Y-101127944D01*
X84524024Y-101129852D01*
X84527897Y-101133279D01*
X84531576Y-101137135D01*
X84614125Y-101198553D01*
X84625713Y-101207175D01*
X84668426Y-101263885D01*
X84676500Y-101308264D01*
X84676500Y-101369930D01*
X84675067Y-101388880D01*
X84671801Y-101410349D01*
X84672394Y-101417641D01*
X84672394Y-101417644D01*
X84676085Y-101463018D01*
X84676500Y-101473233D01*
X84676500Y-101481293D01*
X84676925Y-101484937D01*
X84679789Y-101509507D01*
X84680222Y-101513882D01*
X84684409Y-101565352D01*
X84686140Y-101586637D01*
X84688396Y-101593601D01*
X84689587Y-101599560D01*
X84690971Y-101605415D01*
X84691818Y-101612681D01*
X84716735Y-101681327D01*
X84718152Y-101685455D01*
X84733962Y-101734256D01*
X84740649Y-101754899D01*
X84744445Y-101761154D01*
X84746951Y-101766628D01*
X84749670Y-101772058D01*
X84752167Y-101778937D01*
X84756180Y-101785057D01*
X84756180Y-101785058D01*
X84792186Y-101839976D01*
X84794523Y-101843680D01*
X84832405Y-101906107D01*
X84836121Y-101910315D01*
X84836122Y-101910316D01*
X84839803Y-101914484D01*
X84839776Y-101914508D01*
X84842429Y-101917500D01*
X84845132Y-101920733D01*
X84849144Y-101926852D01*
X84864119Y-101941038D01*
X84905383Y-101980128D01*
X84907825Y-101982506D01*
X87825230Y-104899911D01*
X87837616Y-104914323D01*
X87846149Y-104925918D01*
X87846154Y-104925923D01*
X87850492Y-104931818D01*
X87856070Y-104936557D01*
X87856073Y-104936560D01*
X87890768Y-104966035D01*
X87898284Y-104972965D01*
X87903979Y-104978660D01*
X87906861Y-104980940D01*
X87926251Y-104996281D01*
X87929655Y-104999072D01*
X87979703Y-105041591D01*
X87985285Y-105046333D01*
X87991801Y-105049661D01*
X87996850Y-105053028D01*
X88001979Y-105056195D01*
X88007716Y-105060734D01*
X88073875Y-105091655D01*
X88077769Y-105093558D01*
X88142808Y-105126769D01*
X88149916Y-105128508D01*
X88155559Y-105130607D01*
X88161322Y-105132524D01*
X88167950Y-105135622D01*
X88175112Y-105137112D01*
X88175113Y-105137112D01*
X88239412Y-105150486D01*
X88243696Y-105151456D01*
X88314610Y-105168808D01*
X88320212Y-105169156D01*
X88320215Y-105169156D01*
X88325764Y-105169500D01*
X88325762Y-105169536D01*
X88329755Y-105169775D01*
X88333947Y-105170149D01*
X88341115Y-105171640D01*
X88418520Y-105169546D01*
X88421928Y-105169500D01*
X106282930Y-105169500D01*
X106301880Y-105170933D01*
X106316115Y-105173099D01*
X106316119Y-105173099D01*
X106323349Y-105174199D01*
X106330641Y-105173606D01*
X106330644Y-105173606D01*
X106376018Y-105169915D01*
X106386233Y-105169500D01*
X106394293Y-105169500D01*
X106411680Y-105167473D01*
X106422507Y-105166211D01*
X106426882Y-105165778D01*
X106492339Y-105160454D01*
X106492342Y-105160453D01*
X106499637Y-105159860D01*
X106506601Y-105157604D01*
X106512560Y-105156413D01*
X106518415Y-105155029D01*
X106525681Y-105154182D01*
X106594327Y-105129265D01*
X106598455Y-105127848D01*
X106660936Y-105107607D01*
X106660938Y-105107606D01*
X106667899Y-105105351D01*
X106674154Y-105101555D01*
X106679628Y-105099049D01*
X106685058Y-105096330D01*
X106691937Y-105093833D01*
X106698058Y-105089820D01*
X106752976Y-105053814D01*
X106756680Y-105051477D01*
X106819107Y-105013595D01*
X106827484Y-105006197D01*
X106827508Y-105006224D01*
X106830500Y-105003571D01*
X106833733Y-105000868D01*
X106839852Y-104996856D01*
X106893128Y-104940617D01*
X106895506Y-104938175D01*
X109488911Y-102344770D01*
X109503323Y-102332384D01*
X109514918Y-102323851D01*
X109514923Y-102323846D01*
X109520818Y-102319508D01*
X109525557Y-102313930D01*
X109525560Y-102313927D01*
X109555035Y-102279232D01*
X109561965Y-102271716D01*
X109567660Y-102266021D01*
X109585281Y-102243749D01*
X109588072Y-102240345D01*
X109630591Y-102190297D01*
X109630592Y-102190295D01*
X109635333Y-102184715D01*
X109638661Y-102178199D01*
X109642028Y-102173150D01*
X109645195Y-102168021D01*
X109649734Y-102162284D01*
X109680655Y-102096125D01*
X109682561Y-102092225D01*
X109684175Y-102089064D01*
X109715769Y-102027192D01*
X109717508Y-102020084D01*
X109719607Y-102014441D01*
X109721524Y-102008678D01*
X109724622Y-102002050D01*
X109739487Y-101930583D01*
X109740457Y-101926299D01*
X109756473Y-101860845D01*
X109757808Y-101855390D01*
X109758500Y-101844236D01*
X109758536Y-101844238D01*
X109758775Y-101840245D01*
X109759149Y-101836053D01*
X109760640Y-101828885D01*
X109758546Y-101751479D01*
X109758500Y-101748072D01*
X109758500Y-98224371D01*
X109778502Y-98156250D01*
X109795405Y-98135276D01*
X110691276Y-97239405D01*
X110753588Y-97205379D01*
X110780371Y-97202500D01*
X111635522Y-97202500D01*
X111703643Y-97222502D01*
X111750136Y-97276158D01*
X111760240Y-97346432D01*
X111730746Y-97411012D01*
X111724617Y-97417595D01*
X111279737Y-97862475D01*
X111267347Y-97873342D01*
X111249708Y-97886877D01*
X111229355Y-97909245D01*
X111194842Y-97947174D01*
X111190743Y-97951469D01*
X111174802Y-97967410D01*
X111173007Y-97969557D01*
X111173005Y-97969559D01*
X111158068Y-97987423D01*
X111154600Y-97991398D01*
X111102288Y-98048888D01*
X111102281Y-98048897D01*
X111098515Y-98053036D01*
X111095538Y-98057782D01*
X111095537Y-98057783D01*
X111088987Y-98068225D01*
X111078911Y-98082093D01*
X111071004Y-98091549D01*
X111070997Y-98091559D01*
X111067406Y-98095854D01*
X111034175Y-98154115D01*
X111026118Y-98168240D01*
X111023413Y-98172759D01*
X111011187Y-98192250D01*
X110991038Y-98224371D01*
X110979136Y-98243344D01*
X110977043Y-98248549D01*
X110977042Y-98248552D01*
X110972448Y-98259979D01*
X110964988Y-98275411D01*
X110958880Y-98286119D01*
X110958876Y-98286128D01*
X110956101Y-98290993D01*
X110954232Y-98296270D01*
X110954230Y-98296275D01*
X110928285Y-98369542D01*
X110926420Y-98374478D01*
X110895344Y-98451783D01*
X110894208Y-98457270D01*
X110894207Y-98457272D01*
X110891706Y-98469349D01*
X110887101Y-98485844D01*
X110881111Y-98502759D01*
X110869526Y-98573505D01*
X110867643Y-98585001D01*
X110866683Y-98590180D01*
X110849787Y-98671767D01*
X110849521Y-98676379D01*
X110849521Y-98676380D01*
X110848185Y-98699548D01*
X110846738Y-98712653D01*
X110845714Y-98718910D01*
X110844806Y-98724457D01*
X110844894Y-98730070D01*
X110844894Y-98730072D01*
X110846484Y-98831264D01*
X110846500Y-98833243D01*
X110846500Y-99279325D01*
X110838939Y-99322316D01*
X110788663Y-99460825D01*
X110787714Y-99466074D01*
X110787713Y-99466077D01*
X110748377Y-99683608D01*
X110748376Y-99683615D01*
X110747639Y-99687692D01*
X110746500Y-99711844D01*
X110746500Y-100173890D01*
X110761080Y-100345720D01*
X110762418Y-100350875D01*
X110762419Y-100350881D01*
X110817657Y-100563703D01*
X110818999Y-100568872D01*
X110913688Y-100779075D01*
X111042441Y-100970319D01*
X111046120Y-100974176D01*
X111046122Y-100974178D01*
X111107710Y-101038738D01*
X111201576Y-101137135D01*
X111205854Y-101140318D01*
X111228140Y-101156899D01*
X111386542Y-101274754D01*
X111391293Y-101277170D01*
X111391297Y-101277172D01*
X111441055Y-101302470D01*
X111592051Y-101379240D01*
X111597145Y-101380822D01*
X111597148Y-101380823D01*
X111746461Y-101427186D01*
X111812227Y-101447607D01*
X111817516Y-101448308D01*
X112035489Y-101477198D01*
X112035494Y-101477198D01*
X112040774Y-101477898D01*
X112046103Y-101477698D01*
X112046105Y-101477698D01*
X112165036Y-101473233D01*
X112271158Y-101469249D01*
X112276468Y-101468135D01*
X112491572Y-101423002D01*
X112496791Y-101421907D01*
X112501750Y-101419949D01*
X112501752Y-101419948D01*
X112706256Y-101339185D01*
X112706258Y-101339184D01*
X112711221Y-101337224D01*
X112716701Y-101333899D01*
X112887284Y-101230386D01*
X112908317Y-101217623D01*
X112930293Y-101198553D01*
X113078412Y-101070023D01*
X113078414Y-101070021D01*
X113082445Y-101066523D01*
X113111670Y-101030880D01*
X113170329Y-100990886D01*
X113241299Y-100988954D01*
X113302048Y-101025698D01*
X113316248Y-101044468D01*
X113354180Y-101105765D01*
X113406522Y-101190348D01*
X113531697Y-101315305D01*
X113537927Y-101319145D01*
X113537928Y-101319146D01*
X113675288Y-101403816D01*
X113682262Y-101408115D01*
X113762005Y-101434564D01*
X113843611Y-101461632D01*
X113843613Y-101461632D01*
X113850139Y-101463797D01*
X113856975Y-101464497D01*
X113856978Y-101464498D01*
X113892663Y-101468154D01*
X113954600Y-101474500D01*
X115255400Y-101474500D01*
X115258646Y-101474163D01*
X115258650Y-101474163D01*
X115354308Y-101464238D01*
X115354312Y-101464237D01*
X115361166Y-101463526D01*
X115367702Y-101461345D01*
X115367704Y-101461345D01*
X115499806Y-101417272D01*
X115528946Y-101407550D01*
X115679348Y-101314478D01*
X115804305Y-101189303D01*
X115836462Y-101137135D01*
X115893275Y-101044968D01*
X115893276Y-101044966D01*
X115897115Y-101038738D01*
X115952797Y-100870861D01*
X115963500Y-100766400D01*
X115963500Y-100132703D01*
X119810743Y-100132703D01*
X119848268Y-100417734D01*
X119849401Y-100421874D01*
X119849401Y-100421876D01*
X119859450Y-100458608D01*
X119924129Y-100695036D01*
X119925813Y-100698984D01*
X120032425Y-100948930D01*
X120036923Y-100959476D01*
X120097261Y-101060293D01*
X120180008Y-101198553D01*
X120184561Y-101206161D01*
X120364313Y-101430528D01*
X120572851Y-101628423D01*
X120720133Y-101734256D01*
X120792099Y-101785969D01*
X120806317Y-101796186D01*
X120810112Y-101798195D01*
X120810113Y-101798196D01*
X120831869Y-101809715D01*
X121060392Y-101930712D01*
X121330373Y-102029511D01*
X121611264Y-102090755D01*
X121639841Y-102093004D01*
X121834282Y-102108307D01*
X121834291Y-102108307D01*
X121836739Y-102108500D01*
X121992271Y-102108500D01*
X121994407Y-102108354D01*
X121994418Y-102108354D01*
X122202548Y-102094165D01*
X122202554Y-102094164D01*
X122206825Y-102093873D01*
X122211020Y-102093004D01*
X122211022Y-102093004D01*
X122413007Y-102051175D01*
X122488342Y-102035574D01*
X122759343Y-101939607D01*
X122922511Y-101855390D01*
X123011005Y-101809715D01*
X123011006Y-101809715D01*
X123014812Y-101807750D01*
X123018313Y-101805289D01*
X123018317Y-101805287D01*
X123167684Y-101700310D01*
X123250023Y-101642441D01*
X123328403Y-101569606D01*
X123457479Y-101449661D01*
X123457481Y-101449658D01*
X123460622Y-101446740D01*
X123642713Y-101224268D01*
X123785730Y-100990886D01*
X123790686Y-100982799D01*
X123792927Y-100979142D01*
X123908483Y-100715898D01*
X123910426Y-100709079D01*
X123986068Y-100443534D01*
X123987244Y-100439406D01*
X124025032Y-100173890D01*
X124027146Y-100159036D01*
X124027146Y-100159034D01*
X124027751Y-100154784D01*
X124027786Y-100148244D01*
X124029235Y-99871583D01*
X124029235Y-99871576D01*
X124029257Y-99867297D01*
X124027254Y-99852078D01*
X124006157Y-99691837D01*
X123991732Y-99582266D01*
X123989019Y-99572347D01*
X123917003Y-99309103D01*
X123915871Y-99304964D01*
X123855041Y-99162350D01*
X123804763Y-99044476D01*
X123804761Y-99044472D01*
X123803077Y-99040524D01*
X123716111Y-98895215D01*
X123657643Y-98797521D01*
X123657640Y-98797517D01*
X123655439Y-98793839D01*
X123475687Y-98569472D01*
X123297343Y-98400230D01*
X123270258Y-98374527D01*
X123270255Y-98374525D01*
X123267149Y-98371577D01*
X123033683Y-98203814D01*
X123011843Y-98192250D01*
X122970822Y-98170531D01*
X122779608Y-98069288D01*
X122557787Y-97988113D01*
X122513658Y-97971964D01*
X122513656Y-97971963D01*
X122509627Y-97970489D01*
X122228736Y-97909245D01*
X122197685Y-97906801D01*
X122005718Y-97891693D01*
X122005709Y-97891693D01*
X122003261Y-97891500D01*
X121847729Y-97891500D01*
X121845593Y-97891646D01*
X121845582Y-97891646D01*
X121637452Y-97905835D01*
X121637446Y-97905836D01*
X121633175Y-97906127D01*
X121628980Y-97906996D01*
X121628978Y-97906996D01*
X121492416Y-97935277D01*
X121351658Y-97964426D01*
X121080657Y-98060393D01*
X121076848Y-98062359D01*
X120928816Y-98138764D01*
X120825188Y-98192250D01*
X120821687Y-98194711D01*
X120821683Y-98194713D01*
X120745078Y-98248552D01*
X120589977Y-98357559D01*
X120561693Y-98383842D01*
X120405583Y-98528909D01*
X120379378Y-98553260D01*
X120197287Y-98775732D01*
X120047073Y-99020858D01*
X120045347Y-99024791D01*
X120045346Y-99024792D01*
X120016553Y-99090384D01*
X119931517Y-99284102D01*
X119852756Y-99560594D01*
X119812249Y-99845216D01*
X119812227Y-99849505D01*
X119812226Y-99849512D01*
X119810835Y-100115062D01*
X119810743Y-100132703D01*
X115963500Y-100132703D01*
X115963500Y-99165600D01*
X115962185Y-99152925D01*
X115953238Y-99066692D01*
X115953237Y-99066688D01*
X115952526Y-99059834D01*
X115948710Y-99048394D01*
X115898868Y-98899002D01*
X115896550Y-98892054D01*
X115803478Y-98741652D01*
X115770456Y-98708687D01*
X115683483Y-98621866D01*
X115678303Y-98616695D01*
X115668763Y-98610814D01*
X115614860Y-98577588D01*
X115567367Y-98524816D01*
X115555943Y-98454744D01*
X115584217Y-98389620D01*
X115590492Y-98382643D01*
X115632063Y-98339745D01*
X115633452Y-98338335D01*
X116573259Y-97398528D01*
X116585651Y-97387660D01*
X116598843Y-97377538D01*
X116598851Y-97377531D01*
X116603292Y-97374123D01*
X116658168Y-97313815D01*
X116662267Y-97309520D01*
X116678198Y-97293589D01*
X116694934Y-97273573D01*
X116698379Y-97269624D01*
X116750703Y-97212121D01*
X116750706Y-97212117D01*
X116754485Y-97207964D01*
X116757913Y-97202500D01*
X116764012Y-97192776D01*
X116774091Y-97178903D01*
X116781992Y-97169455D01*
X116781997Y-97169448D01*
X116785594Y-97165146D01*
X116826887Y-97092752D01*
X116829592Y-97088232D01*
X116870886Y-97022404D01*
X116870888Y-97022401D01*
X116873864Y-97017656D01*
X116880552Y-97001021D01*
X116888012Y-96985589D01*
X116894120Y-96974881D01*
X116894124Y-96974872D01*
X116896899Y-96970007D01*
X116898768Y-96964730D01*
X116898770Y-96964725D01*
X116924715Y-96891458D01*
X116926580Y-96886522D01*
X116955566Y-96814416D01*
X116957656Y-96809217D01*
X116961294Y-96791650D01*
X116965899Y-96775156D01*
X116971889Y-96758241D01*
X116985359Y-96675990D01*
X116986319Y-96670811D01*
X117002276Y-96593758D01*
X117002276Y-96593757D01*
X117003213Y-96589233D01*
X117004815Y-96561452D01*
X117006262Y-96548347D01*
X117007286Y-96542090D01*
X117007286Y-96542086D01*
X117008194Y-96536543D01*
X117006516Y-96429736D01*
X117006500Y-96427757D01*
X117006500Y-91525140D01*
X117026502Y-91457019D01*
X117080158Y-91410526D01*
X117132602Y-91399140D01*
X117224816Y-91399216D01*
G37*
%TD.AperFunction*%
%TA.AperFunction,Conductor*%
G36*
X97164090Y-91382768D02*
G01*
X97232195Y-91402826D01*
X97278644Y-91456520D01*
X97288690Y-91526802D01*
X97285694Y-91541379D01*
X97257308Y-91647316D01*
X97257307Y-91647323D01*
X97255885Y-91652629D01*
X97236693Y-91872000D01*
X97255885Y-92091371D01*
X97312880Y-92304076D01*
X97343441Y-92369614D01*
X97403618Y-92498666D01*
X97403620Y-92498670D01*
X97405944Y-92503653D01*
X97409100Y-92508160D01*
X97409101Y-92508162D01*
X97516003Y-92660833D01*
X97532251Y-92684038D01*
X97687962Y-92839749D01*
X97692471Y-92842906D01*
X97692473Y-92842908D01*
X97746169Y-92880506D01*
X97868346Y-92966056D01*
X98067924Y-93059120D01*
X98280629Y-93116115D01*
X98500000Y-93135307D01*
X98719371Y-93116115D01*
X98932076Y-93059120D01*
X99131654Y-92966056D01*
X99253831Y-92880506D01*
X99307527Y-92842908D01*
X99307529Y-92842906D01*
X99312038Y-92839749D01*
X99467749Y-92684038D01*
X99483998Y-92660833D01*
X99590899Y-92508162D01*
X99590900Y-92508160D01*
X99594056Y-92503653D01*
X99596380Y-92498670D01*
X99596382Y-92498666D01*
X99656559Y-92369614D01*
X99687120Y-92304076D01*
X99744115Y-92091371D01*
X99763307Y-91872000D01*
X99744115Y-91652629D01*
X99742690Y-91647310D01*
X99742690Y-91647309D01*
X99714893Y-91543571D01*
X99716582Y-91472595D01*
X99756375Y-91413799D01*
X99821639Y-91385850D01*
X99836697Y-91384959D01*
X100163433Y-91385227D01*
X100231537Y-91405285D01*
X100277986Y-91458979D01*
X100288032Y-91529261D01*
X100285035Y-91543839D01*
X100257310Y-91647309D01*
X100257310Y-91647310D01*
X100255885Y-91652629D01*
X100236693Y-91872000D01*
X100255885Y-92091371D01*
X100312880Y-92304076D01*
X100343441Y-92369614D01*
X100403618Y-92498666D01*
X100403620Y-92498670D01*
X100405944Y-92503653D01*
X100409100Y-92508160D01*
X100409101Y-92508162D01*
X100516003Y-92660833D01*
X100532251Y-92684038D01*
X100687962Y-92839749D01*
X100692471Y-92842906D01*
X100692473Y-92842908D01*
X100746169Y-92880506D01*
X100868346Y-92966056D01*
X101067924Y-93059120D01*
X101280629Y-93116115D01*
X101500000Y-93135307D01*
X101719371Y-93116115D01*
X101932076Y-93059120D01*
X102131654Y-92966056D01*
X102253831Y-92880506D01*
X102307527Y-92842908D01*
X102307529Y-92842906D01*
X102312038Y-92839749D01*
X102467749Y-92684038D01*
X102483998Y-92660833D01*
X102590899Y-92508162D01*
X102590900Y-92508160D01*
X102594056Y-92503653D01*
X102596380Y-92498670D01*
X102596382Y-92498666D01*
X102656559Y-92369614D01*
X102687120Y-92304076D01*
X102744115Y-92091371D01*
X102763307Y-91872000D01*
X102744115Y-91652629D01*
X102742693Y-91647323D01*
X102742692Y-91647316D01*
X102715552Y-91546030D01*
X102717242Y-91475054D01*
X102757036Y-91416258D01*
X102822300Y-91388310D01*
X102837354Y-91387419D01*
X103162774Y-91387686D01*
X103230878Y-91407744D01*
X103277327Y-91461438D01*
X103287373Y-91531720D01*
X103284376Y-91546298D01*
X103257310Y-91647308D01*
X103257310Y-91647310D01*
X103255885Y-91652629D01*
X103236693Y-91872000D01*
X103255885Y-92091371D01*
X103312880Y-92304076D01*
X103343441Y-92369614D01*
X103403618Y-92498666D01*
X103403620Y-92498670D01*
X103405944Y-92503653D01*
X103409100Y-92508160D01*
X103409101Y-92508162D01*
X103516003Y-92660833D01*
X103532251Y-92684038D01*
X103687962Y-92839749D01*
X103692471Y-92842906D01*
X103692473Y-92842908D01*
X103746169Y-92880506D01*
X103868346Y-92966056D01*
X104067924Y-93059120D01*
X104280629Y-93116115D01*
X104500000Y-93135307D01*
X104719371Y-93116115D01*
X104932076Y-93059120D01*
X105131654Y-92966056D01*
X105194342Y-92922161D01*
X106814393Y-92922161D01*
X106823687Y-92934175D01*
X106864088Y-92962464D01*
X106873584Y-92967947D01*
X107063113Y-93056326D01*
X107073405Y-93060072D01*
X107275401Y-93114196D01*
X107286196Y-93116099D01*
X107494525Y-93134326D01*
X107505475Y-93134326D01*
X107713804Y-93116099D01*
X107724599Y-93114196D01*
X107926595Y-93060072D01*
X107936887Y-93056326D01*
X108126416Y-92967947D01*
X108135912Y-92962464D01*
X108177148Y-92933590D01*
X108185523Y-92923112D01*
X108178457Y-92909668D01*
X107512811Y-92244021D01*
X107498868Y-92236408D01*
X107497034Y-92236539D01*
X107490420Y-92240790D01*
X106820820Y-92910391D01*
X106814393Y-92922161D01*
X105194342Y-92922161D01*
X105253831Y-92880506D01*
X105307527Y-92842908D01*
X105307529Y-92842906D01*
X105312038Y-92839749D01*
X105467749Y-92684038D01*
X105483998Y-92660833D01*
X105590899Y-92508162D01*
X105590900Y-92508160D01*
X105594056Y-92503653D01*
X105596380Y-92498670D01*
X105596382Y-92498666D01*
X105656559Y-92369614D01*
X105687120Y-92304076D01*
X105744115Y-92091371D01*
X105763307Y-91872000D01*
X105744115Y-91652629D01*
X105716211Y-91548491D01*
X105717901Y-91477514D01*
X105757695Y-91418718D01*
X105822959Y-91390770D01*
X105838009Y-91389880D01*
X106162635Y-91390146D01*
X106230737Y-91410203D01*
X106277185Y-91463897D01*
X106287232Y-91534179D01*
X106284236Y-91548756D01*
X106257804Y-91647401D01*
X106255901Y-91658196D01*
X106237674Y-91866525D01*
X106237674Y-91877475D01*
X106255901Y-92085804D01*
X106257804Y-92096599D01*
X106311928Y-92298595D01*
X106315674Y-92308887D01*
X106404054Y-92498417D01*
X106409534Y-92507907D01*
X106438411Y-92549149D01*
X106448886Y-92557523D01*
X106462333Y-92550455D01*
X107410905Y-91601884D01*
X107473217Y-91567859D01*
X107544033Y-91572924D01*
X107589095Y-91601884D01*
X108538389Y-92551178D01*
X108550162Y-92557606D01*
X108562176Y-92548311D01*
X108590466Y-92507907D01*
X108595946Y-92498417D01*
X108684326Y-92308887D01*
X108688072Y-92298595D01*
X108742196Y-92096599D01*
X108744099Y-92085804D01*
X108762326Y-91877475D01*
X108762326Y-91866525D01*
X108744099Y-91658196D01*
X108742196Y-91647401D01*
X108716352Y-91550951D01*
X108718042Y-91479975D01*
X108757836Y-91421179D01*
X108823100Y-91393231D01*
X108838162Y-91392340D01*
X109156696Y-91392601D01*
X109224801Y-91412659D01*
X109271249Y-91466353D01*
X109281296Y-91536635D01*
X109278634Y-91549936D01*
X109277982Y-91552476D01*
X109276111Y-91557759D01*
X109275206Y-91563287D01*
X109275205Y-91563290D01*
X109268960Y-91601428D01*
X109266322Y-91613678D01*
X109257310Y-91647310D01*
X109255885Y-91652629D01*
X109255406Y-91658106D01*
X109255406Y-91658108D01*
X109250917Y-91709414D01*
X109249740Y-91718792D01*
X109239806Y-91779457D01*
X109239894Y-91785069D01*
X109239894Y-91785072D01*
X109240463Y-91821253D01*
X109239999Y-91834215D01*
X109236693Y-91872000D01*
X109237173Y-91877485D01*
X109241867Y-91931133D01*
X109242331Y-91940133D01*
X109243335Y-92004081D01*
X109244415Y-92009585D01*
X109244415Y-92009586D01*
X109250910Y-92042692D01*
X109252788Y-92055969D01*
X109255885Y-92091371D01*
X109271062Y-92148011D01*
X109271858Y-92150981D01*
X109273795Y-92159335D01*
X109286585Y-92224529D01*
X109299996Y-92258928D01*
X109304303Y-92272068D01*
X109312880Y-92304076D01*
X109315205Y-92309061D01*
X109315205Y-92309062D01*
X109339953Y-92362135D01*
X109343151Y-92369614D01*
X109363732Y-92422400D01*
X109368190Y-92433835D01*
X109386201Y-92463227D01*
X109392949Y-92475786D01*
X109405944Y-92503653D01*
X109444046Y-92558068D01*
X109448253Y-92564487D01*
X109485570Y-92625382D01*
X109506876Y-92649295D01*
X109515993Y-92660819D01*
X109532251Y-92684038D01*
X109580857Y-92732644D01*
X109585837Y-92737919D01*
X109635015Y-92793115D01*
X109639427Y-92796575D01*
X109639434Y-92796581D01*
X109658286Y-92811363D01*
X109669634Y-92821421D01*
X109687962Y-92839749D01*
X109692471Y-92842906D01*
X109692473Y-92842908D01*
X109746168Y-92880506D01*
X109751643Y-92884565D01*
X109799592Y-92922161D01*
X109811801Y-92931734D01*
X109835767Y-92944423D01*
X109849079Y-92952565D01*
X109863834Y-92962897D01*
X109863837Y-92962899D01*
X109868346Y-92966056D01*
X109873328Y-92968379D01*
X109873333Y-92968382D01*
X109934862Y-92997073D01*
X109940564Y-92999910D01*
X110010341Y-93036854D01*
X110033848Y-93044356D01*
X110048781Y-93050194D01*
X110061932Y-93056326D01*
X110067924Y-93059120D01*
X110073228Y-93060541D01*
X110073233Y-93060543D01*
X110141034Y-93078710D01*
X110146731Y-93080382D01*
X110219014Y-93103451D01*
X110219016Y-93103451D01*
X110224357Y-93105156D01*
X110229915Y-93105888D01*
X110229916Y-93105888D01*
X110246391Y-93108057D01*
X110262553Y-93111272D01*
X110275312Y-93114691D01*
X110275319Y-93114692D01*
X110280629Y-93116115D01*
X110358293Y-93122909D01*
X110363752Y-93123508D01*
X110447086Y-93134479D01*
X110466851Y-93133547D01*
X110483762Y-93133887D01*
X110494517Y-93134828D01*
X110494524Y-93134828D01*
X110500000Y-93135307D01*
X110579921Y-93128315D01*
X110584943Y-93127978D01*
X110671488Y-93123896D01*
X110676954Y-93122644D01*
X110676955Y-93122644D01*
X110688382Y-93120027D01*
X110705529Y-93117327D01*
X110713880Y-93116596D01*
X110713887Y-93116595D01*
X110719371Y-93116115D01*
X110799021Y-93094772D01*
X110803464Y-93093669D01*
X110865438Y-93079475D01*
X110890470Y-93073742D01*
X110904171Y-93067898D01*
X110920992Y-93062090D01*
X110926761Y-93060544D01*
X110926760Y-93060544D01*
X110932076Y-93059120D01*
X110937059Y-93056796D01*
X110937063Y-93056795D01*
X111008753Y-93023366D01*
X111012567Y-93021664D01*
X111091942Y-92987807D01*
X111097109Y-92985603D01*
X111107510Y-92978771D01*
X111123437Y-92969888D01*
X111131654Y-92966056D01*
X111157327Y-92948080D01*
X111202680Y-92916323D01*
X111205774Y-92914224D01*
X111281014Y-92864801D01*
X111281018Y-92864798D01*
X111284874Y-92862265D01*
X111297692Y-92850845D01*
X111304316Y-92845604D01*
X111307537Y-92842901D01*
X111312038Y-92839749D01*
X112060260Y-92091527D01*
X112122572Y-92057501D01*
X112193387Y-92062566D01*
X112250223Y-92105113D01*
X112271062Y-92148010D01*
X112312880Y-92304076D01*
X112343441Y-92369614D01*
X112403618Y-92498666D01*
X112403620Y-92498670D01*
X112405944Y-92503653D01*
X112409100Y-92508160D01*
X112409101Y-92508162D01*
X112516003Y-92660833D01*
X112532251Y-92684038D01*
X112687962Y-92839749D01*
X112692471Y-92842906D01*
X112692473Y-92842908D01*
X112746169Y-92880506D01*
X112868346Y-92966056D01*
X113067924Y-93059120D01*
X113280629Y-93116115D01*
X113500000Y-93135307D01*
X113719371Y-93116115D01*
X113932076Y-93059120D01*
X114131654Y-92966056D01*
X114253831Y-92880506D01*
X114291229Y-92854320D01*
X114358503Y-92831632D01*
X114427364Y-92848917D01*
X114475948Y-92900687D01*
X114489500Y-92957533D01*
X114489500Y-93786467D01*
X114469498Y-93854588D01*
X114415842Y-93901081D01*
X114345568Y-93911185D01*
X114291229Y-93889680D01*
X114229659Y-93846568D01*
X114131654Y-93777944D01*
X113932076Y-93684880D01*
X113719371Y-93627885D01*
X113500000Y-93608693D01*
X113280629Y-93627885D01*
X113067924Y-93684880D01*
X112974562Y-93728415D01*
X112873334Y-93775618D01*
X112873329Y-93775621D01*
X112868347Y-93777944D01*
X112863840Y-93781100D01*
X112863838Y-93781101D01*
X112692473Y-93901092D01*
X112692470Y-93901094D01*
X112687962Y-93904251D01*
X112532251Y-94059962D01*
X112529094Y-94064470D01*
X112529092Y-94064473D01*
X112409101Y-94235838D01*
X112405944Y-94240347D01*
X112403621Y-94245329D01*
X112403618Y-94245334D01*
X112356415Y-94346562D01*
X112312880Y-94439924D01*
X112255885Y-94652629D01*
X112236693Y-94872000D01*
X112237172Y-94877475D01*
X112237172Y-94877476D01*
X112246908Y-94988761D01*
X112232919Y-95058365D01*
X112210482Y-95088837D01*
X111906848Y-95392471D01*
X111844536Y-95426497D01*
X111773721Y-95421432D01*
X111716885Y-95378885D01*
X111692074Y-95312365D01*
X111696046Y-95270764D01*
X111742692Y-95096681D01*
X111744115Y-95091371D01*
X111763307Y-94872000D01*
X111744115Y-94652629D01*
X111687120Y-94439924D01*
X111643585Y-94346562D01*
X111596382Y-94245334D01*
X111596379Y-94245329D01*
X111594056Y-94240347D01*
X111590899Y-94235838D01*
X111470908Y-94064473D01*
X111470906Y-94064470D01*
X111467749Y-94059962D01*
X111312038Y-93904251D01*
X111131654Y-93777944D01*
X110932076Y-93684880D01*
X110719371Y-93627885D01*
X110500000Y-93608693D01*
X110280629Y-93627885D01*
X110067924Y-93684880D01*
X109974562Y-93728415D01*
X109873334Y-93775618D01*
X109873329Y-93775621D01*
X109868347Y-93777944D01*
X109863840Y-93781100D01*
X109863838Y-93781101D01*
X109692473Y-93901092D01*
X109692470Y-93901094D01*
X109687962Y-93904251D01*
X109532251Y-94059962D01*
X109529094Y-94064470D01*
X109529092Y-94064473D01*
X109409101Y-94235838D01*
X109405944Y-94240347D01*
X109403621Y-94245329D01*
X109403618Y-94245334D01*
X109356415Y-94346562D01*
X109312880Y-94439924D01*
X109255885Y-94652629D01*
X109236693Y-94872000D01*
X109237172Y-94877475D01*
X109237172Y-94877476D01*
X109246908Y-94988761D01*
X109232919Y-95058365D01*
X109210482Y-95088837D01*
X108906848Y-95392471D01*
X108844536Y-95426497D01*
X108773721Y-95421432D01*
X108716885Y-95378885D01*
X108692074Y-95312365D01*
X108696046Y-95270764D01*
X108742692Y-95096681D01*
X108744115Y-95091371D01*
X108763307Y-94872000D01*
X108744115Y-94652629D01*
X108687120Y-94439924D01*
X108643585Y-94346562D01*
X108596382Y-94245334D01*
X108596379Y-94245329D01*
X108594056Y-94240347D01*
X108590899Y-94235838D01*
X108470908Y-94064473D01*
X108470906Y-94064470D01*
X108467749Y-94059962D01*
X108312038Y-93904251D01*
X108131654Y-93777944D01*
X107932076Y-93684880D01*
X107719371Y-93627885D01*
X107500000Y-93608693D01*
X107280629Y-93627885D01*
X107067924Y-93684880D01*
X106974562Y-93728415D01*
X106873334Y-93775618D01*
X106873329Y-93775621D01*
X106868347Y-93777944D01*
X106863840Y-93781100D01*
X106863838Y-93781101D01*
X106692473Y-93901092D01*
X106692470Y-93901094D01*
X106687962Y-93904251D01*
X106532251Y-94059962D01*
X106529094Y-94064470D01*
X106529092Y-94064473D01*
X106409101Y-94235838D01*
X106405944Y-94240347D01*
X106403621Y-94245329D01*
X106403618Y-94245334D01*
X106356415Y-94346562D01*
X106312880Y-94439924D01*
X106255885Y-94652629D01*
X106236693Y-94872000D01*
X106237172Y-94877475D01*
X106237172Y-94877476D01*
X106246908Y-94988761D01*
X106232919Y-95058365D01*
X106210482Y-95088837D01*
X105906848Y-95392471D01*
X105844536Y-95426497D01*
X105773721Y-95421432D01*
X105716885Y-95378885D01*
X105692074Y-95312365D01*
X105696046Y-95270764D01*
X105742692Y-95096681D01*
X105744115Y-95091371D01*
X105763307Y-94872000D01*
X105744115Y-94652629D01*
X105687120Y-94439924D01*
X105643585Y-94346562D01*
X105596382Y-94245334D01*
X105596379Y-94245329D01*
X105594056Y-94240347D01*
X105590899Y-94235838D01*
X105470908Y-94064473D01*
X105470906Y-94064470D01*
X105467749Y-94059962D01*
X105312038Y-93904251D01*
X105131654Y-93777944D01*
X104932076Y-93684880D01*
X104719371Y-93627885D01*
X104500000Y-93608693D01*
X104280629Y-93627885D01*
X104067924Y-93684880D01*
X103974562Y-93728415D01*
X103873334Y-93775618D01*
X103873329Y-93775621D01*
X103868347Y-93777944D01*
X103863840Y-93781100D01*
X103863838Y-93781101D01*
X103692473Y-93901092D01*
X103692470Y-93901094D01*
X103687962Y-93904251D01*
X103532251Y-94059962D01*
X103529094Y-94064470D01*
X103529092Y-94064473D01*
X103409101Y-94235838D01*
X103405944Y-94240347D01*
X103403621Y-94245329D01*
X103403618Y-94245334D01*
X103356415Y-94346562D01*
X103312880Y-94439924D01*
X103255885Y-94652629D01*
X103236693Y-94872000D01*
X103255885Y-95091371D01*
X103312880Y-95304076D01*
X103347764Y-95378885D01*
X103403618Y-95498666D01*
X103403621Y-95498671D01*
X103405944Y-95503653D01*
X103409100Y-95508160D01*
X103409101Y-95508162D01*
X103510500Y-95652974D01*
X103532251Y-95684038D01*
X103552671Y-95704458D01*
X103586697Y-95766770D01*
X103581632Y-95837585D01*
X103552671Y-95882648D01*
X101035089Y-98400230D01*
X101020677Y-98412616D01*
X101009082Y-98421149D01*
X101009077Y-98421154D01*
X101003182Y-98425492D01*
X100998443Y-98431070D01*
X100998440Y-98431073D01*
X100968965Y-98465768D01*
X100962035Y-98473284D01*
X100956340Y-98478979D01*
X100954060Y-98481861D01*
X100938719Y-98501251D01*
X100935928Y-98504655D01*
X100894635Y-98553260D01*
X100888667Y-98560285D01*
X100885339Y-98566803D01*
X100881975Y-98571846D01*
X100878806Y-98576978D01*
X100874266Y-98582716D01*
X100871167Y-98589347D01*
X100843364Y-98648834D01*
X100841433Y-98652784D01*
X100811561Y-98711285D01*
X100811559Y-98711291D01*
X100808231Y-98717808D01*
X100806492Y-98724914D01*
X100804393Y-98730559D01*
X100802476Y-98736322D01*
X100799378Y-98742950D01*
X100797888Y-98750112D01*
X100797888Y-98750113D01*
X100784514Y-98814412D01*
X100783544Y-98818696D01*
X100766192Y-98889610D01*
X100765500Y-98900764D01*
X100765464Y-98900762D01*
X100765225Y-98904755D01*
X100764851Y-98908947D01*
X100763360Y-98916115D01*
X100763558Y-98923432D01*
X100765454Y-98993521D01*
X100765500Y-98996928D01*
X100765500Y-100948930D01*
X100764067Y-100967880D01*
X100762111Y-100980739D01*
X100760801Y-100989349D01*
X100761394Y-100996641D01*
X100761394Y-100996644D01*
X100765085Y-101042018D01*
X100765500Y-101052233D01*
X100765500Y-101060293D01*
X100765925Y-101063937D01*
X100768789Y-101088507D01*
X100769222Y-101092882D01*
X100774279Y-101155047D01*
X100775140Y-101165637D01*
X100777396Y-101172601D01*
X100778587Y-101178560D01*
X100779971Y-101184415D01*
X100780818Y-101191681D01*
X100805735Y-101260327D01*
X100807152Y-101264455D01*
X100824870Y-101319146D01*
X100829649Y-101333899D01*
X100833445Y-101340154D01*
X100835951Y-101345628D01*
X100838670Y-101351058D01*
X100841167Y-101357937D01*
X100845180Y-101364057D01*
X100845180Y-101364058D01*
X100881186Y-101418976D01*
X100883523Y-101422680D01*
X100921405Y-101485107D01*
X100925121Y-101489315D01*
X100925122Y-101489316D01*
X100928803Y-101493484D01*
X100928776Y-101493508D01*
X100931429Y-101496500D01*
X100934132Y-101499733D01*
X100938144Y-101505852D01*
X100943456Y-101510884D01*
X100994383Y-101559128D01*
X100996825Y-101561506D01*
X101448230Y-102012911D01*
X101460616Y-102027323D01*
X101469149Y-102038918D01*
X101469154Y-102038923D01*
X101473492Y-102044818D01*
X101479070Y-102049557D01*
X101479073Y-102049560D01*
X101513768Y-102079035D01*
X101521284Y-102085965D01*
X101526979Y-102091660D01*
X101529861Y-102093940D01*
X101549251Y-102109281D01*
X101552655Y-102112072D01*
X101608285Y-102159334D01*
X101606501Y-102161434D01*
X101643908Y-102206122D01*
X101652810Y-102276558D01*
X101622219Y-102340626D01*
X101561846Y-102377985D01*
X101528417Y-102382500D01*
X90206371Y-102382500D01*
X90138250Y-102362498D01*
X90117276Y-102345595D01*
X89136463Y-101364782D01*
X89102437Y-101302470D01*
X89107502Y-101231655D01*
X89126677Y-101197594D01*
X89129134Y-101194483D01*
X89134305Y-101189303D01*
X89212533Y-101062394D01*
X89223275Y-101044968D01*
X89223276Y-101044966D01*
X89227115Y-101038738D01*
X89282797Y-100870861D01*
X89293500Y-100766400D01*
X89293500Y-99165600D01*
X89292185Y-99152925D01*
X89283238Y-99066692D01*
X89283237Y-99066688D01*
X89282526Y-99059834D01*
X89278710Y-99048394D01*
X89226658Y-98892377D01*
X89224073Y-98821427D01*
X89260256Y-98760343D01*
X89323720Y-98728518D01*
X89346181Y-98726500D01*
X93195255Y-98726500D01*
X93263376Y-98746502D01*
X93309869Y-98800158D01*
X93319973Y-98870432D01*
X93292689Y-98932391D01*
X93204760Y-99039627D01*
X93204756Y-99039633D01*
X93201376Y-99043755D01*
X93198737Y-99048391D01*
X93198735Y-99048394D01*
X93192223Y-99059834D01*
X93087325Y-99244114D01*
X93008663Y-99460825D01*
X93007714Y-99466074D01*
X93007713Y-99466077D01*
X92968377Y-99683608D01*
X92968376Y-99683615D01*
X92967639Y-99687692D01*
X92966500Y-99711844D01*
X92966500Y-100173890D01*
X92981080Y-100345720D01*
X92982418Y-100350875D01*
X92982419Y-100350881D01*
X93037657Y-100563703D01*
X93038999Y-100568872D01*
X93133688Y-100779075D01*
X93262441Y-100970319D01*
X93266120Y-100974176D01*
X93266122Y-100974178D01*
X93327710Y-101038738D01*
X93421576Y-101137135D01*
X93425854Y-101140318D01*
X93448140Y-101156899D01*
X93606542Y-101274754D01*
X93611293Y-101277170D01*
X93611297Y-101277172D01*
X93661055Y-101302470D01*
X93812051Y-101379240D01*
X93817145Y-101380822D01*
X93817148Y-101380823D01*
X93966461Y-101427186D01*
X94032227Y-101447607D01*
X94037516Y-101448308D01*
X94255489Y-101477198D01*
X94255494Y-101477198D01*
X94260774Y-101477898D01*
X94266103Y-101477698D01*
X94266105Y-101477698D01*
X94385036Y-101473233D01*
X94491158Y-101469249D01*
X94496468Y-101468135D01*
X94711572Y-101423002D01*
X94716791Y-101421907D01*
X94721750Y-101419949D01*
X94721752Y-101419948D01*
X94926256Y-101339185D01*
X94926258Y-101339184D01*
X94931221Y-101337224D01*
X94936701Y-101333899D01*
X95107284Y-101230386D01*
X95128317Y-101217623D01*
X95150293Y-101198553D01*
X95298412Y-101070023D01*
X95298414Y-101070021D01*
X95302445Y-101066523D01*
X95325227Y-101038738D01*
X95332006Y-101030471D01*
X95390666Y-100990476D01*
X95461636Y-100988545D01*
X95522384Y-101025290D01*
X95536584Y-101044059D01*
X95623063Y-101183807D01*
X95632099Y-101195208D01*
X95746829Y-101309739D01*
X95758240Y-101318751D01*
X95896243Y-101403816D01*
X95909424Y-101409963D01*
X96063710Y-101461138D01*
X96077086Y-101464005D01*
X96171438Y-101473672D01*
X96177854Y-101474000D01*
X96552885Y-101474000D01*
X96568124Y-101469525D01*
X96569329Y-101468135D01*
X96571000Y-101460452D01*
X96571000Y-101455884D01*
X97079000Y-101455884D01*
X97083475Y-101471123D01*
X97084865Y-101472328D01*
X97092548Y-101473999D01*
X97472095Y-101473999D01*
X97478614Y-101473662D01*
X97574206Y-101463743D01*
X97587600Y-101460851D01*
X97741784Y-101409412D01*
X97754962Y-101403239D01*
X97892807Y-101317937D01*
X97904208Y-101308901D01*
X98018739Y-101194171D01*
X98027751Y-101182760D01*
X98112816Y-101044757D01*
X98118963Y-101031576D01*
X98170138Y-100877290D01*
X98173005Y-100863914D01*
X98182672Y-100769562D01*
X98183000Y-100763146D01*
X98183000Y-100238115D01*
X98178525Y-100222876D01*
X98177135Y-100221671D01*
X98169452Y-100220000D01*
X97097115Y-100220000D01*
X97081876Y-100224475D01*
X97080671Y-100225865D01*
X97079000Y-100233548D01*
X97079000Y-101455884D01*
X96571000Y-101455884D01*
X96571000Y-99838000D01*
X96591002Y-99769879D01*
X96644658Y-99723386D01*
X96697000Y-99712000D01*
X98164884Y-99712000D01*
X98180123Y-99707525D01*
X98181328Y-99706135D01*
X98182999Y-99698452D01*
X98182999Y-99168905D01*
X98182662Y-99162386D01*
X98172743Y-99066794D01*
X98169851Y-99053400D01*
X98116130Y-98892376D01*
X98113546Y-98821426D01*
X98149730Y-98760342D01*
X98213194Y-98728518D01*
X98235654Y-98726500D01*
X98336930Y-98726500D01*
X98355880Y-98727933D01*
X98370115Y-98730099D01*
X98370119Y-98730099D01*
X98377349Y-98731199D01*
X98384641Y-98730606D01*
X98384644Y-98730606D01*
X98430018Y-98726915D01*
X98440233Y-98726500D01*
X98448293Y-98726500D01*
X98461583Y-98724951D01*
X98476507Y-98723211D01*
X98480882Y-98722778D01*
X98546339Y-98717454D01*
X98546342Y-98717453D01*
X98553637Y-98716860D01*
X98560601Y-98714604D01*
X98566560Y-98713413D01*
X98572415Y-98712029D01*
X98579681Y-98711182D01*
X98648327Y-98686265D01*
X98652455Y-98684848D01*
X98714936Y-98664607D01*
X98714938Y-98664606D01*
X98721899Y-98662351D01*
X98728154Y-98658555D01*
X98733628Y-98656049D01*
X98739058Y-98653330D01*
X98745937Y-98650833D01*
X98806976Y-98610814D01*
X98810680Y-98608477D01*
X98873107Y-98570595D01*
X98881484Y-98563197D01*
X98881508Y-98563224D01*
X98884500Y-98560571D01*
X98887733Y-98557868D01*
X98893852Y-98553856D01*
X98947128Y-98497617D01*
X98949506Y-98495175D01*
X101283163Y-96161518D01*
X101345475Y-96127492D01*
X101383239Y-96125092D01*
X101494524Y-96134828D01*
X101494525Y-96134828D01*
X101500000Y-96135307D01*
X101719371Y-96116115D01*
X101932076Y-96059120D01*
X102131654Y-95966056D01*
X102274774Y-95865842D01*
X102307527Y-95842908D01*
X102307529Y-95842906D01*
X102312038Y-95839749D01*
X102467749Y-95684038D01*
X102489501Y-95652974D01*
X102590899Y-95508162D01*
X102590900Y-95508160D01*
X102594056Y-95503653D01*
X102596379Y-95498671D01*
X102596382Y-95498666D01*
X102652236Y-95378885D01*
X102687120Y-95304076D01*
X102744115Y-95091371D01*
X102763307Y-94872000D01*
X102744115Y-94652629D01*
X102687120Y-94439924D01*
X102643585Y-94346562D01*
X102596382Y-94245334D01*
X102596379Y-94245329D01*
X102594056Y-94240347D01*
X102590899Y-94235838D01*
X102470908Y-94064473D01*
X102470906Y-94064470D01*
X102467749Y-94059962D01*
X102312038Y-93904251D01*
X102131654Y-93777944D01*
X101932076Y-93684880D01*
X101719371Y-93627885D01*
X101500000Y-93608693D01*
X101280629Y-93627885D01*
X101067924Y-93684880D01*
X100974562Y-93728415D01*
X100873334Y-93775618D01*
X100873329Y-93775621D01*
X100868347Y-93777944D01*
X100863840Y-93781100D01*
X100863838Y-93781101D01*
X100692473Y-93901092D01*
X100692470Y-93901094D01*
X100687962Y-93904251D01*
X100532251Y-94059962D01*
X100529094Y-94064470D01*
X100529092Y-94064473D01*
X100409101Y-94235838D01*
X100405944Y-94240347D01*
X100403621Y-94245329D01*
X100403618Y-94245334D01*
X100356415Y-94346562D01*
X100312880Y-94439924D01*
X100255885Y-94652629D01*
X100236693Y-94872000D01*
X100237172Y-94877475D01*
X100237172Y-94877476D01*
X100246908Y-94988761D01*
X100232919Y-95058365D01*
X100210482Y-95088837D01*
X99906848Y-95392471D01*
X99844536Y-95426497D01*
X99773721Y-95421432D01*
X99716885Y-95378885D01*
X99692074Y-95312365D01*
X99696046Y-95270764D01*
X99742692Y-95096681D01*
X99744115Y-95091371D01*
X99763307Y-94872000D01*
X99744115Y-94652629D01*
X99687120Y-94439924D01*
X99643585Y-94346562D01*
X99596382Y-94245334D01*
X99596379Y-94245329D01*
X99594056Y-94240347D01*
X99590899Y-94235838D01*
X99470908Y-94064473D01*
X99470906Y-94064470D01*
X99467749Y-94059962D01*
X99312038Y-93904251D01*
X99131654Y-93777944D01*
X98932076Y-93684880D01*
X98719371Y-93627885D01*
X98500000Y-93608693D01*
X98280629Y-93627885D01*
X98067924Y-93684880D01*
X97974562Y-93728415D01*
X97873334Y-93775618D01*
X97873329Y-93775621D01*
X97868347Y-93777944D01*
X97863840Y-93781100D01*
X97863838Y-93781101D01*
X97692473Y-93901092D01*
X97692470Y-93901094D01*
X97687962Y-93904251D01*
X97532251Y-94059962D01*
X97529094Y-94064470D01*
X97529092Y-94064473D01*
X97409101Y-94235838D01*
X97405944Y-94240347D01*
X97403621Y-94245329D01*
X97403618Y-94245334D01*
X97356415Y-94346562D01*
X97312880Y-94439924D01*
X97255885Y-94652629D01*
X97236693Y-94872000D01*
X97255885Y-95091371D01*
X97312880Y-95304076D01*
X97347764Y-95378885D01*
X97403618Y-95498666D01*
X97403621Y-95498671D01*
X97405944Y-95503653D01*
X97409100Y-95508160D01*
X97409101Y-95508162D01*
X97510500Y-95652974D01*
X97532251Y-95684038D01*
X97572618Y-95724405D01*
X97606644Y-95786717D01*
X97601579Y-95857532D01*
X97559032Y-95914368D01*
X97492512Y-95939179D01*
X97483523Y-95939500D01*
X96516477Y-95939500D01*
X96448356Y-95919498D01*
X96401863Y-95865842D01*
X96391759Y-95795568D01*
X96421253Y-95730988D01*
X96427382Y-95724405D01*
X96467749Y-95684038D01*
X96489501Y-95652974D01*
X96590899Y-95508162D01*
X96590900Y-95508160D01*
X96594056Y-95503653D01*
X96596379Y-95498671D01*
X96596382Y-95498666D01*
X96652236Y-95378885D01*
X96687120Y-95304076D01*
X96744115Y-95091371D01*
X96763307Y-94872000D01*
X96744115Y-94652629D01*
X96687120Y-94439924D01*
X96643585Y-94346562D01*
X96596382Y-94245334D01*
X96596379Y-94245329D01*
X96594056Y-94240347D01*
X96590899Y-94235838D01*
X96470908Y-94064473D01*
X96470906Y-94064470D01*
X96467749Y-94059962D01*
X96312038Y-93904251D01*
X96131654Y-93777944D01*
X95932076Y-93684880D01*
X95719371Y-93627885D01*
X95500000Y-93608693D01*
X95280629Y-93627885D01*
X95275317Y-93629309D01*
X95275308Y-93629310D01*
X95166435Y-93658483D01*
X95095458Y-93656794D01*
X95036662Y-93617001D01*
X95008714Y-93551736D01*
X95007823Y-93536785D01*
X95007802Y-93207226D01*
X95027800Y-93139104D01*
X95081452Y-93092608D01*
X95151726Y-93082499D01*
X95166413Y-93085511D01*
X95275316Y-93114692D01*
X95275323Y-93114693D01*
X95280629Y-93116115D01*
X95500000Y-93135307D01*
X95719371Y-93116115D01*
X95932076Y-93059120D01*
X96131654Y-92966056D01*
X96253831Y-92880506D01*
X96307527Y-92842908D01*
X96307529Y-92842906D01*
X96312038Y-92839749D01*
X96467749Y-92684038D01*
X96483998Y-92660833D01*
X96590899Y-92508162D01*
X96590900Y-92508160D01*
X96594056Y-92503653D01*
X96596380Y-92498670D01*
X96596382Y-92498666D01*
X96656559Y-92369614D01*
X96687120Y-92304076D01*
X96744115Y-92091371D01*
X96763307Y-91872000D01*
X96744115Y-91652629D01*
X96742690Y-91647310D01*
X96742690Y-91647309D01*
X96714234Y-91541111D01*
X96715923Y-91470135D01*
X96755716Y-91411338D01*
X96820981Y-91383390D01*
X96836042Y-91382499D01*
X97164090Y-91382768D01*
G37*
%TD.AperFunction*%
%TD*%
%TA.AperFunction,Conductor*%
%TO.N,GND1*%
G36*
X100238981Y-81513932D02*
G01*
X100837445Y-81527538D01*
X100843166Y-81527798D01*
X101675987Y-81584674D01*
X101681690Y-81585194D01*
X102511045Y-81679853D01*
X102516719Y-81680631D01*
X102906170Y-81743120D01*
X103340965Y-81812885D01*
X103346567Y-81813915D01*
X103912598Y-81931343D01*
X104163920Y-81983482D01*
X104169499Y-81984772D01*
X104978309Y-82191305D01*
X104983825Y-82192848D01*
X105782412Y-82435921D01*
X105787851Y-82437713D01*
X106574548Y-82716815D01*
X106579901Y-82718852D01*
X107353120Y-83033421D01*
X107358374Y-83035699D01*
X108116508Y-83385083D01*
X108121653Y-83387598D01*
X108863090Y-83771051D01*
X108868116Y-83773796D01*
X109591412Y-84190573D01*
X109596308Y-84193545D01*
X109862733Y-84363641D01*
X110299889Y-84642739D01*
X110304614Y-84645908D01*
X110658327Y-84895058D01*
X110987096Y-85126638D01*
X110991702Y-85130042D01*
X111244819Y-85326130D01*
X111286421Y-85383661D01*
X111290315Y-85454550D01*
X111255266Y-85516292D01*
X111192400Y-85549283D01*
X111176444Y-85551430D01*
X111146428Y-85553529D01*
X111079788Y-85558189D01*
X110805030Y-85616591D01*
X110800901Y-85618094D01*
X110800897Y-85618095D01*
X110545219Y-85711154D01*
X110545215Y-85711156D01*
X110541074Y-85712663D01*
X110293058Y-85844536D01*
X110289499Y-85847122D01*
X110289497Y-85847123D01*
X110184895Y-85923121D01*
X110065808Y-86009642D01*
X110062644Y-86012698D01*
X110062641Y-86012700D01*
X110028682Y-86045494D01*
X109863748Y-86204769D01*
X109690812Y-86426118D01*
X109688616Y-86429922D01*
X109688611Y-86429929D01*
X109574794Y-86627067D01*
X109550364Y-86669381D01*
X109445138Y-86929824D01*
X109444073Y-86934097D01*
X109444072Y-86934099D01*
X109383861Y-87175593D01*
X109377183Y-87202376D01*
X109376724Y-87206744D01*
X109376723Y-87206749D01*
X109356049Y-87403459D01*
X109347822Y-87481733D01*
X109347975Y-87486121D01*
X109347975Y-87486127D01*
X109349106Y-87518499D01*
X109357625Y-87762458D01*
X109358387Y-87766781D01*
X109358388Y-87766788D01*
X109382164Y-87901624D01*
X109406402Y-88039087D01*
X109493203Y-88306235D01*
X109616340Y-88558702D01*
X109618795Y-88562341D01*
X109618798Y-88562347D01*
X109693354Y-88672880D01*
X109773415Y-88791576D01*
X109776361Y-88794848D01*
X109777376Y-88796147D01*
X109803555Y-88862141D01*
X109789899Y-88931812D01*
X109767183Y-88962817D01*
X108799905Y-89930095D01*
X108737593Y-89964121D01*
X108710810Y-89967000D01*
X95174000Y-89967000D01*
X94031000Y-91110000D01*
X94031000Y-94106808D01*
X94010998Y-94174929D01*
X93995295Y-94194687D01*
X93836966Y-94357369D01*
X93775121Y-94392236D01*
X93704243Y-94388132D01*
X93646836Y-94346360D01*
X93632476Y-94322739D01*
X93596384Y-94245338D01*
X93596381Y-94245332D01*
X93594056Y-94240347D01*
X93500551Y-94106808D01*
X93470908Y-94064473D01*
X93470906Y-94064470D01*
X93467749Y-94059962D01*
X93312038Y-93904251D01*
X93290598Y-93889238D01*
X93232759Y-93848739D01*
X93131654Y-93777944D01*
X92932076Y-93684880D01*
X92719371Y-93627885D01*
X92500000Y-93608693D01*
X92280629Y-93627885D01*
X92067924Y-93684880D01*
X91974562Y-93728415D01*
X91873334Y-93775618D01*
X91873329Y-93775621D01*
X91868347Y-93777944D01*
X91863840Y-93781100D01*
X91863838Y-93781101D01*
X91692473Y-93901092D01*
X91692470Y-93901094D01*
X91687962Y-93904251D01*
X91532251Y-94059962D01*
X91529094Y-94064470D01*
X91529092Y-94064473D01*
X91499449Y-94106808D01*
X91405944Y-94240347D01*
X91403621Y-94245329D01*
X91403618Y-94245334D01*
X91400976Y-94251000D01*
X91312880Y-94439924D01*
X91255885Y-94652629D01*
X91255406Y-94658106D01*
X91240723Y-94825934D01*
X91214860Y-94892053D01*
X91157356Y-94933692D01*
X91115202Y-94940953D01*
X90884798Y-94940953D01*
X90816677Y-94920951D01*
X90770184Y-94867295D01*
X90759277Y-94825934D01*
X90744594Y-94658106D01*
X90744115Y-94652629D01*
X90687120Y-94439924D01*
X90599024Y-94251000D01*
X90596382Y-94245334D01*
X90596379Y-94245329D01*
X90594056Y-94240347D01*
X90500551Y-94106808D01*
X90470908Y-94064473D01*
X90470906Y-94064470D01*
X90467749Y-94059962D01*
X90312038Y-93904251D01*
X90290598Y-93889238D01*
X90232759Y-93848739D01*
X90131654Y-93777944D01*
X89932076Y-93684880D01*
X89719371Y-93627885D01*
X89500000Y-93608693D01*
X89280629Y-93627885D01*
X89067924Y-93684880D01*
X88974562Y-93728415D01*
X88873334Y-93775618D01*
X88873329Y-93775621D01*
X88868347Y-93777944D01*
X88863840Y-93781100D01*
X88863838Y-93781101D01*
X88692473Y-93901092D01*
X88692470Y-93901094D01*
X88687962Y-93904251D01*
X88532251Y-94059962D01*
X88529094Y-94064470D01*
X88529092Y-94064473D01*
X88499449Y-94106808D01*
X88405944Y-94240347D01*
X88403621Y-94245329D01*
X88403618Y-94245334D01*
X88400976Y-94251000D01*
X88312880Y-94439924D01*
X88255885Y-94652629D01*
X88255406Y-94658106D01*
X88240723Y-94825934D01*
X88214860Y-94892053D01*
X88157356Y-94933692D01*
X88115202Y-94940953D01*
X87884798Y-94940953D01*
X87816677Y-94920951D01*
X87770184Y-94867295D01*
X87759277Y-94825934D01*
X87744594Y-94658106D01*
X87744115Y-94652629D01*
X87687120Y-94439924D01*
X87599024Y-94251000D01*
X87596382Y-94245334D01*
X87596379Y-94245329D01*
X87594056Y-94240347D01*
X87500551Y-94106808D01*
X87470908Y-94064473D01*
X87470906Y-94064470D01*
X87467749Y-94059962D01*
X87312038Y-93904251D01*
X87290598Y-93889238D01*
X87232759Y-93848739D01*
X87131654Y-93777944D01*
X86932076Y-93684880D01*
X86719371Y-93627885D01*
X86500000Y-93608693D01*
X86280629Y-93627885D01*
X86067924Y-93684880D01*
X85974562Y-93728415D01*
X85873334Y-93775618D01*
X85873329Y-93775621D01*
X85868347Y-93777944D01*
X85863840Y-93781100D01*
X85863838Y-93781101D01*
X85692473Y-93901092D01*
X85692470Y-93901094D01*
X85687962Y-93904251D01*
X85532251Y-94059962D01*
X85529094Y-94064470D01*
X85529092Y-94064473D01*
X85499449Y-94106808D01*
X85405944Y-94240347D01*
X85403621Y-94245329D01*
X85403618Y-94245334D01*
X85400976Y-94251000D01*
X85312880Y-94439924D01*
X85255885Y-94652629D01*
X85255406Y-94658106D01*
X85240723Y-94825934D01*
X85214860Y-94892053D01*
X85157356Y-94933692D01*
X85115202Y-94940953D01*
X79694676Y-94940953D01*
X79626555Y-94920951D01*
X79580062Y-94867295D01*
X79569958Y-94797021D01*
X79602704Y-94728830D01*
X81765610Y-92419096D01*
X85242000Y-92419096D01*
X85242337Y-92425611D01*
X85252256Y-92521203D01*
X85255150Y-92534602D01*
X85306588Y-92688783D01*
X85312762Y-92701962D01*
X85398063Y-92839807D01*
X85407099Y-92851208D01*
X85521830Y-92965739D01*
X85533241Y-92974751D01*
X85671245Y-93059818D01*
X85684423Y-93065962D01*
X85838716Y-93117139D01*
X85852081Y-93120005D01*
X85946439Y-93129672D01*
X85952855Y-93130000D01*
X86227885Y-93130000D01*
X86243124Y-93125525D01*
X86244329Y-93124135D01*
X86246000Y-93116452D01*
X86246000Y-93111885D01*
X86754000Y-93111885D01*
X86758475Y-93127124D01*
X86759865Y-93128329D01*
X86767548Y-93130000D01*
X87047096Y-93130000D01*
X87053611Y-93129663D01*
X87149203Y-93119744D01*
X87162602Y-93116850D01*
X87316783Y-93065412D01*
X87329962Y-93059238D01*
X87467807Y-92973937D01*
X87479208Y-92964901D01*
X87593739Y-92850170D01*
X87602751Y-92838759D01*
X87687818Y-92700755D01*
X87693962Y-92687577D01*
X87745139Y-92533284D01*
X87748005Y-92519919D01*
X87757672Y-92425561D01*
X87758000Y-92419145D01*
X87758000Y-92144115D01*
X87753525Y-92128876D01*
X87752135Y-92127671D01*
X87744452Y-92126000D01*
X86772115Y-92126000D01*
X86756876Y-92130475D01*
X86755671Y-92131865D01*
X86754000Y-92139548D01*
X86754000Y-93111885D01*
X86246000Y-93111885D01*
X86246000Y-92144115D01*
X86241525Y-92128876D01*
X86240135Y-92127671D01*
X86232452Y-92126000D01*
X85260115Y-92126000D01*
X85244876Y-92130475D01*
X85243671Y-92131865D01*
X85242000Y-92139548D01*
X85242000Y-92419096D01*
X81765610Y-92419096D01*
X82277928Y-91872000D01*
X88236693Y-91872000D01*
X88255885Y-92091371D01*
X88312880Y-92304076D01*
X88356415Y-92397438D01*
X88403618Y-92498666D01*
X88403621Y-92498671D01*
X88405944Y-92503653D01*
X88409100Y-92508160D01*
X88409101Y-92508162D01*
X88510500Y-92652974D01*
X88532251Y-92684038D01*
X88687962Y-92839749D01*
X88692471Y-92842906D01*
X88692473Y-92842908D01*
X88704327Y-92851208D01*
X88868346Y-92966056D01*
X89067924Y-93059120D01*
X89280629Y-93116115D01*
X89500000Y-93135307D01*
X89719371Y-93116115D01*
X89932076Y-93059120D01*
X90131654Y-92966056D01*
X90295673Y-92851208D01*
X90307527Y-92842908D01*
X90307529Y-92842906D01*
X90312038Y-92839749D01*
X90467749Y-92684038D01*
X90489501Y-92652974D01*
X90590899Y-92508162D01*
X90590900Y-92508160D01*
X90594056Y-92503653D01*
X90596379Y-92498671D01*
X90596382Y-92498666D01*
X90643585Y-92397438D01*
X90687120Y-92304076D01*
X90744115Y-92091371D01*
X90763307Y-91872000D01*
X91236693Y-91872000D01*
X91255885Y-92091371D01*
X91312880Y-92304076D01*
X91356415Y-92397438D01*
X91403618Y-92498666D01*
X91403621Y-92498671D01*
X91405944Y-92503653D01*
X91409100Y-92508160D01*
X91409101Y-92508162D01*
X91510500Y-92652974D01*
X91532251Y-92684038D01*
X91687962Y-92839749D01*
X91692471Y-92842906D01*
X91692473Y-92842908D01*
X91704327Y-92851208D01*
X91868346Y-92966056D01*
X92067924Y-93059120D01*
X92280629Y-93116115D01*
X92500000Y-93135307D01*
X92719371Y-93116115D01*
X92932076Y-93059120D01*
X93131654Y-92966056D01*
X93295673Y-92851208D01*
X93307527Y-92842908D01*
X93307529Y-92842906D01*
X93312038Y-92839749D01*
X93467749Y-92684038D01*
X93489501Y-92652974D01*
X93590899Y-92508162D01*
X93590900Y-92508160D01*
X93594056Y-92503653D01*
X93596379Y-92498671D01*
X93596382Y-92498666D01*
X93643585Y-92397438D01*
X93687120Y-92304076D01*
X93744115Y-92091371D01*
X93763307Y-91872000D01*
X93744115Y-91652629D01*
X93687120Y-91439924D01*
X93637048Y-91332543D01*
X93596382Y-91245334D01*
X93596379Y-91245329D01*
X93594056Y-91240347D01*
X93590899Y-91235838D01*
X93470908Y-91064473D01*
X93470906Y-91064470D01*
X93467749Y-91059962D01*
X93312038Y-90904251D01*
X93297156Y-90893830D01*
X93232759Y-90848739D01*
X93131654Y-90777944D01*
X92932076Y-90684880D01*
X92719371Y-90627885D01*
X92500000Y-90608693D01*
X92280629Y-90627885D01*
X92067924Y-90684880D01*
X91974562Y-90728415D01*
X91873334Y-90775618D01*
X91873329Y-90775621D01*
X91868347Y-90777944D01*
X91863840Y-90781100D01*
X91863838Y-90781101D01*
X91692473Y-90901092D01*
X91692470Y-90901094D01*
X91687962Y-90904251D01*
X91532251Y-91059962D01*
X91529094Y-91064470D01*
X91529092Y-91064473D01*
X91409101Y-91235838D01*
X91405944Y-91240347D01*
X91403621Y-91245329D01*
X91403618Y-91245334D01*
X91362952Y-91332543D01*
X91312880Y-91439924D01*
X91255885Y-91652629D01*
X91236693Y-91872000D01*
X90763307Y-91872000D01*
X90744115Y-91652629D01*
X90687120Y-91439924D01*
X90637048Y-91332543D01*
X90596382Y-91245334D01*
X90596379Y-91245329D01*
X90594056Y-91240347D01*
X90590899Y-91235838D01*
X90470908Y-91064473D01*
X90470906Y-91064470D01*
X90467749Y-91059962D01*
X90312038Y-90904251D01*
X90297156Y-90893830D01*
X90232759Y-90848739D01*
X90131654Y-90777944D01*
X89932076Y-90684880D01*
X89719371Y-90627885D01*
X89500000Y-90608693D01*
X89280629Y-90627885D01*
X89067924Y-90684880D01*
X88974562Y-90728415D01*
X88873334Y-90775618D01*
X88873329Y-90775621D01*
X88868347Y-90777944D01*
X88863840Y-90781100D01*
X88863838Y-90781101D01*
X88692473Y-90901092D01*
X88692470Y-90901094D01*
X88687962Y-90904251D01*
X88532251Y-91059962D01*
X88529094Y-91064470D01*
X88529092Y-91064473D01*
X88409101Y-91235838D01*
X88405944Y-91240347D01*
X88403621Y-91245329D01*
X88403618Y-91245334D01*
X88362952Y-91332543D01*
X88312880Y-91439924D01*
X88255885Y-91652629D01*
X88236693Y-91872000D01*
X82277928Y-91872000D01*
X82532745Y-91599885D01*
X85242000Y-91599885D01*
X85246475Y-91615124D01*
X85247865Y-91616329D01*
X85255548Y-91618000D01*
X86227885Y-91618000D01*
X86243124Y-91613525D01*
X86244329Y-91612135D01*
X86246000Y-91604452D01*
X86246000Y-91599885D01*
X86754000Y-91599885D01*
X86758475Y-91615124D01*
X86759865Y-91616329D01*
X86767548Y-91618000D01*
X87739885Y-91618000D01*
X87755124Y-91613525D01*
X87756329Y-91612135D01*
X87758000Y-91604452D01*
X87758000Y-91324904D01*
X87757663Y-91318389D01*
X87747744Y-91222797D01*
X87744850Y-91209398D01*
X87693412Y-91055217D01*
X87687238Y-91042038D01*
X87601937Y-90904193D01*
X87592901Y-90892792D01*
X87478170Y-90778261D01*
X87466759Y-90769249D01*
X87328755Y-90684182D01*
X87315577Y-90678038D01*
X87161284Y-90626861D01*
X87147919Y-90623995D01*
X87053561Y-90614328D01*
X87047144Y-90614000D01*
X86772115Y-90614000D01*
X86756876Y-90618475D01*
X86755671Y-90619865D01*
X86754000Y-90627548D01*
X86754000Y-91599885D01*
X86246000Y-91599885D01*
X86246000Y-90632115D01*
X86241525Y-90616876D01*
X86240135Y-90615671D01*
X86232452Y-90614000D01*
X85952904Y-90614000D01*
X85946389Y-90614337D01*
X85850797Y-90624256D01*
X85837398Y-90627150D01*
X85683217Y-90678588D01*
X85670038Y-90684762D01*
X85532193Y-90770063D01*
X85520792Y-90779099D01*
X85406261Y-90893830D01*
X85397249Y-90905241D01*
X85312182Y-91043245D01*
X85306038Y-91056423D01*
X85254861Y-91210716D01*
X85251995Y-91224081D01*
X85242328Y-91318439D01*
X85242000Y-91324856D01*
X85242000Y-91599885D01*
X82532745Y-91599885D01*
X86431212Y-87436772D01*
X86492375Y-87400721D01*
X86563318Y-87403459D01*
X86621519Y-87444118D01*
X86648499Y-87509789D01*
X86649106Y-87518496D01*
X86657625Y-87762458D01*
X86658387Y-87766781D01*
X86658388Y-87766788D01*
X86682164Y-87901624D01*
X86706402Y-88039087D01*
X86793203Y-88306235D01*
X86916340Y-88558702D01*
X86918795Y-88562341D01*
X86918798Y-88562347D01*
X86991890Y-88670710D01*
X87073415Y-88791576D01*
X87261371Y-89000322D01*
X87476550Y-89180879D01*
X87714764Y-89329731D01*
X87971375Y-89443982D01*
X88241390Y-89521407D01*
X88245740Y-89522018D01*
X88245743Y-89522019D01*
X88348690Y-89536487D01*
X88519552Y-89560500D01*
X88730146Y-89560500D01*
X88732332Y-89560347D01*
X88732336Y-89560347D01*
X88935827Y-89546118D01*
X88935832Y-89546117D01*
X88940212Y-89545811D01*
X89214970Y-89487409D01*
X89219099Y-89485906D01*
X89219103Y-89485905D01*
X89474781Y-89392846D01*
X89474785Y-89392844D01*
X89478926Y-89391337D01*
X89726942Y-89259464D01*
X89831896Y-89183211D01*
X89950629Y-89096947D01*
X89950632Y-89096944D01*
X89954192Y-89094358D01*
X90156252Y-88899231D01*
X90329188Y-88677882D01*
X90331384Y-88674078D01*
X90331389Y-88674071D01*
X90467435Y-88438431D01*
X90469636Y-88434619D01*
X90574862Y-88174176D01*
X90608544Y-88039087D01*
X90641753Y-87905893D01*
X90641754Y-87905888D01*
X90642817Y-87901624D01*
X90672178Y-87622267D01*
X90672025Y-87617873D01*
X90662529Y-87345939D01*
X90662528Y-87345933D01*
X90662375Y-87341542D01*
X90661382Y-87335907D01*
X90614360Y-87069236D01*
X90613598Y-87064913D01*
X90526797Y-86797765D01*
X90403660Y-86545298D01*
X90401205Y-86541659D01*
X90401202Y-86541653D01*
X90320935Y-86422653D01*
X90246585Y-86312424D01*
X90058629Y-86103678D01*
X89843450Y-85923121D01*
X89605236Y-85774269D01*
X89348625Y-85660018D01*
X89078610Y-85582593D01*
X89074260Y-85581982D01*
X89074257Y-85581981D01*
X88820264Y-85546285D01*
X88755590Y-85516997D01*
X88717017Y-85457393D01*
X88716792Y-85386397D01*
X88754986Y-85326549D01*
X88760615Y-85321920D01*
X89008404Y-85129962D01*
X89012981Y-85126580D01*
X89341673Y-84895058D01*
X89695430Y-84645880D01*
X89700182Y-84642691D01*
X90403790Y-84193485D01*
X90408686Y-84190514D01*
X91131951Y-83773760D01*
X91136977Y-83771014D01*
X91304211Y-83684525D01*
X91878475Y-83387534D01*
X91883590Y-83385035D01*
X92641718Y-83035659D01*
X92646968Y-83033383D01*
X93420183Y-82718821D01*
X93425535Y-82716784D01*
X94212247Y-82437680D01*
X94217687Y-82435888D01*
X95016263Y-82192824D01*
X95021778Y-82191281D01*
X95830599Y-81984749D01*
X95836179Y-81983459D01*
X96653527Y-81813898D01*
X96659129Y-81812868D01*
X97483380Y-81680616D01*
X97489048Y-81679839D01*
X98318409Y-81585185D01*
X98324112Y-81584665D01*
X99156930Y-81527794D01*
X99162651Y-81527534D01*
X99712251Y-81515042D01*
X99997189Y-81508565D01*
X100002908Y-81508565D01*
X100238981Y-81513932D01*
G37*
%TD.AperFunction*%
%TD*%
M02*
